<svg id="eM5bHaTUJV71" xmlns="http://www.w3.org/2000/svg" xmlns:xlink="http://www.w3.org/1999/xlink" viewBox="0 0 253 272" shape-rendering="geometricPrecision" text-rendering="geometricPrecision">
<style><![CDATA[
#eM5bHaTUJV751 {animation: eM5bHaTUJV751_c_o 4500ms linear infinite normal forwards}@keyframes eM5bHaTUJV751_c_o { 0% {opacity: 0;animation-timing-function: cubic-bezier(0.25,1,0.25,1)} 60% {opacity: 0;animation-timing-function: cubic-bezier(0.25,1,0.25,1)} 66.666667% {opacity: 1;animation-timing-function: cubic-bezier(0.25,1,0.25,1)} 93.333333% {opacity: 1;animation-timing-function: cubic-bezier(0.25,1,0.25,1)} 100% {opacity: 0}} #eM5bHaTUJV754 {animation: eM5bHaTUJV754_c_o 4500ms linear infinite normal forwards}@keyframes eM5bHaTUJV754_c_o { 0% {opacity: 0;animation-timing-function: cubic-bezier(0.25,1,0.25,1)} 26.666667% {opacity: 0;animation-timing-function: cubic-bezier(0.25,1,0.25,1)} 33.333333% {opacity: 1;animation-timing-function: cubic-bezier(0.25,1,0.25,1)} 60% {opacity: 1;animation-timing-function: cubic-bezier(0.25,1,0.25,1)} 66.666667% {opacity: 0} 100% {opacity: 0}} #eM5bHaTUJV755 {animation: eM5bHaTUJV755_c_o 4500ms linear infinite normal forwards}@keyframes eM5bHaTUJV755_c_o { 0% {opacity: 1;animation-timing-function: cubic-bezier(0.25,1,0.25,1)} 26.666667% {opacity: 1;animation-timing-function: cubic-bezier(0.25,1,0.25,1)} 33.333333% {opacity: 0;animation-timing-function: cubic-bezier(0.25,1,0.25,1)} 93.333333% {opacity: 0;animation-timing-function: cubic-bezier(0.25,1,0.25,1)} 100% {opacity: 1}}
]]></style>
<defs><filter id="eM5bHaTUJV739-filter" x="-150%" width="400%" y="-150%" height="400%"><feGaussianBlur id="eM5bHaTUJV739-filter-drop-shadow-0-blur" in="SourceAlpha" stdDeviation="10,10"/><feOffset id="eM5bHaTUJV739-filter-drop-shadow-0-offset" dx="0" dy="2" result="tmp"/><feFlood id="eM5bHaTUJV739-filter-drop-shadow-0-flood" flood-color="#000"/><feComposite id="eM5bHaTUJV739-filter-drop-shadow-0-composite" operator="in" in2="tmp"/><feMerge id="eM5bHaTUJV739-filter-drop-shadow-0-merge" result="result"><feMergeNode id="eM5bHaTUJV739-filter-drop-shadow-0-merge-node-1"/><feMergeNode id="eM5bHaTUJV739-filter-drop-shadow-0-merge-node-2" in="SourceGraphic"/></feMerge></filter><linearGradient id="eM5bHaTUJV740-fill" x1="206.5" y1="75.5" x2="195.662" y2="38.9152" spreadMethod="pad" gradientUnits="userSpaceOnUse" gradientTransform="translate(0 0)"><stop id="eM5bHaTUJV740-fill-0" offset="0%" stop-color="#2d3639"/><stop id="eM5bHaTUJV740-fill-1" offset="100%" stop-color="#5f4dc7"/></linearGradient><filter id="eM5bHaTUJV749-filter" x="-150%" width="400%" y="-150%" height="400%"><feGaussianBlur id="eM5bHaTUJV749-filter-drop-shadow-0-blur" in="SourceAlpha" stdDeviation="10,10"/><feOffset id="eM5bHaTUJV749-filter-drop-shadow-0-offset" dx="0" dy="2" result="tmp"/><feFlood id="eM5bHaTUJV749-filter-drop-shadow-0-flood" flood-color="rgba(0,0,0,0)"/><feComposite id="eM5bHaTUJV749-filter-drop-shadow-0-composite" operator="in" in2="tmp"/><feMerge id="eM5bHaTUJV749-filter-drop-shadow-0-merge" result="result"><feMergeNode id="eM5bHaTUJV749-filter-drop-shadow-0-merge-node-1"/><feMergeNode id="eM5bHaTUJV749-filter-drop-shadow-0-merge-node-2" in="SourceGraphic"/></feMerge></filter><linearGradient id="eM5bHaTUJV750-fill" x1="2" y1="0" x2="33" y2="34" spreadMethod="pad" gradientUnits="userSpaceOnUse" gradientTransform="translate(0 0)"><stop id="eM5bHaTUJV750-fill-0" offset="0%" stop-color="#2d3639"/><stop id="eM5bHaTUJV750-fill-1" offset="100%" stop-color="#5f4dc7"/></linearGradient></defs><path d="M177.216,110.871h-147.3964c-3.6636,0-6.6335-2.971-6.6335-6.635v-79.216c0-3.6645,2.9699-6.6354,6.6335-6.6354h147.3964c3.664,0,6.634,2.9709,6.634,6.6354v79.216c0,3.664-2.97,6.635-6.634,6.635Z" clip-rule="evenodd" fill="#384347" fill-rule="evenodd"/><g mask="url(#eM5bHaTUJV79)"><g><path d="M30.9624,94.5639h145.1116v-68.9252h-145.1116v68.9252Z" clip-rule="evenodd" fill="#b6ccfc" fill-rule="evenodd"/><path d="M128.597,135.552h-50.158c-1.4418,0-1.6957-2.059-.2972-2.408l.7801-.195c7.1501-1.787,12.2895-7.937,12.8744-15.185.0362-.455.0544-.916.0544-1.378v-5.513h23.3363v5.513c0,7.834,5.33,14.662,12.927,16.563l.78.195c1.398.349,1.144,2.408-.297,2.408Z" clip-rule="evenodd" fill="#384347" fill-rule="evenodd"/><path d="M103.518,98.4604c-1.873,0-3.398,1.5247-3.398,3.3986c0,1.874,1.525,3.4,3.398,3.4c1.874,0,3.398-1.526,3.398-3.4c0-1.8739-1.524-3.3986-3.398-3.3986Zm0,7.5266c-2.275,0-4.1264-1.852-4.1264-4.128c0-2.2756,1.8514-4.1274,4.1264-4.1274c2.276,0,4.127,1.8518,4.127,4.1274c0,2.276-1.851,4.128-4.127,4.128Z" clip-rule="evenodd" fill="#21211d" fill-rule="evenodd"/><path d="M115.187,110.873v1.728l-23.3906,5.163c.0362-.455.0546-.916.0546-1.378v-5.513h23.336Z" clip-rule="evenodd" fill="#21211d" fill-rule="evenodd"/></g><mask id="eM5bHaTUJV79" mask-type="alpha" x="-150%" y="-150%" height="400%" width="400%"><path d="M17,135.551h174L191,0L17,0v135.551Z" clip-rule="evenodd" fill="#fff" fill-rule="evenodd"/></mask></g><g mask="url(#eM5bHaTUJV714)"><g><path d="M46.0463,99.9158L95.912,109.935l95.183-73.758-11.054-36.410459L152.404,9.46989L46.0463,99.9158Z" clip-rule="evenodd" fill="#cdddf9" fill-rule="evenodd"/></g><mask id="eM5bHaTUJV714" mask-type="alpha" x="-150%" y="-150%" height="400%" width="400%"><path d="M46.0463,25.4276h130.1147v68.987h-130.1147v-68.987Z" clip-rule="evenodd" fill="#fff" fill-rule="evenodd"/></mask></g><g mask="url(#eM5bHaTUJV719)"><g><path d="M22.5497,100.217L124.01,17.9304l-22.127,3.648L17.0094,86.8986l5.5403,13.3184Z" clip-rule="evenodd" fill="#cdddf9" fill-rule="evenodd"/></g><mask id="eM5bHaTUJV719" mask-type="alpha" x="-150%" y="-150%" height="400%" width="400%"><path d="M30.9787,25.4277h93.0303v68.987h-93.0303v-68.987Z" clip-rule="evenodd" fill="#fff" fill-rule="evenodd"/></mask></g><path d="M27.7587,243.377c-.1057,0-.2027-.093-.2321-.24L6.00874,137.358c-.03539-.175.0399-.355.16828-.404.12823-.048.26096.055.2965.229L27.9912,242.964c.0356.173-.0399.354-.1681.403-.0215.006-.0431.01-.0644.01Z" clip-rule="evenodd" fill="#384347" fill-rule="evenodd"/><path d="M5.11812,271.551c-.02125,0-.04279-.002-.06418-.013-.12792-.062-.20319-.291-.16773-.51L26.352,137.246c.0355-.219.1681-.35.2958-.288.1281.061.2032.288.1679.51L5.34973,271.247c-.02933.186-.12613.304-.23161.304Z" clip-rule="evenodd" fill="#384347" fill-rule="evenodd"/><path d="M249.102,271.551c-.105,0-.202-.118-.232-.304L227.404,137.468c-.036-.222.041-.449.168-.51.127-.062.26.069.296.288l21.465,133.782c.036.219-.038.448-.167.51-.021.008-.043.013-.064.013Z" clip-rule="evenodd" fill="#384347" fill-rule="evenodd"/><path d="M226.241,243.377c-.021,0-.043-.002-.064-.01-.129-.049-.204-.23-.168-.403l21.518-105.781c.036-.174.168-.277.297-.229.127.049.202.229.168.404L226.474,243.137c-.03.147-.128.24-.233.24Z" clip-rule="evenodd" fill="#384347" fill-rule="evenodd"/><g mask="url(#eM5bHaTUJV729)"><g><path d="M0.000305,137.477h253.001695v-9.926h-253.001695v9.926Z" clip-rule="evenodd" fill="#9cb2dc" fill-rule="evenodd"/><path d="M252.385,131.304h-251.872034c-.166282,0-.301235-.155-.301235-.345c0-.192.134953-.346.301235-.346h251.872034c.166,0,.302.154.302.346c0,.19-.136.345-.302.345Z" clip-rule="evenodd" fill="#fff" fill-rule="evenodd"/></g><mask id="eM5bHaTUJV729" mask-type="alpha" x="-150%" y="-150%" height="400%" width="400%"><path d="M0,227.481h253v-99.93h-253v99.93Z" clip-rule="evenodd" fill="#fff" fill-rule="evenodd"/></mask></g><path d="M222.899,126.252c-.035,0-.07-.005-.106-.016-.174-.051-.27-.22-.211-.376L240.13,78.3593L195.147,43.4039c-.139-.108-.154-.2964-.031-.4206.12-.1241.33-.1374.469-.0293l45.152,35.0855c.102.0788.139.2042.097.3185l-17.619,47.689c-.046.125-.177.205-.316.205Z" clip-rule="evenodd" fill="#384347" fill-rule="evenodd"/><path d="M244.112,78.2648c0,2.6877-2.441,4.8664-5.45,4.8664-3.007,0-5.447-2.1787-5.447-4.8664s2.44-4.8666,5.447-4.8666c3.009,0,5.45,2.1788,5.45,4.8666Z" clip-rule="evenodd" fill="#8c7cdb" fill-rule="evenodd"/><path d="M238.662,76.9058c-.837,0-1.52.6094-1.52,1.3585s.683,1.3585,1.52,1.3585c.839,0,1.522-.6094,1.522-1.3585s-.683-1.3585-1.522-1.3585Zm0,3.3133c-1.207,0-2.187-.8769-2.187-1.9548s.98-1.9547,2.187-1.9547s2.189.8769,2.189,1.9547-.982,1.9548-2.189,1.9548Z" clip-rule="evenodd" fill="#384347" fill-rule="evenodd"/><g mask="url(#eM5bHaTUJV737)"><g><path d="M240.865,123.409h-31.98c-2.561,0-4.635,1.855-4.635,4.142h41.251c0-2.287-2.075-4.142-4.636-4.142Z" clip-rule="evenodd" fill="#e3e9f5" fill-rule="evenodd"/></g><mask id="eM5bHaTUJV737" mask-type="alpha" x="-150%" y="-150%" height="400%" width="400%"><path d="M204.25,123.409h41.251v4.142h-41.251v-4.142Z" clip-rule="evenodd" fill="#fff" fill-rule="evenodd"/></mask></g><g filter="url(#eM5bHaTUJV739-filter)"><path d="M183.731,38.8083c1.497.4284,3.147.1937,4.308-.8434l.628-.5609c1.273-1.1376,3.338-1.1376,4.611,0l4.062,3.6273c1.273,1.1376,1.273,2.9819,0,4.1195l-.175.1559c-1.382,1.2342-1.678,3.2447-1.145,5.0195c1.666,5.553.06,11.7264-4.818,16.0836l-3.886,3.471c-1.518,1.3559-3.812,1.3559-5.329.0001L161.657,51.721c-1.78-1.5902-1.78-4.3758,0-5.9661l3.211-2.8684c5.104-4.5587,12.433-5.9181,18.863-4.0782Z" clip-rule="evenodd" fill="url(#eM5bHaTUJV740-fill)" fill-rule="evenodd"/></g><g mask="url(#eM5bHaTUJV744)"><g><path d="M184.651,72.2605c-3.618,3.232-12.418.612-19.651-5.8509-7.238-6.4638-10.17-14.3237-6.552-17.5555c2.695-2.4071,8.267-1.5663,13.927,1.6934c1.933,1.1138,3.881,2.5118,5.725,4.1595c1.845,1.6467,3.408,3.3855,4.657,5.1137c3.648,5.0536,4.589,10.0319,1.894,12.4398Z" clip-rule="evenodd" fill="#fff" fill-rule="evenodd"/></g><mask id="eM5bHaTUJV744" mask-type="alpha" x="-150%" y="-150%" height="400%" width="400%"><path d="M156.899,47.4706h29.301v26.1743h-29.301v-26.1743Z" clip-rule="evenodd" fill="#fff" fill-rule="evenodd"/></mask></g><path d="M181.407,61.4447c-2.995,2.6761-7.855,2.6772-10.849.001-2.997-2.677-2.997-7.0178,0-9.6939.548-.4912,1.163-.8936,1.817-1.2039c1.933,1.114,3.881,2.5118,5.726,4.1597c1.842,1.6466,3.408,3.3855,4.656,5.1137-.349.5836-.8,1.132-1.35,1.6234Z" clip-rule="evenodd" fill="#feb251" fill-rule="evenodd"/><path d="M194.743,47.7696c-.137,0-.264-.0742-.314-.1942-.018-.046-1.989-4.6287-8.386-7.706-.162-.0781-.222-.259-.135-.4041s.289-.1989.453-.1211c6.629,3.1902,8.612,7.8279,8.693,8.0238.065.1543-.023.3256-.195.3829-.039.0126-.079.0187-.116.0187Z" clip-rule="evenodd" fill="#384347" fill-rule="evenodd"/><path d="M245.395,126.969h-41.146c-.184,0-.334-.134-.334-.299c0-.163.15-.297.334-.297h41.146c.185,0,.334.134.334.297c0,.165-.149.299-.334.299Z" clip-rule="evenodd" fill="#384347" fill-rule="evenodd"/><g transform="translate(69.645 23.0737)" filter="url(#eM5bHaTUJV749-filter)"><rect width="36" height="36" rx="4" ry="4" transform="translate(20 18)" fill="url(#eM5bHaTUJV750-fill)"/><g id="eM5bHaTUJV751" transform="translate(26 24)" opacity="0"><path d="M19.4646,20c-.1481,0-.2626-.0457-.3434-.1371-.0808-.1067-.1212-.2362-.1212-.3886v-14.94859c0-.15238.0404-.27428.1212-.36571.0808-.10667.1953-.16.3434-.16h1.0708c.1346,0,.2424.05333.3232.16.0943.09143.1414.21333.1414.36571v14.94859c0,.1524-.0471.2819-.1414.3886-.0808.0914-.1886.1371-.3232.1371h-1.0708Z" fill="#fff"/><path d="M3.45714,20c-.1219,0-.22857-.0457-.32-.1371s-.13714-.1981-.13714-.32c0-.0762.00762-.16.02286-.2515L8.69143,4.50286c.06095-.15238.14476-.27429.25143-.36572s.26666-.13714.48-.13714h1.55424c.1981,0,.3505.04571.4572.13714.1219.09143.2133.21334.2743.36572L17.3543,19.2914c.0305.0915.0457.1753.0457.2515c0,.1219-.0457.2285-.1371.32s-.1981.1371-.32.1371h-1.1658c-.1828,0-.32-.0457-.4114-.1371-.0762-.0915-.1295-.1753-.16-.2515l-1.2571-3.2457h-7.49717L5.19429,19.6114c-.01524.0762-.06858.16-.16.2515s-.22858.1371-.41143.1371h-1.16572Zm3.65715-5.6h6.17141L10.2,6.28571L7.11429,14.4Z" fill="#fff"/></g><path id="eM5bHaTUJV754" d="M10.7139,1.00006c-2.40941,0-4.54992,1.54908-5.29587,3.83681-1.5491.31882-2.88646,1.28745-3.67014,2.66009-1.20837,2.08572-.932136,4.70814.68633,6.49564-.50014,1.498-.32856,3.1359.46972,4.4928c1.20107,2.093,3.61781,3.1663,5.98222,2.6673C9.93391,22.3331,11.4392,23.006,13.0187,23c2.4095,0,4.55-1.5491,5.2971-3.8369c1.5516-.32,2.8865-1.2886,3.6629-2.6588c1.2157-2.0857.9394-4.7081-.679-6.4969v-.0073c.5001-1.498.3285-3.13713-.4698-4.50003-1.201-2.08573-3.6178-3.15901-5.9749-2.66009-1.0538-1.17794-2.5615-1.847222-4.1411-1.83992Zm0,1.42983l-.0073.0073c.9699,0,1.902.33464,2.648.95403-.0304.0146-.0901.05233-.1339.07423L8.83384,5.99168c-.22391.12656-.35777.36507-.35777.62548v5.92984L6.58868,11.4591v-4.90157c-.00122-2.27677,1.8448-4.12399,4.12522-4.12764Zm5.2838,1.72675c1.4797-.00244,2.8475.78488,3.5861,2.06625.4771.83478.6559,1.81071.4917,2.75622-.0305-.0219-.0889-.05232-.1266-.07422L15.5632,6.37135c-.2239-.12656-.4989-.12656-.7228,0L9.70026,9.33688v-2.17578L13.9436,4.71031c.6242-.36141,1.3325-.55246,2.0541-.55367ZM5.1491,6.40786v5.20704c0,.2604.13386.4916.35776.6254l5.13164,2.9571-1.89471,1.0951-4.23721-2.4434c-1.97136-1.1415-2.64552-3.6616-1.50651-5.63175.48311-.83478,1.24244-1.47485,2.14903-1.80949Zm9.8312,1.28988l4.2446,2.44346c1.9774,1.1402,2.6479,3.658,1.5065,5.6317l.0073.0073c-.4844.8348-1.2461,1.4749-2.1478,1.8034v-5.2082c0-.2604-.1339-.4989-.3578-.6255L13.0942,8.78441l1.8861-1.08667Zm-3.1176,1.7949l2.1636,1.25096v2.4958l-2.1636,1.2509-2.16365-1.2509v-2.4958L11.8627,9.49264Zm3.4012,1.96646l1.8874,1.0879v4.8943c0,2.2792-1.8497,4.1276-4.1253,4.1276v-.0073c-.9625,0-1.902-.3358-2.6406-.954.0304-.0146.0973-.0523.1338-.0742l4.3857-2.5251c.2239-.1265.3651-.365.3578-.6254l.0012-5.9238Zm-1.2315,3.204v2.1758L9.78788,19.2824c-1.97745,1.1329-4.49762.4624-5.63907-1.5053h.00731c-.48433-.8274-.65712-1.8107-.49284-2.7562.03042.0219.09004.0523.12655.0742L8.1755,17.6287c.22391.1265.49893.1265.72283,0l5.13407-2.9656Z" transform="translate(26.133784 23.999978)" opacity="0" fill="#fff"/><path id="eM5bHaTUJV755" d="M29,35h1v6h-1c-.1314.0002-.2615-.0256-.3829-.0758s-.2317-.1239-.3246-.2167c-.0928-.0929-.1665-.2032-.2167-.3246s-.076-.2515-.0758-.3829v-4c-.0002-.1314.0256-.2615.0758-.3829s.1239-.2317.2167-.3246c.0929-.0928.2032-.1665.3246-.2167s.2515-.076.3829-.0758v0Zm16-1.5v8.5c-.0005.5303-.2114,1.0387-.5864,1.4136s-.8833.5859-1.4136.5864h-10c-.5303-.0005-1.0387-.2114-1.4136-.5864s-.5859-.8833-.5864-1.4136v-8.5c-.0001-.3283.0645-.6535.1901-.9568s.3097-.579.5419-.8112.5078-.4163.8112-.5419.6285-.1902.9568-.1901h3.5v-2c0-.2652.1054-.5196.2929-.7071s.4419-.2929.7071-.2929.5196.1054.7071.2929.2929.4419.2929.7071v2h3.5c.3283-.0001.6535.0645.9568.1901s.579.3097.8112.5419.4163.5078.5419.8112.1902.6285.1901.9568v0ZM36.25,36c0-.2472-.0733-.4889-.2107-.6945-.1373-.2055-.3325-.3657-.5609-.4604-.2285-.0946-.4798-.1193-.7223-.0711s-.4652.1673-.64.3421-.2938.3976-.3421.64-.0235.4938.0712.7223c.0946.2284.2548.4236.4603.5609.2056.1374.4473.2107.6945.2107.1642,0,.3267-.0323.4784-.0951s.2894-.1549.4055-.271.2082-.2539.271-.4055.0951-.3142.0951-.4784v0ZM36,40h-2v1h2v-1Zm3,0h-2v1h2v-1Zm3.25-4c0-.2472-.0733-.4889-.2107-.6945-.1373-.2055-.3325-.3657-.5609-.4604-.2285-.0946-.4798-.1193-.7223-.0711s-.4652.1673-.64.3421-.2939.3976-.3421.64-.0235.4938.0712.7223c.0946.2284.2548.4236.4603.5609.2056.1374.4473.2107.6945.2107.1642,0,.3267-.0323.4784-.0951s.2894-.1549.4055-.271.2082-.2539.271-.4055.0951-.3142.0951-.4784v0ZM42,40h-2v1h2v-1Zm6-4v4c.0002.1314-.0256.2615-.0758.3829s-.1239.2317-.2167.3246c-.0929.0928-.2032.1665-.3246.2167s-.2515.076-.3829.0758h-1v-6h1c.1314-.0002.2615.0256.3829.0758s.2317.1239.3246.2167c.0928.0929.1665.2032.2167.3246s.076.2515.0758.3829v0Z" fill="#fff"/></g></svg>
