<?xml version="1.0" encoding="utf-8"?>
<!-- Generator: Adobe Illustrator 26.0.1, SVG Export Plug-In . SVG Version: 6.00 Build 0)  -->
<svg version="1.1" xmlns="http://www.w3.org/2000/svg" xmlns:xlink="http://www.w3.org/1999/xlink" x="0px" y="0px"
	 viewBox="0 0 750 434.6" style="enable-background:new 0 0 750 434.6;" xml:space="preserve">
<style type="text/css">
	.st0{fill:#FFFFFF;}
	.st1{fill:#71BF9D;}
	.st2{fill:#3C8460;}
	.st3{fill:#FFD25A;}
	.st4{opacity:0.5;fill:#FFBE57;}
	.st5{fill:none;stroke:#FFFFFF;stroke-width:1.0226;stroke-miterlimit:10;}
	.st6{opacity:0.3;fill:#A1ABAD;}
	.st7{fill-rule:evenodd;clip-rule:evenodd;fill:#FF8976;}
	.st8{fill-rule:evenodd;clip-rule:evenodd;fill:#EF6456;}
	.st9{opacity:0.3;fill-rule:evenodd;clip-rule:evenodd;fill:#BA2B27;}
	.st10{fill-rule:evenodd;clip-rule:evenodd;fill:#7C4284;}
	.st11{fill-rule:evenodd;clip-rule:evenodd;fill:#3E2344;}
	.st12{fill:#3E2344;}
	.st13{fill-rule:evenodd;clip-rule:evenodd;fill:#A1ABAD;}
	.st14{fill:#FFB072;}
	.st15{fill:#764582;}
	.st16{fill:#9D68AA;}
	.st17{opacity:0.5;fill:#552F5E;}
	.st18{clip-path:url(#SVGID_00000006703004852485990610000006416991808771760046_);fill:#B22714;}
	.st19{fill:#552F5E;}
	.st20{clip-path:url(#SVGID_00000047779716627483907250000003529759370676766084_);fill:#B22714;}
	.st21{fill:#AF79BC;}
	.st22{fill-rule:evenodd;clip-rule:evenodd;fill:#DD4026;}
	.st23{fill-rule:evenodd;clip-rule:evenodd;fill:#552F5E;}
	.st24{fill-rule:evenodd;clip-rule:evenodd;fill:#9D68AA;}
	.st25{fill:#FFDCAE;}
	.st26{fill-rule:evenodd;clip-rule:evenodd;fill:#FFB072;}
	.st27{fill:#E57E55;}
	.st28{fill:#FF8976;}
	.st29{fill:#DD4026;}
	.st30{opacity:0.5;fill:#E57E55;}
	.st31{fill:#A1ABAD;}
	.st32{fill:#E5DACA;}
	.st33{clip-path:url(#SVGID_00000137827662879304467430000008164077297356521622_);}
	.st34{fill:#C13725;}
	.st35{fill:#D8462A;}
	.st36{fill:#F99441;}
	.st37{fill:#FFC49C;}
	.st38{fill:#1E1C1C;}
	.st39{opacity:0.8;fill:#E5DACA;}
	.st40{fill:#EFE9DA;}
	.st41{opacity:0.3;fill:#FFFFFF;}
	.st42{opacity:0.5;fill:#D8D0BF;}
	.st43{fill:#FCF7F0;}
	.st44{fill:#D36D29;}
	.st45{fill:#FFCC5A;}
	.st46{fill:#FFE3A4;}
	.st47{opacity:0.5;fill:#71BF9D;}
	.st48{fill:#E4BCE8;}
	.st49{fill:#8D5B99;}
	.st50{fill:#C899CE;}
	.st51{fill:#D3D3D3;}
	.st52{fill:#E2E2E2;}
	.st53{fill:#F4F4F4;}
	.st54{fill:#7C4284;}
	.st55{fill:none;stroke:#3C8460;stroke-width:1.1603;stroke-miterlimit:10;}
	.st56{fill:#83B6E5;}
	.st57{fill:#261F28;}
	.st58{opacity:0.3;fill:#3C8460;}
</style>
<g id="BACKGROUND">
	<rect x="159.9" y="144.1" class="st0" width="750" height="500"/>
</g>
<g id="OBJECTS">
	<g>
		<g>
			<path class="st1" d="M624.1,290.9c0,0,25-9.5,44.5-16.2c14.3-4.9,27-7.1,27.8-12.4c0.9-6-14.4-5.4-30.4,0.6
				c-17.2,6.5-35.3,18.6-35.3,18.6s23.8-19.1,44.3-33.9c13.3-9.6,26.1-14.7,26.7-20.9c0.7-7.4-19-4.3-36.5,8.8
				c-19.7,14.8-36.7,42.3-36.7,42.3s8.5-20.5,19.9-37.1c9.6-13.9,21.6-25.4,18.6-32.2c-3.4-7.8-19.3,6.8-29.8,25.4
				c-9.5,17-13.9,37.9-13.9,37.9s-0.4-10,1.3-20.5c1.9-11.4,5.6-23.5,1.3-24.9C617.7,223.7,606.1,263.7,624.1,290.9z"/>
			<path class="st2" d="M627.1,287.3c0,0,16.8-9.3,32.4-16.2c12.7-5.6,25.3-8.9,25.3-7.5c-0.1,1.2-10.8,4.5-24.2,9.2
				C644.3,278.4,627.1,287.3,627.1,287.3z"/>
			<path class="st2" d="M634.2,274c0,0,14.2-16,27.1-27.2c10.5-9.1,22.8-15,23.1-13.7c0.3,1.1-10.2,6.6-21.6,14.9
				C648.9,258.2,634.2,274,634.2,274z"/>
			<path class="st2" d="M625.9,273.2c0,0,7.6-20,15.7-35.1c6.5-12.2,16-22.1,16.7-21c0.7,0.9-7.2,9.8-14.9,21.6
				C634,253.2,625.9,273.2,625.9,273.2z"/>
			<path class="st2" d="M622.5,282.2c0,0-3-5.4-3.9-22.5c-0.7-13.8,4.4-27,5.6-26.5c1.1,0.5-4.6,12.2-4.5,26.3
				C620,277.4,622.5,282.2,622.5,282.2z"/>
		</g>
		<g>
			<path class="st1" d="M105.8,364.5c0,0-26.7,2.4-47.1,4.9c-15,1.8-27.4,5.4-30.4,1c-3.4-5,10.6-11.1,27.7-12.7
				c18.3-1.7,39.9,1.3,39.9,1.3s-29.8-6.8-54.7-11.2c-16.1-2.9-29.9-1.8-33.1-7.1c-3.8-6.3,15.2-12.2,36.7-8
				c24.2,4.7,51.5,22,51.5,22S79.5,339.9,62,330c-14.7-8.3-30.6-13.4-30.9-20.8c-0.3-8.5,20.3-2.3,37.9,9.8c16,11.1,29,28,29,28
				s-4-9.1-10.2-17.9c-6.7-9.5-15.4-18.7-12.1-21.9C82.1,301.2,110.1,332.1,105.8,364.5z"/>
			<path class="st2" d="M101.5,362.5c0,0-19.1-1-36.2-0.4c-13.8,0.5-26.6,3.1-26,4.2c0.6,1,11.7-0.6,25.8-2.3
				C82.1,362,101.5,362.5,101.5,362.5z"/>
			<path class="st2" d="M89.3,353.7c0,0-19.8-8.2-36.3-12.6c-13.4-3.6-27-3.5-26.8-2.2c0.2,1.1,12,1.5,26,4
				C69.2,345.9,89.3,353.7,89.3,353.7z"/>
			<path class="st2" d="M96.4,349.4c0,0-15.6-14.7-29.5-24.7c-11.2-8.1-24-12.9-24.2-11.6c-0.2,1.1,10.7,5.7,22.8,13
				C80.4,334.9,96.4,349.4,96.4,349.4z"/>
			<path class="st2" d="M103.4,355.9c0,0,0.3-6.1-6.4-21.9c-5.4-12.7-15.8-22.4-16.7-21.4c-0.8,0.9,9.5,9,15.5,21.7
				C103.5,350.5,103.4,355.9,103.4,355.9z"/>
		</g>
		<g>
			<path class="st3" d="M78.4,379.8h668.8c0,0-42.7-93.8-68.8-101.7c-26.1-7.9-87.4,5.7-95,0.7c-7.6-5.1-42.1-98.6-54.7-106.9
				c-12.6-8.3-227.6,40.8-239.9,58c-9.8,13.8-40.6,60.2-55.1,67c-14.5,6.9-88.6-13.6-102.5-9C117.2,292.3,78.4,379.8,78.4,379.8z"/>
			<path class="st4" d="M678.4,278.1c-3.9-1.2-8.6-1.9-13.8-2.2c10.6,22.5,12.7,45.7-9.9,63.6c-37.4,27.3-83.6,18.7-118.5-7.2
				c-53.6-41.7-109.7-15.8-164.6-4.3c-23.7,4.3-59.9-2.9-56.1-30.2c6.4-64.4,60.6-87.7,112.1-110.9c-62.5,13.9-132,33.4-138.8,42.9
				c-9.8,13.8-40.6,60.2-55.1,67c-14.5,6.9-88.6-13.6-102.5-9c-14,4.5-52.8,92.1-52.8,92.1h668.8C747.2,379.8,704.5,286,678.4,278.1
				z"/>
			<g>
				<g>
					<g>
						<path class="st0" d="M164,296.1c0.7-0.1,1.3,0,2,0.1c0.6,0.1,1.3,0.3,1.9,0.6c0.7,0.4,1,1,0.5,1.4c-0.2,0.2-0.4,0.3-0.7,0.3
							c-0.7,0.1-1.3,0-2-0.1c-0.6-0.1-1.3-0.3-1.9-0.6c-0.7-0.3-1-1-0.5-1.4C163.5,296.2,163.7,296.1,164,296.1z"/>
					</g>
					<g>
						<path class="st0" d="M171.4,297.3c0.7-0.1,1.3,0,2,0.1c0.6,0.1,1.3,0.3,1.9,0.6c0.7,0.4,1,1,0.5,1.4c-0.2,0.2-0.4,0.3-0.7,0.3
							c-0.7,0.1-1.3,0-2-0.1c-0.6-0.1-1.3-0.3-1.9-0.6c-0.7-0.4-1-1-0.5-1.4C170.8,297.5,171.1,297.4,171.4,297.3z"/>
					</g>
					<g>
						<path class="st0" d="M178.7,298.6c0.7-0.1,1.3,0,2,0.1c0.6,0.1,1.3,0.3,1.9,0.6c0.7,0.4,1,1,0.5,1.4c-0.2,0.2-0.4,0.3-0.7,0.3
							c-0.7,0.1-1.3,0-2-0.1c-0.6-0.1-1.3-0.3-1.9-0.6c-0.7-0.4-1-1-0.5-1.4C178.1,298.7,178.4,298.6,178.7,298.6z"/>
					</g>
					<g>
						<path class="st0" d="M191.7,300.8c0.7-0.1,1.3,0,2,0.1c0.6,0.1,1.3,0.2,1.9,0.5c0.7,0.3,1,0.9,0.6,1.3
							c-0.2,0.2-0.4,0.3-0.7,0.3c-0.7,0.1-1.3,0-2-0.1c-0.6-0.1-1.3-0.2-1.9-0.5c-0.7-0.3-1-1-0.5-1.4
							C191.2,300.9,191.4,300.8,191.7,300.8z"/>
					</g>
					<g>
						<path class="st0" d="M201,302.1c0.4-0.1,0.8-0.1,1.2-0.1c0.4,0.1,0.8,0.1,1.1,0.4c0.7,0.5,0.8,1.2,0.1,1.5
							c-0.1,0-0.2,0.1-0.3,0.1c-0.4,0.2-0.8,0.1-1.2,0.1c-0.4-0.1-0.8-0.1-1.2-0.4c-0.7-0.5-0.8-1.2-0.1-1.5
							C200.8,302.2,200.9,302.1,201,302.1z"/>
					</g>
					<g>
						<path class="st0" d="M208.9,302.8c0.4-0.2,0.8-0.2,1.2-0.2c0.4,0,0.8,0,1.2,0.2c0.7,0.4,0.9,1,0.3,1.5
							c-0.1,0.1-0.2,0.1-0.2,0.2c-0.4,0.2-0.8,0.2-1.2,0.3c-0.4,0-0.8-0.1-1.2-0.3c-0.8-0.4-0.8-1.1-0.2-1.5
							C208.7,302.9,208.8,302.8,208.9,302.8z"/>
					</g>
				</g>
				<g>
					<g>
						<path class="st0" d="M108.7,329.9c2.8-5.4,5.7-10.8,8.7-16.1c3.1-5.2,6.3-10.4,10.1-15.1c0.5-0.6,1-1.1,1.5-1.7
							c0.5-0.5,1.1-1.1,1.6-1.6c0.6-0.4,1.2-1,2-1.3c0.7-0.4,1.5-0.5,2.2-0.6c2.8-0.4,5.6-0.3,8.4-0.1c5.5,0.4,10.9,1.2,16.4,2.2
							c0.7,0.1,1.3,0.6,1.2,1.1c-0.1,0.4-0.7,0.7-1.4,0.6c-5.4-0.7-10.9-1.5-16.3-1.8c-2.7-0.2-5.4-0.2-8,0.2
							c-1.3,0.2-2.2,0.7-3.3,1.6c-0.5,0.5-1,0.9-1.5,1.4c-0.5,0.5-1,1.1-1.4,1.6c-3.7,4.5-6.9,9.6-9.9,14.8c-3.1,5.2-6,10.5-9,15.8
							c-0.4,0.7-1,1.1-1.3,0.9C108.3,331.4,108.4,330.6,108.7,329.9z"/>
					</g>
					<g>
						<path class="st0" d="M107.9,334.4c-0.1,0.6-0.4,1.2-0.7,1.8c-0.3,0.5-0.6,1.1-1,1.5c-0.6,0.6-1.2,0.6-1.3-0.1
							c0-0.2,0-0.5,0-0.7c0.1-0.6,0.4-1.2,0.7-1.8c0.3-0.5,0.6-1.1,1-1.5c0.6-0.6,1.2-0.6,1.3,0.1
							C107.9,333.9,107.9,334.2,107.9,334.4z"/>
					</g>
					<g>
						<path class="st0" d="M104.7,340.7c-0.1,0.6-0.4,1.2-0.6,1.8c-0.3,0.5-0.6,1.1-1,1.5c-0.6,0.6-1.2,0.6-1.3-0.1
							c0-0.2,0-0.5,0-0.7c0.1-0.6,0.4-1.2,0.7-1.8c0.3-0.5,0.6-1.1,1-1.5c0.6-0.6,1.2-0.6,1.3,0.1
							C104.7,340.1,104.7,340.4,104.7,340.7z"/>
					</g>
					<g>
						<path class="st0" d="M101.5,346.9c-1,2.3-2,4.6-3.1,6.8c-1.1,2.2-2.2,4.5-3.4,6.6c-0.4,0.7-1,1.1-1.3,0.7
							c-0.2-0.3-0.2-0.9,0-1.5c0.9-2.3,2-4.6,3.1-6.9c1.1-2.2,2.2-4.5,3.5-6.6c0.4-0.7,1-1,1.3-0.7
							C101.8,345.6,101.8,346.3,101.5,346.9z"/>
					</g>
					<g>
						<path class="st0" d="M92.3,366c0,0.4-0.2,0.8-0.3,1.1c-0.2,0.3-0.3,0.7-0.7,0.9c-0.7,0.6-1.3,0.2-1.3-0.7c0,0,0,0,0-0.1
							c0-0.4,0.2-0.8,0.3-1.1c0.2-0.3,0.3-0.7,0.7-0.9C91.7,364.7,92.3,365,92.3,366C92.3,366,92.3,366,92.3,366z"/>
					</g>
					<g>
						<path class="st0" d="M89.2,372.9c0,0.4-0.2,0.8-0.3,1.1c-0.2,0.3-0.3,0.7-0.6,0.9c-0.7,0.6-1.3,0.2-1.3-0.7c0,0,0,0,0-0.1
							c0-0.4,0.1-0.8,0.3-1.1c0.2-0.3,0.3-0.7,0.6-0.9C88.6,371.5,89.2,371.8,89.2,372.9C89.2,372.8,89.2,372.8,89.2,372.9z"/>
					</g>
				</g>
			</g>
			<path class="st5" d="M735.3,379.8c0,0-36.2-85.8-61-93.2c-24.9-7.4-86.9,6.7-94.2,2c-7.2-4.7-43.8-97.5-55.9-105.3
				c-12-7.8-216.4,37.6-228.8,52.8c-10.1,12.4-39.6,65.9-53.6,71.8c-19.1,8.1-91.4-11.2-104.7-7c-13.3,4.2-44.8,78.8-44.8,78.8"/>
			<g>
				<g>
					<g>
						<path class="st0" d="M675.6,281.9c0.7,0.1,1.3,0.4,1.9,0.6c0.6,0.3,1.2,0.6,1.8,0.9c0.6,0.5,0.8,1,0.3,1.1
							c-0.2,0-0.4,0-0.7-0.1c-0.6-0.1-1.2-0.4-1.9-0.6c-0.6-0.3-1.2-0.5-1.8-0.9c-0.7-0.5-0.9-0.9-0.4-1.1
							C675,281.8,675.3,281.8,675.6,281.9z"/>
					</g>
					<g>
						<path class="st0" d="M682.4,285.3c0.6,0.2,1.3,0.5,1.8,1c0.5,0.4,1.1,0.9,1.6,1.4c0.6,0.6,0.6,1.1,0.2,1.1
							c-0.2,0-0.4-0.1-0.7-0.2c-0.6-0.3-1.1-0.7-1.7-1.1c-0.5-0.5-1.1-0.7-1.6-1.2c-0.6-0.5-0.7-1-0.3-1.1
							C681.9,285.2,682.1,285.2,682.4,285.3z"/>
					</g>
					<g>
						<path class="st0" d="M688.7,290c0.6,0.4,1.1,0.9,1.6,1.3c0.5,0.5,1,1,1.4,1.6c0.5,0.7,0.5,1.2,0,1.1c-0.2,0-0.4-0.1-0.7-0.3
							c-0.6-0.4-1.1-0.8-1.6-1.3c-0.5-0.5-1-1-1.4-1.5c-0.5-0.7-0.5-1.2-0.1-1.2C688.2,289.7,688.4,289.8,688.7,290z"/>
					</g>
					<g>
						<path class="st0" d="M698.1,300.6c0.5,0.5,0.9,1.1,1.4,1.6c0.4,0.6,0.8,1.2,1.2,1.8c0.4,0.8,0.3,1.3-0.1,1.1
							c-0.2-0.1-0.4-0.2-0.6-0.4c-0.5-0.5-0.9-1-1.4-1.6c-0.4-0.6-0.8-1.1-1.1-1.8c-0.4-0.8-0.3-1.3,0.1-1.2
							C697.7,300.2,697.9,300.4,698.1,300.6z"/>
					</g>
					<g>
						<path class="st0" d="M703.9,309.1c0.3,0.3,0.6,0.6,0.8,1c0.2,0.4,0.4,0.7,0.6,1.2c0.3,0.9,0,1.2-0.6,0.8
							c-0.1-0.1-0.1-0.1-0.2-0.2c-0.3-0.3-0.6-0.6-0.8-1c-0.2-0.4-0.4-0.7-0.6-1.2c-0.3-0.8,0-1.2,0.6-0.8
							C703.8,308.9,703.9,309,703.9,309.1z"/>
					</g>
					<g>
						<path class="st0" d="M708.4,316.6c0.3,0.3,0.5,0.7,0.8,1c0.2,0.4,0.4,0.8,0.5,1.2c0.2,0.9,0,1.2-0.6,0.8
							c-0.1-0.1-0.1-0.1-0.2-0.2c-0.3-0.3-0.5-0.7-0.8-1c-0.2-0.4-0.4-0.8-0.5-1.2c-0.2-0.9,0-1.2,0.6-0.8
							C708.2,316.5,708.3,316.5,708.4,316.6z"/>
					</g>
				</g>
				<g>
					<g>
						<path class="st0" d="M605.9,282.5l16.3-1.4l16.3-1.3c5.4-0.4,10.9-0.8,16.3-0.9c5.5,0,11,0.3,16.3,1.7
							c0.7,0.2,1.3,0.6,1.2,0.9c-0.1,0.3-0.7,0.3-1.4,0.2c-5.3-1.3-10.7-1.5-16.1-1.5c-5.4,0.1-10.8,0.6-16.3,1l-16.3,1.2l-16.3,1.2
							c-0.8,0.1-1.4-0.2-1.4-0.5C604.6,282.9,605.2,282.6,605.9,282.5z"/>
					</g>
					<g>
						<path class="st0" d="M602.2,283.8c-0.5,0.2-1.1,0.2-1.6,0.3c-0.5,0-1.1,0.1-1.6,0c-0.8-0.1-1-0.5-0.6-0.8
							c0.1-0.1,0.3-0.2,0.5-0.3c0.5-0.2,1.1-0.2,1.6-0.3c0.5,0,1.1-0.1,1.6,0c0.8,0.1,1,0.5,0.6,0.8
							C602.6,283.7,602.4,283.8,602.2,283.8z"/>
					</g>
					<g>
						<path class="st0" d="M596,284.3c-0.5,0.2-1.1,0.2-1.6,0.3c-0.5,0-1.1,0-1.6-0.1c-0.8-0.1-1-0.5-0.6-0.9
							c0.1-0.1,0.3-0.2,0.6-0.3c0.5-0.2,1.1-0.2,1.6-0.2c0.5,0,1.1,0,1.6,0c0.8,0.1,1,0.5,0.6,0.8
							C596.4,284.1,596.2,284.2,596,284.3z"/>
					</g>
					<g>
						<path class="st0" d="M589.7,284.6c-2.2,0.2-4.5,0.2-6.8-0.5c-0.6-0.2-1.1-0.5-1.7-0.9c-0.3-0.2-0.5-0.4-0.7-0.6
							c-0.2-0.2-0.5-0.4-0.6-0.7c-0.8-1-1.5-2-2.1-3.1c-0.4-0.7-0.5-1.4-0.2-1.5c0.2-0.1,0.6,0.3,1,0.8c0.7,1,1.4,1.9,2.1,2.8
							c0.2,0.2,0.4,0.4,0.6,0.6c0.2,0.2,0.4,0.4,0.6,0.5c0.2,0.1,0.4,0.3,0.6,0.4c0.2,0.1,0.5,0.2,0.7,0.3c2,0.6,4.2,0.6,6.4,0.7
							c0.7,0,1.3,0.3,1.2,0.6C590.8,284.3,590.3,284.6,589.7,284.6z"/>
					</g>
					<g>
						<path class="st0" d="M574.8,273.3c-0.3-0.3-0.4-0.6-0.6-0.9c-0.2-0.3-0.3-0.7-0.4-1.1c-0.1-0.9,0.2-1.2,0.8-0.6l0,0
							c0.3,0.3,0.4,0.6,0.6,0.9c0.1,0.3,0.3,0.7,0.4,1.1C575.8,273.6,575.5,273.9,574.8,273.3L574.8,273.3z"/>
					</g>
					<g>
						<path class="st0" d="M571.6,266.6c-0.3-0.3-0.4-0.6-0.6-0.9c-0.1-0.4-0.3-0.7-0.3-1.1c-0.1-0.9,0.3-1.1,0.8-0.5l0,0
							c0.2,0.3,0.4,0.6,0.6,0.9c0.1,0.3,0.3,0.7,0.3,1.1C572.6,267,572.2,267.2,571.6,266.6L571.6,266.6z"/>
					</g>
				</g>
			</g>
		</g>
		<g>
			<path class="st6" d="M716.7,397.4c0,3.7-23.5,6.8-52.4,6.8c-28.9,0-52.4-3-52.4-6.8c0-3.7,23.5-6.8,52.4-6.8
				C693.2,390.7,716.7,393.7,716.7,397.4z"/>
			<path class="st6" d="M292.8,395.1h91.9c0.3,0,0.5,0,0.8-0.1l108.4-18.2c0.6-0.1,1.3-0.1,1.9,0.1l87.8,22.1c3.9,1,4.7,6.2,1.3,8.3
				l-26.1,16.5c-0.7,0.5-1.6,0.7-2.5,0.7H237.4c-5.1,0-6.4-7.1-1.6-8.9l55.4-20.2C291.7,395.2,292.3,395.1,292.8,395.1z"/>
		</g>
		<g>
			<g>
				<path class="st7" d="M537.6,293.8c8.9-6,21.9-88,19.8-97.3c-3.5-15.3-71.9-18.2-74.3,2.9c-5.5,48.6-20.3,79.9-16.3,89.3
					C473.1,303.1,532.5,297.2,537.6,293.8z"/>
				<path class="st8" d="M528.8,293.8c7.8-6,22.5-97,19.3-104.1c-3-6.6-65.6-10.3-67.7,10.8c-4.8,48.6-17.2,78.7-13.6,88.1
					C472.3,303.1,524.4,297.2,528.8,293.8z"/>
				<path class="st9" d="M537.1,206.3c1.5-16.5-15.9-23-32.2-20.6c-12.8,1.9-23.6,6.4-24.4,14.9c-4.8,48.6-16.2,76-12.7,85.3
					c2.9,7.5,42.4,8.6,50.8,1C526.1,280.2,534.2,236.6,537.1,206.3z"/>
			</g>
			<g>
				<path class="st10" d="M450.5,390.2c0,3-2.4,5.4-5.4,5.4c-3,0-5.4-2.4-5.4-5.4c0-3,2.4-5.4,5.4-5.4
					C448.1,384.8,450.5,387.2,450.5,390.2z"/>
				<path class="st10" d="M540.2,390.2c0,3-2.4,5.4-5.4,5.4c-3,0-5.4-2.4-5.4-5.4c0-3,2.4-5.4,5.4-5.4
					C537.8,384.8,540.2,387.2,540.2,390.2z"/>
				<circle class="st10" cx="483.2" cy="396.2" r="5.4"/>
				<path class="st10" d="M504.7,383.5c0,3-2.4,5.4-5.4,5.4c-3,0-5.4-2.4-5.4-5.4s2.4-5.4,5.4-5.4
					C502.3,378.1,504.7,380.5,504.7,383.5z"/>
				<path class="st11" d="M491.7,365.6h-3.2c-6.4,0-11.5,5.6-11.5,12.6v2.4c0,3.4,26.3,3.4,26.3,0v-2.4
					C503.2,371.3,498,365.6,491.7,365.6z"/>
				<g>
					<path class="st12" d="M457.9,340.8c-2.9,0.9-3.8-1.9-0.8-2.7l16.3-5l4-16l2.8,0.7l-4.4,17.5L457.9,340.8z"/>
				</g>
				<path class="st13" d="M494.8,366.4c0,1.8-9.4,1.8-9.4,0v-52.1h9.4V366.4z"/>
				<path class="st11" d="M499.9,321.4h-19.7c-6.6,0-11.9-5.3-11.9-11.9v-6.9c0-2.2,1.7-3.9,3.9-3.9h35.7c2.2,0,3.9,1.7,3.9,3.9v6.9
					C511.8,316.1,506.5,321.4,499.9,321.4z"/>
				<path class="st8" d="M437,289.3c0-5.8,101.7-5.8,101.7,0c0,0,5.4,23.1-50.8,23.1S437,289.3,437,289.3z"/>
				<path class="st9" d="M438.4,287.1c0-2.9,86.5-2.9,86.5,0c0,0,4.6,11.6-43.3,11.6C433.8,298.7,438.4,287.1,438.4,287.1z"/>
				<path class="st11" d="M480.6,370.2l-36.2,8c-2.7,0.6-4.7,3-4.7,5.8v2.4l39-4.2L480.6,370.2z"/>
				<path class="st11" d="M499.3,370.2l36.2,8c2.7,0.6,4.7,3,4.7,5.8v2.4l-39-4.2L499.3,370.2z"/>
				<path class="st11" d="M488,371.1c-5.7,0-9.4,16.3-9.4,20.6c0,3.1,3.2,6.9,8.3,1.9c3.6-3.6,8.5-10.4,8.5-10.4
					S496.7,371.1,488,371.1z"/>
			</g>
		</g>
		<g>
			<g>
				<path class="st14" d="M448.3,228.2c-14.1,5.6-39.1,13.7-39.1,13.7c-1.9,0.5,1.1,8.4,2.9,7.9c0,0,21.5-2.4,38.3-6.5
					C453.6,237.6,455,233.1,448.3,228.2z"/>
				<path class="st15" d="M484.9,181.3c-0.2-7.7-14.3-21.3-21.6-7.4c-6.9,13.2-1.5,44.3-5.6,47.1c-1.1,0.8-11.9,5.9-11.5,7.9
					c0.2,0.7,3.7,1.9,5.2,7.2c1.2,4.5-1.3,7.3-0.9,7.9c0.3,1.5,17.5-4.2,20.7-7.6C480.1,227.3,485.2,189.1,484.9,181.3z"/>
				<path class="st14" d="M413.4,240.8c-5.4,0.4-11.7-1.1-18.7-1.8c-2.7,0.1-6.6,0.9-7.7,1.3c-1.5,0.6-5.1,4.2-5,5.3
					c1.5,2,5.3-1.4,6.6-2.2c0.5-0.3,1.6-0.3,2.8-0.2c-1.7,1-3.3,2-3.7,2.5c-1,1.2-2.6,6.1-2.1,7c2.2,1.2,4.1-3.7,4.9-4.9
					c0.1-0.2,0.4-0.4,0.7-0.6c-0.9,2.4-1.8,5.4-1.5,6c2.2,1.2,4.7-4.2,5.5-5.4c0.1-0.2,0.3-0.3,0.5-0.5c0.1,0.1,0.2,0.2,0.3,0.4
					c-0.9,2.3-1.6,5-1.3,5.5c1.6,0.8,3.3-1.6,4.4-3.6c0.3,0.1,0.5,0.2,0.9,0.3c4.7,1.4,12.6,1.9,16.8-0.8
					C419.4,248.1,416.1,240.6,413.4,240.8z"/>
			</g>
			<g>
				<path class="st16" d="M486.6,159.6c0,0-17.2,5.8-19.5,10.5c-2.3,4.7,2.3,13.1-0.1,19.2c-9.6,24.1,4,29.8,4,29.8
					c5.7,17.1-1.6,28.5-1.8,43.2c-2.4,4,61.8,20.4,60.4,7.9c-2.1-17.9-10.7-30.4-8.5-43.6c2.1-13.3,11.1-36.3,5.2-49.1
					C520.2,164.8,500.1,156.9,486.6,159.6z"/>
				<path class="st17" d="M524.1,248c-1.4-4.4-2.6-8.6-3.1-12.7c-3.3-19.5-5.4-31.1-9.1-29.1c-3.9,2-5.3,14.1-7.5,16.4
					c-2.7,2.8-23.3,21.9-33,23.9c0,0,0,0.1,0,0.1c-1,5.1,3,9.8,8.1,9.6C494.8,255.5,509.6,252.5,524.1,248z"/>
			</g>
			<g>
				<g>
					<g>
						<g>
							<defs>
								<path id="SVGID_1_" d="M380.5,350.3c0,0,0,5.7-0.9,6.6c-2.7,2.1-4.2,3.7-5.7,7.3c-0.8,0-1.9-0.3-2.3-0.8l1.5-6
									c0,0-6.3,3.1-9.3,3.2c-3.6,0-13.8-3.7-14.8-5.4c0,0,0-3.9,4.4-3.5c11,1.2,18.3-8,18.3-8C375.4,339.7,380,344.5,380.5,350.3z
									"/>
							</defs>
							<use xlink:href="#SVGID_1_"  style="overflow:visible;fill:#DD4026;"/>
							<clipPath id="SVGID_00000101788117066233565530000017135223276489812919_">
								<use xlink:href="#SVGID_1_"  style="overflow:visible;"/>
							</clipPath>
							<path style="clip-path:url(#SVGID_00000101788117066233565530000017135223276489812919_);fill:#B22714;" d="M348.1,354.1
								c0.2,0.1,11,5.8,14.7,5.4c3.7-0.3,8.9-3.6,9.9-3.3c1,0.2,6.9,0.7,6.9,0.7l-4.9,11l-28.6-7.1L348.1,354.1z"/>
						</g>
						<path class="st3" d="M359.9,351.2l0.8,1.9c0,0,2.5,0,3.8-1.2l-0.6-2c-0.1-0.4-0.5-0.6-0.9-0.5l-2.8,0.8
							C359.9,350.4,359.7,350.8,359.9,351.2z"/>
					</g>
					<path class="st19" d="M416.3,262c-7.9,5.1-45,81.6-45,81.6c-1.2,1.7,8.2,7.8,9.4,6.1c0,0,41.8-47.4,48.5-60
						c2-3.7,41.9,9.5,71.4,7.1c31-2.5,35-23.6,27-36.7C523.6,253.4,424.2,256.8,416.3,262z"/>
				</g>
				<path class="st12" d="M430.2,282.8c3.2-0.2,11.9-3.8,11.7-4.9c-0.1-0.9-8.3,2.9-8.3,2.9s10.2-5.3,8.9-7.4
					c-0.7-1.2-5,4.5-12.3,8.3C430.2,281.7,428.3,282.9,430.2,282.8z"/>
			</g>
			<g>
				<g>
					<g>
						<defs>
							<path id="SVGID_00000164485756997325043960000007092914222203177630_" d="M414.9,385c0,0,2.2,5.3,1.6,6.4c-1.7,3-2.5,5-2.5,9
								c-0.8,0.3-1.9,0.4-2.5,0.2l-0.9-6.1c0,0-4.6,5.3-7.4,6.4c-3.3,1.4-14.2,1.8-15.8,0.6c0,0-1.5-3.6,2.7-4.9
								c10.6-3.1,14-14.3,14-14.3C406.2,377.1,412.3,379.8,414.9,385z"/>
						</defs>
						<use xlink:href="#SVGID_00000164485756997325043960000007092914222203177630_"  style="overflow:visible;fill:#DD4026;"/>
						<clipPath id="SVGID_00000004512467600777551400000013375083575618312351_">
							<use xlink:href="#SVGID_00000164485756997325043960000007092914222203177630_"  style="overflow:visible;"/>
						</clipPath>
						<path style="clip-path:url(#SVGID_00000004512467600777551400000013375083575618312351_);fill:#B22714;" d="M386.4,400.8
							c0.2,0,12.3,1.2,15.6-0.5c3.3-1.7,6.9-6.7,7.9-6.8c1-0.2,6.6-2,6.6-2l-0.4,12l-29.2,4.3L386.4,400.8z"/>
					</g>
					<path class="st3" d="M396.2,393.6l1.5,1.4c0,0,2.3-0.9,3.1-2.5l-1.3-1.6c-0.2-0.3-0.7-0.3-1-0.1l-2.3,1.8
						C395.9,392.9,395.9,393.4,396.2,393.6z"/>
				</g>
				<path class="st12" d="M429.8,281.8c-23.5,18-19.1,54.9-26.4,100.8c-0.3,3.1,9.7,4.7,11.6,0.7c0,0,8-19.4,13.2-34
					c2.7-7.7,14.3-31.6,15.9-46.6C445.5,289,442.7,284.7,429.8,281.8z"/>
			</g>
			<g>
				<path class="st14" d="M497.3,233.5c-15.2,4.7-40.5,11.1-40.5,11.1c-1.9,0.5,0.5,9.2,2.4,8.7c0,0,22.5-0.9,40.7-4.3
					C502.1,243.3,502.6,238.3,497.3,233.5z"/>
				<path class="st14" d="M457.7,244.4c-4.4-0.3-8.1-0.9-13.6-3c0,0-11.3-1.5-13.1-1.2c-1.8,0.3-6.8,3.5-7,4.6
					c1.1,2.7,6.4-0.2,8-0.7c0.7-0.2,2,0.1,3.5,0.5c-2.2,0.3-4.7,0.8-5.5,1.3c-1.5,1-4.9,5.9-4.6,7.1c2.1,2,5.3-2.4,6.6-3.5
					c0.3-0.2,0.8-0.4,1.6-0.6c0,0-0.1,0-0.1,0.1c-1.5,1-4.9,5.9-4.6,7.1c2.1,2,5.3-2.4,6.6-3.5c0.3-0.3,1-0.5,1.8-0.7
					c-1.3,1.5-3.1,4.3-2.9,5c1.7,1.7,4.3-2,5.4-2.9c0.4-0.3,1.4-0.6,2.5-0.8c0.3,0.2,0.6,0.3,0.9,0.5c4.1,1.8,12,2,16.2,0.2
					C461.7,253,460.1,244.5,457.7,244.4z"/>
				<path class="st21" d="M528.1,183.3c-0.2-7.7-10.8-21.3-18.1-7.4c-6.9,13.2,1.1,45.5-3,48.4c-1.1,0.8-12.8,8.1-12.3,9.7
					c0.3,0.9,4.7,2,5.2,7.2c0.5,5.1-1.6,7.9-0.8,8.5c0.7,0.6,20.3-4.7,23.6-8.1C531.5,232.4,528.4,191,528.1,183.3z"/>
				<path class="st15" d="M509.7,223.6c3.1-0.6,12.4,0.7,12.5,1.9c0.1,0.9-8.7-0.8-8.7-0.8s11.1,2.6,10.5,4.9c-0.4,1.3-6-3.1-14-4.9
					C510,224.6,507.8,224,509.7,223.6z"/>
			</g>
			<g>
				<path class="st22" d="M516.6,145.8c-1.5,11.8-48.4,17.2-51.7,2.1c-4.9-21.9,5.4-40.7,23.9-40.8
					C510.3,107,518.5,131.4,516.6,145.8z"/>
				<g>
					<g>
						<path class="st23" d="M475.9,134.9c-0.1,4.4-1.3,7.9-5.4,7.8c-2.9-0.1-5.1-3.7-5-8.1c0.1-4.4,2.5-7.9,5.4-7.8
							C475,126.9,476,130.5,475.9,134.9z"/>
						<path class="st23" d="M467.8,139.9c0,0-6.3,9.3-4.8,12.9c1.5,3.6,8.8,3,8.8,3l0-1.1c0,0-6.4,0.5-7.7-2.6
							c-1.1-2.5,4.6-11.6,4.6-11.6L467.8,139.9z"/>
						<path class="st11" d="M476.1,155.6c0,1.1-1.6,2-3.4,1.9c-1.9,0-3.3-1-3.3-2.1c0-1.1,1.6-2,3.4-1.9
							C474.6,153.5,476.1,154.5,476.1,155.6z"/>
						<path class="st10" d="M477.1,134.6c-0.1,3.6-2.1,6.5-4.5,6.5c-2.4-0.1-4.3-3.1-4.2-6.7c0.1-3.6,2.1-6.5,4.5-6.5
							C475.4,127.9,477.2,130.9,477.1,134.6z"/>
						
							<ellipse transform="matrix(2.600870e-02 -0.9997 0.9997 2.600870e-02 326.3618 603.9138)" class="st24" cx="473.1" cy="134.5" rx="5.3" ry="3.5"/>
					</g>
					<path class="st14" d="M492.2,139.2c0,0,0.8,7,3.1,12.4c2.3,5.4,5.7,7.1,7.7,10c3.5,5.1-19.1,18.1-20,18.5
						c0,0-9.4-11.3-6.7-15.1c3-4.1,6.6-5.9,4.9-13.5c-1.5-6.6-2.4-10.3-2.4-10.3L492.2,139.2z"/>
					<path class="st25" d="M477.4,162.9c-0.2,1.3,0.1,2.7,0.7,3.8c0.7,1.1,1.7,1.9,3,2.3c1.2,0.4,2.6,0.6,3.9,0.6
						c1.4,0,2.7-0.2,4-0.5c2.7-0.6,5.2-1.8,7.4-3.3c1.1-0.8,2.2-1.7,3.1-2.7c1-1,1.8-2.1,2.4-3.3l0,0c0.1-0.1,0.2-0.2,0.4-0.1
						c0.1,0.1,0.2,0.2,0.1,0.3c-0.9,2.8-3,5-5.2,6.8c-2.3,1.8-5,3-7.8,3.7c-1.4,0.3-2.9,0.5-4.4,0.4c-1.5,0-2.9-0.2-4.4-0.8
						c-1.4-0.5-2.7-1.6-3.4-2.9c-0.6-1.4-0.8-3-0.4-4.4c0-0.2,0.2-0.2,0.3-0.2C477.3,162.6,477.4,162.7,477.4,162.9L477.4,162.9z"/>
					<path class="st25" d="M477.7,163c-0.6,2-0.8,4.2-0.8,6.3c0,2.1,0.3,4.3,0.8,6.4c0.5,2.1,1.2,4.1,2.1,6.1c0.4,1,0.9,1.9,1.4,2.9
						c0.5,0.9,1.1,1.8,1.6,2.8l-1-0.2c2.2-1.9,4.2-3.9,6.3-5.9c2-2.1,4-4.2,5.7-6.5c1.8-2.3,3.5-4.6,4.9-7.1
						c1.4-2.5,2.7-5.1,3.4-7.9l0,0c0-0.2,0.2-0.2,0.3-0.2c0.1,0,0.2,0.2,0.2,0.3c-0.6,2.9-1.7,5.6-3.1,8.2c-1.4,2.6-3.1,5-4.8,7.4
						c-1.8,2.3-3.7,4.5-5.7,6.6c-2,2.1-4.1,4.1-6.4,6l0,0c-0.3,0.2-0.7,0.2-0.9-0.1c0,0,0-0.1-0.1-0.1c-0.6-1-1.1-1.9-1.7-2.9
						c-0.5-1-1-2-1.4-3c-0.9-2-1.5-4.2-2-6.3c-0.4-2.2-0.7-4.4-0.6-6.6c0.1-2.2,0.4-4.4,1.2-6.5c0.1-0.1,0.2-0.2,0.4-0.2
						C477.6,162.6,477.7,162.8,477.7,163L477.7,163z"/>
					<path class="st25" d="M483.9,191.6c-0.4,2.6-1.9,4.5-3.3,4.3c-1.4-0.2-2.2-2.5-1.8-5.1c0.4-2.6,1.9-4.5,3.3-4.3
						C483.5,186.7,484.3,189,483.9,191.6z"/>
					<path class="st1" d="M483.1,191.5c-0.3,1.8-1.3,3.1-2.3,3c-1-0.2-1.5-1.7-1.2-3.5c0.3-1.8,1.3-3.1,2.3-3
						C482.8,188.1,483.4,189.7,483.1,191.5z"/>
					<g>
						<g>
							<g>
								<path class="st26" d="M492.3,139.8c0,0-2.5,14.2-15.8,12.6c-6.7-0.8-9.5-13.9-6.8-18.1c0,0-3.2-7.5-0.2-14.1
									c3.2-7,13.5-8.6,22.6-5.4c0,0,2.6,4.5,1.1,15.6c0,0,1.8-2,4.4-0.4c2,1.2,2.1,3.8,1.3,6.2
									C497.9,139.2,494.7,141.6,492.3,139.8z"/>
								<path class="st27" d="M493.3,138.7l1.1-2.6l-1.7-0.8c0,0,1.3-4.9,4-3C499,134,496.1,139.9,493.3,138.7z"/>
							</g>
							<g>
								<g>
									<g>
										<path class="st0" d="M474.7,143.4c0,0,3.2-1.3,8-1.2C481.7,145.9,475.1,147.5,474.7,143.4z"/>
										<path class="st28" d="M474.2,143.1c0.1-0.1,0.3-0.2,0.4-0.3c1.3-0.4,2.6-0.6,4-0.7c1.4-0.1,2.7-0.2,4.1-0.2
											c0.2,0,0.3,0.2,0.2,0.3C482.1,146.1,474.4,148.2,474.2,143.1L474.2,143.1z M475.1,143.7c0.1,0.1,0.2,0.1,0.1,0.3
											c0.8,2.4,4.2,1.6,5.8,0.3c0.7-0.5,1.2-1.3,1.4-2.1c0,0,0.2,0.3,0.2,0.3c-2.6,0-5.3,0.3-7.7,1.3c0,0-0.1,0-0.1,0
											c0,0-0.1,0,0,0C475,143.8,475.1,143.7,475.1,143.7L475.1,143.7z"/>
									</g>
									<g>
										<path class="st27" d="M482.7,142.2"/>
									</g>
									<g>
										<path class="st27" d="M474.7,143.4"/>
									</g>
								</g>
								<g>
									<path class="st12" d="M470.6,134.5c0,0.6,0.9,0.7,1.9,0.7c1,0,1.8-0.2,1.8-0.8c0-0.6-0.9-1.1-1.9-1.1
										C471.3,133.3,470.5,133.9,470.6,134.5z"/>
									<path class="st29" d="M469.1,131.8c0,0.1,1.2-1.5,2.8-1.9c1.5-0.4,2.7,1,2.9,0.7c0.2-0.3,0.5-1,0.5-1s-2.2-1-3.7-0.5
										C469.9,129.6,469.4,131,469.1,131.8z"/>
								</g>
								<g>
									<path class="st12" d="M480.4,133.8c0,0.6,0.9,0.7,1.9,0.7c1,0,1.8-0.2,1.8-0.8c0-0.6-0.9-1.1-1.9-1.1
										C481.2,132.6,480.4,133.1,480.4,133.8z"/>
									<path class="st29" d="M486.6,130c0,0.1-2.1-1.4-3.9-1.4c-1.2,0-3.4,1.6-3.7,1.3c-0.3-0.3-0.7-1-0.7-1s2.1-1.5,4.6-1.3
										C484.7,127.8,486.2,129.3,486.6,130z"/>
								</g>
								<g>
									<path class="st30" d="M476,141c0,0,2.3,0,2.3-0.6c0-0.6-4.9-1.6-5.2-1.1C472.9,139.8,475,140.7,476,141z"/>
									<path class="st27" d="M475,130.3c0,0,1.6,2.7,1.2,3.7c-0.4,1-2.7,4.6-2.7,5.1c-0.1,0.5,2.4,1.8,2.5,1.9
										c0.2,0.1-3.5-0.6-3.4-1.8c0.2-1.1,3.1-5.2,3.2-5.8C476,132.9,475,130.3,475,130.3z"/>
								</g>
							</g>
						</g>
					</g>
				</g>
				<path class="st22" d="M493.2,130.4c-6.2,0.9-20.3-12.4-22-12.1c-1.8,0.4-3.4,6.5-2.5,12.7c0,0-4.7-11.1,0.9-18
					c5.8-7.3,20.8-6.4,25.6,1.1c3.6,5.6,2,15.7,2,15.7S495.4,130.1,493.2,130.4z"/>
				<g>
					<g>
						<path class="st23" d="M498.9,133.9c-0.1,4.4-1.3,7.9-5.4,7.8c-2.9-0.1-5.1-3.7-5-8.1c0.1-4.4,2.5-7.9,5.4-7.8
							C498,126,499.1,129.6,498.9,133.9z"/>
						<path class="st10" d="M500.2,133.6c-0.1,3.6-2.1,6.5-4.5,6.5c-2.4-0.1-4.3-3.1-4.2-6.7c0.1-3.6,2.1-6.5,4.5-6.5
							C498.4,127,500.3,130,500.2,133.6z"/>
						<path class="st24" d="M499.6,133.6c-0.1,2.9-1.7,5.2-3.6,5.2c-1.9,0-3.4-2.5-3.3-5.4c0.1-2.9,1.7-5.2,3.6-5.2
							C498.2,128.3,499.7,130.7,499.6,133.6z"/>
					</g>
					<path class="st12" d="M492.8,126.9c0,0,0.8-14.3-12.9-14.6c-13.7-0.4-12.4,16.3-12.4,16.3l-1,1.7c0,0-3.5-18.9,13-19.6
						c15.7-0.7,14.9,15.5,14.9,15.5L492.8,126.9z"/>
				</g>
			</g>
		</g>
		<g>
			<path class="st31" d="M313.1,301.7L35.7,320.1c-7.5-62.3-16.7-125-27.7-188l277.4-10.9L313.1,301.7z"/>
			<g>
				<path class="st32" d="M8,132.1l277.4-10.9L139.7,5.8c-2.7-1.8-6.3-1.5-8.8,0.7L8,132.1z"/>
				<g>
					<g>
						<path class="st1" d="M284.5,218L39.4,234.3c-1.8,0.1-3.4-1.2-3.7-3L11.2,58.4c-0.3-2,1.3-3.9,3.3-4l245.2-9.6
							c1.8-0.1,3.3,1.2,3.6,3L287.7,214C288,216,286.6,217.9,284.5,218z"/>
						<g>
							<g>
								<defs>
									
										<ellipse id="SVGID_00000035511926618273442580000004378229143662957204_" transform="matrix(0.6964 -0.7177 0.7177 0.6964 -47.0258 75.7757)" cx="66" cy="93.5" rx="30.1" ry="32"/>
								</defs>
								<use xlink:href="#SVGID_00000035511926618273442580000004378229143662957204_"  style="overflow:visible;fill:#FFFFFF;"/>
								<clipPath id="SVGID_00000176735934304038821740000008327710833985906879_">
									<use xlink:href="#SVGID_00000035511926618273442580000004378229143662957204_"  style="overflow:visible;"/>
								</clipPath>
								<g style="clip-path:url(#SVGID_00000176735934304038821740000008327710833985906879_);">
									<path class="st34" d="M85.4,111.7c5.9,6.2,12.1,22.2,15.3,30.8c2.2,5.9-5,9-8.7,3.9c-4.6-6.2-11-18.8-15.5-27.5
										C73.6,113.2,79.3,105.3,85.4,111.7z"/>
									<path class="st35" d="M67,105.4c-0.7,0.5-14,4.3-16.4,11.2c-1.2,3.5,17.7,38.9,17.7,38.9s4,4.5,18.4-3.5
										c0,0,0.4-14,0.2-25.5c0-1.9-2.1-5.1-2.2-6.8c-0.2-4.7,1.4-7,0.8-8C82.8,107.9,67,105.4,67,105.4z"/>
									<path class="st36" d="M62,74.6c0,0,4.5,3.4,5.5,8.5c1,5.1,1.6,13.6,3.1,15.2c1.5,1.6,10.3,3.1,10.3,3.1s0.1-18.5-5.1-24.4
										C71.3,71.9,62,74.6,62,74.6z"/>
									<g>
										<path class="st0" d="M72.3,94.4c0.7,1.9,2,3.2,2.9,2.9c0.9-0.3,1.1-2,0.5-3.9c-0.5-1.3-1.2-2.3-1.9-2.7
											c-0.2-0.2-0.1-0.4,0.1-0.2c0.8,0.5,1.6,1.5,2,2.8c0.7,2.1,0.5,3.9-0.6,4.3c-1.1,0.3-2.5-1-3.3-3.1
											c-0.4-1.1-0.5-1.9-0.4-2.7c0.1,0,0.2,0.1,0.3,0.1C71.8,92.6,71.9,93.5,72.3,94.4z"/>
									</g>
									<path class="st36" d="M73.7,85.9c1.2,6.4-2.1,10.7-8,11.4C58.1,98.2,54,93.4,52.8,87c-1.2-6.4,2.9-10.8,8.9-11.5
										C67.6,74.8,72,76.8,73.7,85.9z"/>
									<path class="st37" d="M60.2,94c0,0,3.1,11.5,1.5,13.3c-2.4,2.7-3.4,2.6-3.1,4.2c0.9,4.1,8.8,7.2,12.1,6.6
										c3.8-0.7,7.2-5.2,6.6-8.2c-0.4-1.8-2-1.8-6.6-3.9c-1.3-0.6-2.4-12.2-2.4-12.2L60.2,94z"/>
									<path class="st37" d="M72.7,84c-0.7-4.1-3.7-6.9-7.6-6.4c-2.9,0.3-9.2,2-6.3,8.4c0.5,1.2,0.7,2.2,0.6,3.2
										c-0.1-0.1-0.2-0.2-0.3-0.4c-0.5-0.7-2.1-2.2-3.4-1.1c-1.2,1.1,0,4.1,1.5,5.2c0.6,0.4,1.4,0.5,2.1,0.3c0,0.1,0,0.1,0,0.2
										c1.2,4,5.9,6.8,9.6,6.3c3.7-0.5,5.7-2.1,5-7.8C73.9,89.9,72.7,84,72.7,84z"/>
									<g>
										<g>
											<path class="st38" d="M64.1,87.4C64.1,87.4,64.1,87.3,64.1,87.4C64.1,87.3,64.1,87.4,64.1,87.4L64.1,87.4z"/>
										</g>
									</g>
									<path class="st36" d="M70.2,79.1c1.2,0.9,3.1,5,3.1,5s3.8-11.9-7.6-11.8c-9.1,0.1-11.1,5.3-10,9.6c1,3.9,4.6,8.4,4.6,8.4
										s0.3-0.8,0.1-3.5C60.2,83.8,67.6,77.3,70.2,79.1z"/>
									<g>
										<path class="st27" d="M58,91.2l1-0.6c0,0-0.4-0.9-0.7-1.3c-0.4-0.4-1.5-1.6-2.2-0.8c-0.7,0.8,0.2,2.9,1.2,3.5
											c0.6,0.4,1,0,1,0L58,91.2z"/>
									</g>
									<path class="st12" d="M55.2,81.5l3.6,1.7c0.2,0.1,0.3,0,0.4-0.1l0.5-1c0.1-0.2,0-0.3-0.2-0.4l-3.7-1.7
										c-0.2-0.1-0.3,0-0.4,0.1l-0.4,1C55,81.2,55,81.4,55.2,81.5z"/>
									<path class="st35" d="M49.8,117c-3.4,7.4-3.7,24.1-3.7,33.2c0,6.1,7.9,7.4,9.7,1.7c2.2-7,3.9-20.6,5.1-30.1
										C61.7,115.6,53.4,109.3,49.8,117z"/>
									<g>
										<path class="st0" d="M57,95.1c0.4,1.9,1.4,3.4,2.4,3.3c1-0.1,1.5-1.8,1.1-3.7c-0.2-1.3-0.8-2.4-1.5-2.9
											c-0.2-0.2,0-0.4,0.2-0.2c0.7,0.6,1.3,1.7,1.5,3.1c0.4,2.1-0.2,3.9-1.3,4c-1.1,0.1-2.3-1.4-2.7-3.5c-0.2-1.1-0.2-2,0.1-2.7
											c0.1,0,0.2,0.1,0.2,0.2C56.9,93.3,56.8,94.1,57,95.1z"/>
									</g>
									<g>
										<path class="st0" d="M71.2,92.6c0,0-1.5-1-5.5-0.1C66.6,94.6,71.3,95,71.2,92.6z"/>
										<path class="st27" d="M71.2,92.6c-1.7-0.6-3.7-0.3-5.4,0.1c0,0,0.2-0.3,0.2-0.3C66.6,94.1,70.8,95,71.2,92.6L71.2,92.6z
											 M71.3,92.5c0.1,2.9-5.1,2.2-5.8,0c-0.1-0.1,0-0.3,0.2-0.3C67.5,91.9,69.6,91.5,71.3,92.5L71.3,92.5z"/>
									</g>
									<path class="st12" d="M66.4,87.3c0,0.4-0.4,0.5-1.1,0.5c-0.6,0-1.1,0-1.1-0.4c0-0.4,0.4-0.7,1-0.7
										C65.8,86.7,66.3,87,66.4,87.3z"/>
									<path class="st12" d="M71.9,87.1c0,0.4-0.4,0.5-1.1,0.5c-0.6,0-1.1,0-1.1-0.4c0-0.4,0.4-0.7,1-0.7
										C71.3,86.5,71.9,86.8,71.9,87.1z"/>
									<path class="st36" d="M72.9,85.4c0,0.1-1.6-1-2-1c-0.4,0.1-1.7,0.8-1.8,0.6c-0.2-0.2-0.4-0.6-0.4-0.6s1.9-0.6,2.3-0.5
										C71.4,84,72.6,85,72.9,85.4z"/>
									<path class="st36" d="M62.4,85.4c0,0.1,1.7-1,2.2-0.9c0.5,0.1,2.1,0.6,2.3,0.5c0.2-0.2,0.3-0.6,0.3-0.6s-2.3-0.5-2.9-0.4
										C63.8,84,62.6,84.9,62.4,85.4z"/>
									<g>
										<path class="st30" d="M69.4,90.7c0,0-1.4,0.1-1.4-0.3c0-0.4,2.8-1.2,3-0.9C71.2,89.8,70,90.5,69.4,90.7z"/>
										<path class="st27" d="M68.6,84.9c0,0-0.1,1.8,0.2,2.4c0.3,0.6,1.8,1.9,1.9,2.2c0.1,0.3-1.2,1.2-1.3,1.3
											c-0.1,0.1,2-0.5,1.8-1.2c-0.2-0.7-2.1-2.2-2.2-2.5C68.9,86.6,68.6,84.9,68.6,84.9z"/>
									</g>
								</g>
							</g>
							<g>
								<g>
									<path class="st0" d="M262.9,198.6L55.4,208.7c-2.8,0.1-5.2-1.8-5.6-4.6l-9.3-67.7c-0.5-3.2,1.9-6,5.1-6.2l207.3-9.3
										c2.7-0.1,5.1,1.8,5.5,4.4l9.5,66.9C268.5,195.5,266.1,198.5,262.9,198.6z"/>
									<g>
										<path class="st31" d="M240.8,136.7l-185.5,8c-1.1,0-2-0.7-2.1-1.8l0,0c-0.2-1.2,0.7-2.3,1.9-2.3l185.5-7.9
											c1.1,0,2,0.8,2.1,1.9l0,0C242.9,135.6,242,136.6,240.8,136.7z"/>
									</g>
									<path class="st31" d="M244.2,143.9L244.2,143.9c-0.1-1.1-1-1.9-2.1-1.9L56.4,150c-1.2,0.1-2.1,1.1-1.9,2.3l0,0
										c0.1,1,1.1,1.8,2.1,1.8l185.7-8C243.4,146.1,244.3,145.1,244.2,143.9z"/>
									<g>
										<path class="st31" d="M142.3,155.9l-84.6,3.6c-1.2,0.1-2.1,1.1-1.9,2.3l0,0c0.1,1,1,1.8,2.1,1.7l84.6-3.6
											c1.2-0.1,2.1-1.1,1.9-2.3c0,0,0,0,0,0C144.2,156.6,143.3,155.8,142.3,155.9z"/>
									</g>
									<g>
										<path class="st31" d="M174.5,164L59,168.9c-1.2,0.1-2.1,1.1-1.9,2.3l0,0.1c0.1,1,1,1.8,2.1,1.7l115.5-5c1.1,0,2-1,1.9-2.1
											c0,0,0,0,0,0C176.5,164.8,175.6,163.9,174.5,164z"/>
									</g>
									<g>
										<path class="st31" d="M59.6,190.2L59.6,190.2c0.1,1.1,1.1,1.8,2.1,1.8l94.9-4.1c1.1,0,2-1,1.9-2.1c0,0,0-0.1,0-0.1
											c-0.1-1.1-1-1.9-2.1-1.9l-94.9,4.1C60.3,187.9,59.4,189,59.6,190.2z"/>
									</g>
								</g>
								<g>
									<path class="st0" d="M245.2,84.9l-131.7,6.4c-1.7,0.1-3.3-1.2-3.5-2.9l-1-6.4c-0.3-2,1.2-3.8,3.2-3.9l131.6-5.9
										c1.7-0.1,3.2,1.1,3.5,2.8l1,5.9C248.7,83,247.2,84.8,245.2,84.9z"/>
									<path class="st0" d="M248.6,106.2l-131.7,6.4c-1.7,0.1-3.3-1.2-3.5-2.9l-1-6.4c-0.3-2,1.2-3.8,3.2-3.9l131.6-5.9
										c1.7-0.1,3.2,1.1,3.5,2.8l1,5.9C252.2,104.2,250.7,106.1,248.6,106.2z"/>
									<g>
										<path class="st31" d="M201.1,78.6L116.2,83c-1.2,0.1-2.1,1.1-1.9,2.3l0,0c0.1,1,1.1,1.8,2.1,1.7l84.9-4.4
											c1.2-0.1,2.1-1.1,1.9-2.3c0,0,0,0,0,0C203.1,79.4,202.2,78.6,201.1,78.6z"/>
									</g>
									<g>
										<path class="st31" d="M187.8,101.1l-67.1,3.6c-1.2,0.1-2.1,1.1-1.9,2.3l0,0c0.1,1,1.1,1.8,2.1,1.7l67.1-3.6
											c1.2-0.1,2.1-1.1,1.9-2.3c0,0,0,0,0,0C189.8,101.8,188.9,101.1,187.8,101.1z"/>
									</g>
								</g>
							</g>
						</g>
					</g>
					<g>
						<path class="st39" d="M8,132.1l142.4,76c0,0,6.3-7.9,14.6-9c8.3-1.1,15.9,7.5,15.9,7.5l104.5-85.4L168.7,249.1L8,132.1z"/>
					</g>
				</g>
				<g>
					<path class="st40" d="M8,132.1l161.2,97.4l116.6-106.4l27.7,180.4L36.1,322C27,260.1,17.6,196.7,8,132.1z"/>
					<path class="st41" d="M8,132.1c0,0,11,34.4,19.7,95.2c8.7,60.8,8.1,92.8,8.1,92.8L8,132.1z"/>
				</g>
				<g>
					<path class="st42" d="M153.2,219.8c0,0-118.3,103.3-117,102.1c1.3-1.1,31.1-32,52.6-53C110.2,248.1,140.6,224.1,153.2,219.8z"
						/>
					<path class="st43" d="M36.1,322l277.4-18.4l-143.9-94.2c-2.7-1.8-6.3-1.5-8.8,0.7L36.1,322z"/>
				</g>
			</g>
		</g>
		<g>
			<path class="st25" d="M264.9,275.8c0,0-11.4,103.5-13.9,141.4c-0.2,3,8.4,5.3,9.4,0c5.9-33.2,22.9-141.4,22.9-141.4H264.9z"/>
			<path class="st36" d="M297.7,275.8c0,0-9.7,98-11.8,130.3c-0.2,2.5,7.2,4.5,8,0c5-28.2,19.5-130.3,19.5-130.3H297.7z"/>
			<path class="st25" d="M543.5,275.8c0,0,11.4,103.5,13.9,141.4c0.2,3-8.4,5.3-9.4,0C542.1,384,525,275.8,525,275.8H543.5z"/>
			<path class="st36" d="M569.5,275.8c0,0,9.7,98,11.8,130.3c0.2,2.5-7.2,4.5-8,0c-5-28.2-19.5-130.3-19.5-130.3H569.5z"/>
			<polygon class="st36" points="546.4,281.2 259.3,281.2 254.6,263.1 548.8,263.1 			"/>
			<polygon class="st44" points="573,278.6 546.4,281.2 548.8,263.1 577,263.1 			"/>
			<g>
				<rect x="238.6" y="258.3" class="st45" width="318.8" height="9.6"/>
				<polygon class="st36" points="588.7,266.6 557.4,267.9 557.4,258.3 588.7,257 				"/>
				<polygon class="st46" points="238.6,258.3 297.3,257 588.7,257 557.4,258.3 				"/>
				<g>
					<path class="st2" d="M282.9,245.6c0,0-8.6-19.6,3-19.6c11.6,0,3,19.5,3,19.5C289,245.7,285.1,245.7,282.9,245.6z"/>
					<path class="st47" d="M283.6,245.6c0,0-6.6-19.6,2.3-19.6s2.4,19.5,2.4,19.5C288.3,245.7,285.3,245.7,283.6,245.6z"/>
					<g>
						<g>
							<path class="st29" d="M298,246l-0.1,1.4l-0.1,1.6l-0.1,2l0,0.6l-0.4,5.7c0,0.6-22.3,0.9-22.4,0.3l-0.5-6l0-0.3l-0.2-2.1
								l-0.2-1.9l-0.1-1.4c-0.1-0.7,0.5-1.2,1.1-1.2h21.8C297.5,244.8,298,245.3,298,246z"/>
						</g>
					</g>
					<polygon class="st28" points="297.9,247.4 297.8,249 297.6,251 297.6,251.7 274.4,251.7 274.3,251.3 274.2,249.3 274,247.4 
											"/>
				</g>
			</g>
			<g>
				<path class="st16" d="M442.2,257H327v-2.4c0-1.3,1-2.3,2.3-2.3h110.5c1.3,0,2.3,1,2.3,2.3V257z"/>
				<g>
					<g>
						<g>
							<path class="st19" d="M414.7,238.8h-91.6c-0.9,0-1.7-0.6-1.9-1.5l-17-67.1l-0.4-1.6c-0.2-1.2,3.5-4,4.7-4.1l93.5-0.8
								c1.3,0,2.1,0.4,2.7,0.9c1,0.9,1.2,2.2,1.3,2.7l13,67.4C419.3,236.2,416.6,238.8,414.7,238.8z"/>
							<path class="st48" d="M404.6,164.6c-1.2,1.1-2.7,2.4-3.1,2.7c0,0-96.3,2.7-96.8,2.9c-0.1,0-0.3,0-0.6-0.1l-0.4-1.6
								c-0.2-1.2,3.5-4,4.7-4.1l93.5-0.8C403.2,163.7,404.1,164.1,404.6,164.6z"/>
							<path class="st49" d="M414.5,238.8h-94.3c-0.9,0-1.7-0.6-1.9-1.5l-14.6-68.1c-0.2-1.2,0.6-2.3,1.8-2.3l95.2-0.8
								c0.9,0,1.7,0.6,1.9,1.5l13.6,69C416.6,237.7,415.7,238.8,414.5,238.8z"/>
							<path class="st19" d="M407.4,230.4c0.2,1-1.9,3.3-3.5,3.3h-75.3c-0.8,0-1.4-0.5-1.6-1.3l-14.5-56.5l-0.1-0.4
								c-0.2-1,2.9-3.3,3.9-3.4l78.6-0.4c0.5,0,0.9,0.2,1.2,0.5c0.2,0.2,0.3,0.5,0.4,0.7L407.4,230.4z"/>
							<path class="st50" d="M396.1,172.2l-3.6,2.7l-80,1l-0.1-0.4c-0.2-1,2.9-3.3,3.9-3.4l78.6-0.4
								C395.4,171.7,395.8,171.9,396.1,172.2z"/>
							<path class="st48" d="M403.8,233.7h-77.5c-0.8,0-1.4-0.5-1.6-1.3L314.5,185l-1.2-5.4l-0.8-3.7c-0.2-1,0.5-1.9,1.5-1.9
								l78.6-0.5c0.8,0,1.4,0.5,1.6,1.3l0.7,3.8l1.2,5.9l9.3,47.1C405.5,232.8,404.8,233.7,403.8,233.7z"/>
						</g>
						<g>
							<polygon class="st19" points="372.8,182 336.4,182.2 336.1,181.1 372.6,181 							"/>
							<polygon class="st19" points="373.3,183.9 336.8,184.1 336.6,183 373,182.9 							"/>
							<polygon class="st19" points="373.7,185.8 337.3,186 337,184.9 373.4,184.8 							"/>
							<polygon class="st19" points="374.1,187.8 337.7,188 337.4,186.9 373.9,186.7 							"/>
						</g>
					</g>
					<g>
						<polygon class="st19" points="342.7,203.6 371.2,203.6 362.9,257 334.6,257 						"/>
						<polygon class="st16" points="342.7,203.6 368.5,203.6 360.2,257 334.6,257 						"/>
					</g>
					<g>
						<rect x="342.5" y="201" class="st15" width="28.9" height="5.4"/>
						<ellipse class="st16" cx="371.3" cy="203.6" rx="1.5" ry="2.7"/>
						<path class="st15" d="M341.2,203.6c0-1.5,0.6-2.7,1.3-2.7c0.7,0,1.3,1.2,1.3,2.7s-0.6,2.7-1.3,2.7
							C341.8,206.3,341.2,205.1,341.2,203.6z"/>
					</g>
				</g>
			</g>
		</g>
		<g>
			
				<ellipse transform="matrix(0.7071 -0.7071 0.7071 0.7071 116.9761 459.3223)" class="st14" cx="612.9" cy="88.5" rx="35.2" ry="35.2"/>
			<g>
				<rect x="587.4" y="72.5" class="st51" width="50.4" height="32.1"/>
				<polygon class="st52" points="637.7,104.6 587.4,104.6 612.6,88.5 				"/>
				<path class="st51" d="M587.4,72.5L611,93.4c0.9,0.8,2.2,0.8,3.1,0l23.7-20.9H587.4z"/>
				<path class="st53" d="M587.4,72.5L611,91.7c0.9,0.7,2.2,0.7,3.1,0l23.7-19.2H587.4z"/>
			</g>
		</g>
		<g>
			
				<ellipse transform="matrix(0.7071 -0.7071 0.7071 0.7071 53.0248 485.8118)" class="st54" cx="612.9" cy="178.9" rx="35.2" ry="35.2"/>
			<g>
				<path class="st0" d="M603.8,173.7c1.8,0,3.7-0.4,5.5-1.4l2.7-1.5c0.9-0.5,1.4-1.6,0.9-2.4l-6.3-11.7c-0.4-0.8-1.6-1-2.5-0.5
					l-2.7,1.5c-2.8,1.5-4.7,3.9-5.3,6.5c-1.1,5.2,3.5,17.5,6.3,22.7c2.8,5.3,11.8,16.4,16.7,17.6c2.2,0.5,4.7,0,6.9-1.2l2.7-1.5
					c0.9-0.5,1.4-1.6,0.9-2.4l-6.3-11.7c-0.4-0.8-1.6-1-2.5-0.5l-2.7,1.5c-1.8,1-3.3,2.4-4.2,4C609.9,186.9,606.5,180.6,603.8,173.7
					z"/>
				
					<rect x="606.2" y="155.9" transform="matrix(0.8797 -0.4756 0.4756 0.8797 -5.0876 308.3372)" class="st52" width="1.1" height="16.6"/>
				
					<rect x="622.9" y="186.8" transform="matrix(0.8796 -0.4757 0.4757 0.8796 -17.77 320.0764)" class="st52" width="1.1" height="16.6"/>
			</g>
		</g>
		<g>
			
				<ellipse transform="matrix(0.7071 -0.7071 0.7071 0.7071 143.5039 523.4118)" class="st3" cx="703.6" cy="88.5" rx="35.2" ry="35.2"/>
			<g>
				<path class="st29" d="M718.5,82.8c0,11.7-15.6,29.4-15.6,29.4s-15.6-17.6-15.6-29.4c0-8.6,7-15.6,15.6-15.6
					C711.5,67.2,718.5,74.2,718.5,82.8z"/>
				<circle class="st0" cx="702.9" cy="82.8" r="9.9"/>
			</g>
		</g>
		<g>
			
				<ellipse transform="matrix(0.7071 -0.7071 0.7071 0.7071 79.5527 549.9013)" class="st28" cx="703.6" cy="178.9" rx="35.2" ry="35.2"/>
			<ellipse class="st55" cx="703.6" cy="179" rx="15.1" ry="21.2"/>
			<g>
				
					<ellipse transform="matrix(0.7071 -0.7071 0.7071 0.7071 79.4811 549.931)" class="st56" cx="703.6" cy="179" rx="21.2" ry="21.2"/>
				<path class="st0" d="M703.6,157.1c-12.1,0-21.9,9.8-21.9,21.9s9.8,21.9,21.9,21.9c12.1,0,21.9-9.8,21.9-21.9
					S715.6,157.1,703.6,157.1z M698.6,192.9c-7.7-1.4-13.7-5.9-15.1-11.4c2.6,1.7,8,2.9,13.9,3.3C697.6,187.7,698,190.5,698.6,192.9
					z M723.9,178.6c0,0.1,0,0.3,0,0.4s0,0.3,0,0.4c-0.8,1.5-5.9,3.4-14.1,4c0.1-1.5,0.1-3,0.1-4.5c0-1.5-0.1-3-0.1-4.5
					C718,175.2,723.1,177,723.9,178.6z M708.6,179c0,1.6-0.1,3.1-0.1,4.6c-1.5,0.1-3.2,0.1-4.9,0.1c-1.7,0-3.4-0.1-4.9-0.1
					c-0.1-1.4-0.1-3-0.1-4.6c0-1.6,0.1-3.1,0.1-4.6c1.5-0.1,3.2-0.1,4.9-0.1c1.7,0,3.4,0.1,4.9,0.1
					C708.6,175.9,708.6,177.4,708.6,179z M683.2,179.4c0-0.1,0-0.3,0-0.4s0-0.3,0-0.4c0.8-1.5,5.9-3.4,14.1-4
					c-0.1,1.5-0.1,3-0.1,4.5c0,1.5,0.1,3,0.1,4.5C689.1,182.8,684,181,683.2,179.4z M703.6,173c-1.6,0-3.2,0.1-4.8,0.2
					c0.3-3.2,0.7-6,1.3-8.2c1.2-0.1,2.3-0.2,3.5-0.2c1.2,0,2.4,0.1,3.5,0.2c0.6,2.2,1,5,1.3,8.2C706.8,173,705.2,173,703.6,173z
					 M697.4,173.2c-5.9,0.5-11.3,1.6-13.9,3.3c1.4-5.6,7.4-10.1,15.1-11.4C698,167.5,697.6,170.3,697.4,173.2z M703.6,185.1
					c1.6,0,3.2-0.1,4.8-0.2c-0.3,3.2-0.7,6-1.3,8.2c-1.2,0.1-2.3,0.2-3.5,0.2c-1.2,0-2.4-0.1-3.5-0.2c-0.6-2.2-1-5-1.3-8.2
					C700.3,185,702,185.1,703.6,185.1z M709.8,184.8c5.9-0.5,11.3-1.6,13.9-3.3c-1.4,5.6-7.4,10.1-15.1,11.4
					C709.1,190.5,709.5,187.7,709.8,184.8z M709.8,173.2c-0.2-2.9-0.6-5.7-1.2-8.1c7.7,1.4,13.7,5.9,15.1,11.4
					C721,174.8,715.7,173.7,709.8,173.2z M722.1,170.6c-3.1-3.6-8.1-6.2-14-7.1c-0.6-2-1.3-3.6-2.1-4.7
					C713.2,159.7,719.3,164.3,722.1,170.6z M703.2,158.7c0.1,0,0.3,0,0.4,0c0.1,0,0.3,0,0.4,0c0.9,0.4,1.9,2,2.7,4.7
					c-1-0.1-2-0.2-3.1-0.2c-1.1,0-2.1,0.1-3.1,0.2C701.3,160.7,702.3,159,703.2,158.7z M701,158.8c-0.8,1.1-1.5,2.7-2.1,4.7
					c-5.9,0.9-10.9,3.5-14,7.1C687.9,164.3,693.9,159.7,701,158.8z M685,187.4c3.1,3.6,8.1,6.2,14,7.1c0.6,2,1.3,3.6,2.1,4.7
					C693.9,198.4,687.9,193.7,685,187.4z M704,199.4c-0.1,0-0.3,0-0.4,0c-0.1,0-0.3,0-0.4,0c-0.9-0.4-1.9-2-2.7-4.7
					c1,0.1,2,0.2,3.1,0.2c1.1,0,2.1-0.1,3.1-0.2C705.8,197.4,704.9,199,704,199.4z M706.1,199.2c0.8-1.1,1.5-2.7,2.1-4.7
					c5.9-0.9,10.9-3.5,14-7.1C719.3,193.7,713.2,198.4,706.1,199.2z"/>
			</g>
		</g>
		<g>
			<path class="st3" d="M449,49.9h-88.7c-7.8,0-14.1,6.3-14.1,14.1v22.4c0,7.8,6.3,14.1,14.1,14.1h58.3l22.2,36l-7.2-36H449
				c7.8,0,14.1-6.3,14.1-14.1V64C463.1,56.2,456.8,49.9,449,49.9z"/>
			<g>
				<path class="st12" d="M387,74.2c0,2.2-1.8,4.1-4.1,4.1s-4.1-1.8-4.1-4.1c0-2.2,1.8-4.1,4.1-4.1S387,72,387,74.2z"/>
				<path class="st12" d="M408.7,74.2c0,2.2-1.8,4.1-4.1,4.1s-4.1-1.8-4.1-4.1c0-2.2,1.8-4.1,4.1-4.1S408.7,72,408.7,74.2z"/>
				<path class="st12" d="M430.5,74.2c0,2.2-1.8,4.1-4.1,4.1s-4.1-1.8-4.1-4.1c0-2.2,1.8-4.1,4.1-4.1S430.5,72,430.5,74.2z"/>
			</g>
		</g>
		<g>
			<g>
				<path class="st16" d="M646.1,361.7v34c0,7.8,52.2,7.8,52.2,0l0-34.4L646.1,361.7z"/>
				<path class="st15" d="M646.1,359.5v5.9c0,0,3.8,3.4,26.1,3.4c22.3,0,26.1-3.8,26.1-3.8v-5.6H646.1z"/>
				<ellipse class="st48" cx="672.2" cy="359.5" rx="26.1" ry="3.2"/>
				<ellipse class="st57" cx="672.2" cy="359.5" rx="23.9" ry="2.3"/>
				<path class="st1" d="M670.3,359.9c0,0-5.4-7-12.8-10.4c-7.4-3.5-16.1-6.7-16-12.3c0.1-5.7,24-11.6,30.7,22.7
					C672.3,360.8,670.8,360.7,670.3,359.9z"/>
				<path class="st58" d="M670.7,360c0,0-4.7-7.6-9.9-11c-5.9-3.8-12.3-4.4-12.2-8.8c0.1-4.4,16.8-5.5,23.6,19.7
					C672.2,360.8,671.1,360.7,670.7,360z"/>
				<path class="st2" d="M671.5,360.5c0,0-6.4-13-19.8-21.3c0,0,14.2,6.5,20.4,21.1L671.5,360.5z"/>
				<path class="st1" d="M672.1,360.3c0,0-2.2-11.2-6.8-19.3c-5.6-10-10.1-18.7-5-22.6c5.4-4.1,25.2,3.8,13.4,41.9
					C673.6,361,673.1,361.3,672.1,360.3z"/>
				<path class="st58" d="M672.1,360.4c0,0-1.6-10.1-4.9-17.5c-4.1-9-7.4-17-3.6-20.5c3.9-3.7,18.4,3.5,9.8,38
					C673.2,361,672.9,361.3,672.1,360.4z"/>
				<path class="st2" d="M672.1,360.3c0,0,1.8-11.1-5.1-31.5c0,0,7.2,8.5,6.7,31.4C673.8,360.2,672.9,362,672.1,360.3z"/>
				<path class="st1" d="M687.5,344.9c-7.6,5.4-12.4,15.1-12.4,15.1c-0.2,0.4-0.6,0.7-0.9,0.7c-0.5,0.1-1-0.3-1.1-1.1
					c0.4-39.8,28.4-38.1,29.8-31.8C704.2,334.1,695.1,339.5,687.5,344.9z"/>
				<path class="st58" d="M683.3,344.9c-5.7,5.6-8.5,15.1-8.5,15.1c-0.2,0.4-0.5,0.6-0.8,0.6c-0.4,0.1-0.9-0.2-0.9-0.9
					c3.4-33.1,22.1-33.7,24-28.6C698.3,334.4,690.4,338,683.3,344.9z"/>
				<path class="st2" d="M689.3,333.6c-13.3,12-14.9,25.8-14.9,25.8s-0.1,0.5-0.3,1.2c-0.5,0.1-1-0.3-1.1-1.1
					C677.3,338.4,689.3,333.6,689.3,333.6z"/>
			</g>
			<path class="st57" d="M670.1,360.7c0,0-2-1.3-1.8-1.7s3.1,1.4,3.1,1.4s-1.7-2-0.9-2.5c0.7-0.5,2.3,2.3,2.3,2.1
				c0-0.1,0.2-3.2,1.7-3.2c1.5,0,0.3,3.1,0.3,3.1s2.1-2,3.1-0.9C678.8,360.1,674,362.2,670.1,360.7z"/>
		</g>
	</g>
</g>
<g id="DESIGNED_BY_FREEPIK">
	<g>
	</g>
	<g>
	</g>
	<g>
	</g>
	<g>
	</g>
	<g>
	</g>
</g>
</svg>
