<?xml version="1.0" encoding="utf-8"?>
<!-- Generator: Adobe Illustrator 26.0.1, SVG Export Plug-In . SVG Version: 6.00 Build 0)  -->
<svg version="1.1" xmlns="http://www.w3.org/2000/svg" xmlns:xlink="http://www.w3.org/1999/xlink" x="0px" y="0px"
	 viewBox="0 0 620.1 337.8" style="enable-background:new 0 0 620.1 337.8;" xml:space="preserve">
<style type="text/css">
	.st0{fill:#FFFFFF;}
	.st1{fill:#71BF9D;}
	.st2{fill:#3C8460;}
	.st3{fill:#FFD25A;}
	.st4{opacity:0.5;fill:#FFBE57;}
	.st5{fill:none;stroke:#FFFFFF;stroke-width:1.0226;stroke-miterlimit:10;}
	.st6{opacity:0.3;fill:#A1ABAD;}
	.st7{fill-rule:evenodd;clip-rule:evenodd;fill:#FF8976;}
	.st8{fill-rule:evenodd;clip-rule:evenodd;fill:#EF6456;}
	.st9{opacity:0.3;fill-rule:evenodd;clip-rule:evenodd;fill:#BA2B27;}
	.st10{fill-rule:evenodd;clip-rule:evenodd;fill:#7C4284;}
	.st11{fill-rule:evenodd;clip-rule:evenodd;fill:#3E2344;}
	.st12{fill:#3E2344;}
	.st13{fill-rule:evenodd;clip-rule:evenodd;fill:#A1ABAD;}
	.st14{fill:#FFB072;}
	.st15{fill:#764582;}
	.st16{fill:#9D68AA;}
	.st17{opacity:0.5;fill:#552F5E;}
	.st18{clip-path:url(#SVGID_00000020395889182560073990000015929962313476913562_);fill:#B22714;}
	.st19{fill:#552F5E;}
	.st20{clip-path:url(#SVGID_00000062178797898792995150000003410203033745629589_);fill:#B22714;}
	.st21{fill:#AF79BC;}
	.st22{fill-rule:evenodd;clip-rule:evenodd;fill:#DD4026;}
	.st23{fill-rule:evenodd;clip-rule:evenodd;fill:#552F5E;}
	.st24{fill-rule:evenodd;clip-rule:evenodd;fill:#9D68AA;}
	.st25{fill:#FFDCAE;}
	.st26{fill-rule:evenodd;clip-rule:evenodd;fill:#FFB072;}
	.st27{fill:#E57E55;}
	.st28{fill:#FF8976;}
	.st29{fill:#DD4026;}
	.st30{opacity:0.5;fill:#E57E55;}
	.st31{fill:#A1ABAD;}
	.st32{fill:#E5DACA;}
	.st33{clip-path:url(#SVGID_00000108299302573587059070000007623048447200968634_);}
	.st34{fill:#C13725;}
	.st35{fill:#D8462A;}
	.st36{fill:#F99441;}
	.st37{fill:#FFC49C;}
	.st38{fill:#1E1C1C;}
	.st39{opacity:0.8;fill:#E5DACA;}
	.st40{fill:#EFE9DA;}
	.st41{opacity:0.3;fill:#FFFFFF;}
	.st42{opacity:0.5;fill:#D8D0BF;}
	.st43{fill:#FCF7F0;}
	.st44{fill:#D36D29;}
	.st45{fill:#FFCC5A;}
	.st46{fill:#FFE3A4;}
	.st47{opacity:0.5;fill:#71BF9D;}
	.st48{fill:#E4BCE8;}
	.st49{fill:#8D5B99;}
	.st50{fill:#C899CE;}
	.st51{fill:#D3D3D3;}
	.st52{fill:#E2E2E2;}
	.st53{fill:#F4F4F4;}
	.st54{fill:#7C4284;}
	.st55{fill:none;stroke:#3C8460;stroke-width:1.1603;stroke-miterlimit:10;}
	.st56{fill:#83B6E5;}
	.st57{fill:#261F28;}
	.st58{opacity:0.3;fill:#3C8460;}
</style>
<g id="BACKGROUND">
	<rect x="-71.7" y="-93.7" class="st0" width="750" height="500"/>
</g>
<g id="OBJECTS">
	<g>
		<g>
			<path class="st1" d="M492.7,227.3c0,0,19.1-7.3,34-12.3c11-3.8,20.7-5.4,21.2-9.5c0.7-4.6-11-4.1-23.3,0.5
				c-13.2,4.9-27,14.2-27,14.2s18.2-14.6,33.8-25.9c10.1-7.3,20-11.2,20.4-15.9c0.5-5.6-14.5-3.3-27.9,6.7
				c-15.1,11.3-28,32.3-28,32.3s6.5-15.7,15.2-28.3c7.3-10.6,16.5-19.4,14.2-24.6c-2.6-5.9-14.8,5.2-22.7,19.4
				c-7.3,13-10.6,28.9-10.6,28.9s-0.3-7.6,1-15.7c1.4-8.7,4.3-18,1-19C487.8,175.9,478.9,206.4,492.7,227.3z"/>
			<path class="st2" d="M495,224.5c0,0,12.8-7.1,24.8-12.4c9.7-4.3,19.3-6.8,19.3-5.8c0,0.9-8.3,3.5-18.5,7
				C508.1,217.7,495,224.5,495,224.5z"/>
			<path class="st2" d="M500.4,214.4c0,0,10.9-12.2,20.7-20.8c8-6.9,17.4-11.4,17.6-10.5c0.2,0.9-7.8,5-16.5,11.4
				C511.7,202.3,500.4,214.4,500.4,214.4z"/>
			<path class="st2" d="M494.1,213.8c0,0,5.8-15.3,12-26.8c5-9.3,12.2-16.9,12.8-16.1c0.5,0.7-5.5,7.5-11.4,16.5
				C500.3,198.5,494.1,213.8,494.1,213.8z"/>
			<path class="st2" d="M491.5,220.6c0,0-2.3-4.1-3-17.2c-0.6-10.6,3.4-20.7,4.3-20.3c0.8,0.4-3.5,9.3-3.4,20.1
				C489.6,216.9,491.5,220.6,491.5,220.6z"/>
		</g>
		<g>
			<path class="st1" d="M96.8,283.5c0,0-20.4,1.8-36,3.7c-11.5,1.4-21,4.1-23.3,0.7c-2.6-3.9,8.1-8.5,21.1-9.7c14-1.3,30.5,1,30.5,1
				s-22.8-5.2-41.8-8.5c-12.3-2.2-22.9-1.4-25.3-5.4c-2.9-4.8,11.6-9.3,28-6.1c18.5,3.6,39.3,16.8,39.3,16.8s-12.7-11.2-26.1-18.8
				c-11.2-6.4-23.4-10.3-23.6-15.9c-0.2-6.5,15.5-1.8,28.9,7.5c12.2,8.5,22.2,21.4,22.2,21.4s-3.1-7-7.8-13.6
				c-5.1-7.2-11.7-14.3-9.2-16.7C78.7,235.1,100.1,258.7,96.8,283.5z"/>
			<path class="st2" d="M93.5,282c0,0-14.6-0.8-27.7-0.3C55.3,282,45.5,284,46,284.9c0.4,0.8,9-0.5,19.7-1.8
				C78.7,281.6,93.5,282,93.5,282z"/>
			<path class="st2" d="M84.2,275.2c0,0-15.1-6.3-27.7-9.7c-10.2-2.7-20.6-2.7-20.4-1.7c0.2,0.9,9.2,1.1,19.8,3.1
				C68.8,269.3,84.2,275.2,84.2,275.2z"/>
			<path class="st2" d="M89.6,271.9c0,0-11.9-11.2-22.5-18.9c-8.6-6.2-18.3-9.8-18.5-8.9c-0.1,0.9,8.2,4.3,17.4,9.9
				C77.4,260.9,89.6,271.9,89.6,271.9z"/>
			<path class="st2" d="M95,276.9c0,0,0.2-4.7-4.9-16.7c-4.1-9.7-12.1-17.1-12.7-16.3c-0.6,0.7,7.3,6.8,11.9,16.6
				C95.1,272.8,95,276.9,95,276.9z"/>
		</g>
		<g>
			<path class="st3" d="M75.9,295.2h510.9c0,0-32.6-71.7-52.5-77.7c-19.9-6.1-66.8,4.4-72.6,0.5c-5.8-3.9-32.1-75.3-41.8-81.7
				c-9.6-6.4-173.8,31.1-183.2,44.3c-7.5,10.5-31,45.9-42.1,51.2c-11.1,5.2-67.7-10.4-78.3-6.9C105.5,228.3,75.9,295.2,75.9,295.2z"
				/>
			<path class="st4" d="M534.2,217.4c-3-0.9-6.6-1.4-10.6-1.7c8.1,17.2,9.7,34.9-7.5,48.5c-28.6,20.9-63.8,14.3-90.5-5.5
				c-41-31.8-83.8-12.1-125.7-3.3c-18.1,3.3-45.7-2.2-42.9-23.1c4.9-49.2,46.3-67,85.6-84.7c-47.8,10.6-100.8,25.5-106,32.8
				c-7.5,10.5-31,45.9-42.1,51.2c-11.1,5.2-67.7-10.4-78.3-6.9c-10.7,3.5-40.3,70.3-40.3,70.3h510.9
				C586.8,295.2,554.2,223.5,534.2,217.4z"/>
			<g>
				<g>
					<g>
						<path class="st0" d="M141.3,231.2c0.5-0.1,1,0,1.5,0.1c0.5,0.1,1,0.2,1.5,0.4c0.6,0.3,0.7,0.7,0.4,1c-0.1,0.1-0.3,0.2-0.6,0.2
							c-0.5,0.1-1,0-1.5-0.1c-0.5-0.1-1-0.2-1.5-0.4c-0.6-0.3-0.7-0.7-0.4-1C140.8,231.3,141.1,231.3,141.3,231.2z"/>
					</g>
					<g>
						<path class="st0" d="M146.9,232.2c0.5-0.1,1,0,1.5,0.1c0.5,0.1,1,0.2,1.5,0.4c0.5,0.3,0.7,0.7,0.4,1c-0.1,0.1-0.3,0.2-0.6,0.2
							c-0.5,0.1-1,0-1.5-0.1c-0.5-0.1-1-0.2-1.5-0.4c-0.5-0.3-0.7-0.7-0.4-1C146.5,232.3,146.7,232.2,146.9,232.2z"/>
					</g>
					<g>
						<path class="st0" d="M152.5,233.1c0.5-0.1,1,0,1.5,0.1c0.5,0.1,1,0.2,1.5,0.4c0.5,0.3,0.7,0.7,0.4,1c-0.1,0.1-0.3,0.2-0.6,0.2
							c-0.5,0.1-1,0-1.5-0.1c-0.5-0.1-1-0.2-1.5-0.4c-0.5-0.3-0.7-0.7-0.4-1C152.1,233.2,152.3,233.2,152.5,233.1z"/>
					</g>
					<g>
						<path class="st0" d="M162.4,234.8c0.5-0.1,1,0,1.5,0c0.5,0.1,1,0.2,1.5,0.4c0.6,0.3,0.7,0.7,0.4,1c-0.1,0.1-0.3,0.2-0.6,0.2
							c-0.5,0.1-1,0-1.5,0c-0.5-0.1-1-0.2-1.5-0.4c-0.6-0.3-0.7-0.7-0.4-1C162,234.9,162.2,234.8,162.4,234.8z"/>
					</g>
					<g>
						<path class="st0" d="M169.5,235.8c0.3-0.1,0.6-0.1,0.9-0.1c0.3,0.1,0.6,0.1,0.9,0.3c0.6,0.3,0.6,0.9,0.1,1.2
							c-0.1,0-0.1,0.1-0.2,0.1c-0.3,0.1-0.6,0.1-0.9,0.1c-0.3-0.1-0.6-0.1-0.9-0.3c-0.6-0.4-0.6-0.9-0.1-1.2
							C169.4,235.8,169.5,235.8,169.5,235.8z"/>
					</g>
					<g>
						<path class="st0" d="M175.5,236.3c0.3-0.1,0.6-0.1,0.9-0.2c0.3,0,0.6,0,0.9,0.2c0.6,0.3,0.7,0.8,0.2,1.2
							c-0.1,0-0.1,0.1-0.2,0.1c-0.3,0.2-0.6,0.2-0.9,0.2c-0.3,0-0.6,0-0.9-0.2c-0.6-0.3-0.6-0.8-0.2-1.2
							C175.4,236.4,175.5,236.4,175.5,236.3z"/>
					</g>
				</g>
				<g>
					<g>
						<path class="st0" d="M99,257.1c2.1-4.2,4.3-8.3,6.7-12.3c2.4-4,4.8-8,7.7-11.5c0.4-0.4,0.8-0.9,1.2-1.3
							c0.4-0.4,0.8-0.8,1.3-1.2c0.5-0.3,0.9-0.8,1.5-1c0.6-0.3,1.1-0.4,1.7-0.5c2.2-0.3,4.3-0.2,6.4-0.1c4.2,0.3,8.4,1,12.5,1.7
							c0.6,0.1,1,0.5,0.9,0.8c-0.1,0.3-0.5,0.5-1.1,0.5c-4.1-0.6-8.3-1.1-12.4-1.4c-2.1-0.1-4.1-0.2-6.1,0.1c-1,0.1-1.7,0.5-2.5,1.2
							c-0.4,0.4-0.8,0.7-1.1,1.1c-0.4,0.4-0.7,0.8-1.1,1.2c-2.8,3.4-5.2,7.4-7.6,11.3c-2.4,3.9-4.6,8-6.8,12.1
							c-0.3,0.6-0.8,0.9-1,0.7C98.7,258.2,98.8,257.6,99,257.1z"/>
					</g>
					<g>
						<path class="st0" d="M98.4,260.5c-0.1,0.5-0.3,0.9-0.5,1.3c-0.2,0.4-0.5,0.8-0.8,1.2c-0.4,0.5-0.9,0.4-1-0.1
							c0-0.2,0-0.4,0-0.6c0.1-0.5,0.3-0.9,0.5-1.3c0.2-0.4,0.5-0.8,0.8-1.2c0.5-0.5,0.9-0.4,1,0.1C98.4,260.1,98.4,260.3,98.4,260.5
							z"/>
					</g>
					<g>
						<path class="st0" d="M95.9,265.3c-0.1,0.5-0.3,0.9-0.5,1.3c-0.2,0.4-0.4,0.8-0.8,1.2c-0.4,0.5-0.9,0.4-1-0.1
							c0-0.2,0-0.4,0-0.6c0.1-0.5,0.3-0.9,0.5-1.3c0.2-0.4,0.4-0.8,0.8-1.2c0.4-0.5,0.9-0.4,1,0.1C96,264.9,96,265.1,95.9,265.3z"/>
					</g>
					<g>
						<path class="st0" d="M93.5,270c-0.7,1.8-1.6,3.5-2.4,5.2c-0.8,1.7-1.7,3.4-2.6,5.1c-0.3,0.6-0.8,0.8-1,0.6
							c-0.2-0.2-0.2-0.7,0-1.2c0.7-1.8,1.5-3.5,2.3-5.2c0.8-1.7,1.7-3.4,2.7-5c0.3-0.6,0.8-0.8,1-0.5
							C93.8,269.1,93.7,269.6,93.5,270z"/>
					</g>
					<g>
						<path class="st0" d="M86.5,284.7c0,0.3-0.1,0.6-0.2,0.9c-0.1,0.2-0.3,0.5-0.5,0.7c-0.5,0.4-1,0.2-1-0.6c0,0,0,0,0,0
							c0-0.3,0.1-0.6,0.2-0.9c0.1-0.2,0.3-0.5,0.5-0.7C86,283.6,86.5,283.9,86.5,284.7C86.5,284.6,86.5,284.6,86.5,284.7z"/>
					</g>
					<g>
						<path class="st0" d="M84.1,289.9c0,0.3-0.1,0.6-0.2,0.9c-0.1,0.2-0.3,0.5-0.5,0.7c-0.5,0.4-1,0.2-1-0.6c0,0,0,0,0,0
							c0-0.3,0.1-0.6,0.2-0.9c0.1-0.2,0.3-0.5,0.5-0.7C83.6,288.8,84.1,289.1,84.1,289.9C84.1,289.8,84.1,289.8,84.1,289.9z"/>
					</g>
				</g>
			</g>
			<path class="st5" d="M577.6,295.2c0,0-27.6-65.6-46.6-71.2c-19-5.7-66.4,5.1-71.9,1.5c-5.5-3.6-33.5-74.5-42.7-80.4
				c-9.2-6-165.3,28.7-174.8,40.4c-7.7,9.5-30.2,50.3-40.9,54.9c-14.6,6.2-69.8-8.5-80-5.3c-10.2,3.2-34.3,60.2-34.3,60.2"/>
			<g>
				<g>
					<g>
						<path class="st0" d="M532,220.3c0.5,0.1,1,0.3,1.4,0.5c0.5,0.2,0.9,0.4,1.4,0.7c0.5,0.4,0.6,0.8,0.2,0.9c-0.1,0-0.3,0-0.5-0.1
							c-0.5-0.1-1-0.3-1.4-0.5c-0.5-0.2-0.9-0.4-1.3-0.7c-0.5-0.3-0.7-0.7-0.3-0.8C531.6,220.3,531.8,220.3,532,220.3z"/>
					</g>
					<g>
						<path class="st0" d="M537.2,223c0.5,0.2,1,0.4,1.4,0.7c0.4,0.3,0.8,0.7,1.2,1.1c0.4,0.5,0.5,0.9,0.1,0.9
							c-0.1,0-0.3-0.1-0.5-0.2c-0.5-0.2-0.9-0.5-1.3-0.8c-0.4-0.4-0.8-0.6-1.2-0.9c-0.5-0.4-0.6-0.8-0.2-0.8
							C536.8,222.9,537,222.9,537.2,223z"/>
					</g>
					<g>
						<path class="st0" d="M542,226.6c0.4,0.3,0.8,0.7,1.2,1c0.4,0.4,0.8,0.8,1.1,1.2c0.4,0.5,0.4,0.9,0,0.9c-0.1,0-0.3-0.1-0.5-0.2
							c-0.4-0.3-0.8-0.6-1.2-1c-0.4-0.4-0.7-0.7-1.1-1.2c-0.4-0.5-0.4-0.9-0.1-0.9C541.6,226.4,541.8,226.4,542,226.6z"/>
					</g>
					<g>
						<path class="st0" d="M549.3,234.7c0.4,0.4,0.7,0.8,1,1.2c0.3,0.4,0.6,0.9,0.9,1.4c0.3,0.6,0.2,1-0.1,0.9
							c-0.1-0.1-0.3-0.2-0.5-0.3c-0.4-0.4-0.7-0.8-1-1.2c-0.3-0.4-0.6-0.9-0.9-1.4c-0.3-0.6-0.3-1,0.1-0.9
							C548.9,234.4,549.1,234.5,549.3,234.7z"/>
					</g>
					<g>
						<path class="st0" d="M553.7,241.1c0.2,0.2,0.4,0.5,0.6,0.8c0.2,0.3,0.3,0.6,0.5,0.9c0.2,0.7,0,0.9-0.4,0.6
							c-0.1,0-0.1-0.1-0.2-0.1c-0.2-0.2-0.4-0.5-0.6-0.8c-0.2-0.3-0.3-0.6-0.4-0.9c-0.2-0.6,0-0.9,0.4-0.6
							C553.6,241,553.6,241.1,553.7,241.1z"/>
					</g>
					<g>
						<path class="st0" d="M557.1,246.9c0.2,0.2,0.4,0.5,0.6,0.8c0.2,0.3,0.3,0.6,0.4,0.9c0.2,0.7,0,0.9-0.5,0.6
							c-0.1,0-0.1-0.1-0.2-0.1c-0.2-0.2-0.4-0.5-0.6-0.8c-0.2-0.3-0.3-0.6-0.4-0.9c-0.2-0.7,0-0.9,0.5-0.6
							C557,246.8,557,246.8,557.1,246.9z"/>
					</g>
				</g>
				<g>
					<g>
						<path class="st0" d="M478.8,220.9l12.4-1.1l12.4-1c4.1-0.3,8.3-0.6,12.5-0.7c4.2,0,8.4,0.2,12.5,1.3c0.6,0.2,1,0.5,0.9,0.7
							c-0.1,0.2-0.5,0.3-1.1,0.1c-4-1-8.2-1.2-12.3-1.1c-4.1,0.1-8.3,0.4-12.4,0.8l-12.4,0.9l-12.4,0.9c-0.6,0-1-0.1-1-0.4
							C477.8,221.1,478.3,220.9,478.8,220.9z"/>
					</g>
					<g>
						<path class="st0" d="M476,221.9c-0.4,0.1-0.8,0.2-1.2,0.2c-0.4,0-0.8,0-1.3,0c-0.6-0.1-0.8-0.4-0.5-0.6
							c0.1-0.1,0.3-0.2,0.4-0.2c0.4-0.1,0.8-0.2,1.2-0.2c0.4,0,0.8,0,1.3,0c0.6,0.1,0.8,0.4,0.5,0.6
							C476.3,221.7,476.1,221.8,476,221.9z"/>
					</g>
					<g>
						<path class="st0" d="M471.2,222.2c-0.4,0.1-0.8,0.2-1.2,0.2c-0.4,0-0.8,0-1.3-0.1c-0.6-0.1-0.8-0.4-0.5-0.7
							c0.1-0.1,0.3-0.1,0.4-0.2c0.4-0.1,0.8-0.2,1.2-0.2c0.4,0,0.8,0,1.3,0c0.6,0.1,0.8,0.4,0.5,0.6
							C471.5,222.1,471.4,222.2,471.2,222.2z"/>
					</g>
					<g>
						<path class="st0" d="M466.4,222.4c-1.7,0.1-3.4,0.2-5.2-0.4c-0.4-0.2-0.9-0.3-1.3-0.7c-0.2-0.1-0.4-0.3-0.5-0.5
							c-0.2-0.2-0.3-0.3-0.5-0.5c-0.6-0.7-1.1-1.5-1.6-2.4c-0.3-0.6-0.4-1.1-0.2-1.1c0.2,0,0.5,0.2,0.8,0.6c0.5,0.8,1.1,1.5,1.6,2.1
							c0.1,0.2,0.3,0.3,0.4,0.5c0.1,0.1,0.3,0.3,0.4,0.4c0.2,0.1,0.3,0.2,0.5,0.3c0.2,0.1,0.4,0.2,0.5,0.2c1.5,0.5,3.2,0.5,4.9,0.6
							c0.6,0,1,0.2,0.9,0.5C467.3,222.2,466.9,222.4,466.4,222.4z"/>
					</g>
					<g>
						<path class="st0" d="M455.1,213.8c-0.2-0.2-0.3-0.4-0.5-0.7c-0.1-0.3-0.2-0.5-0.3-0.8c-0.1-0.7,0.2-0.9,0.6-0.4l0,0
							c0.2,0.2,0.3,0.4,0.5,0.7c0.1,0.3,0.2,0.5,0.3,0.8C455.8,214.1,455.6,214.3,455.1,213.8L455.1,213.8z"/>
					</g>
					<g>
						<path class="st0" d="M452.6,208.7c-0.2-0.2-0.3-0.5-0.4-0.7c-0.1-0.3-0.2-0.5-0.2-0.8c-0.1-0.7,0.2-0.9,0.6-0.4l0,0
							c0.2,0.2,0.3,0.5,0.4,0.7c0.1,0.3,0.2,0.5,0.3,0.8C453.3,209,453,209.2,452.6,208.7L452.6,208.7z"/>
					</g>
				</g>
			</g>
		</g>
		<g>
			<path class="st6" d="M563.4,308.6c0,2.9-17.9,5.2-40,5.2s-40-2.3-40-5.2c0-2.9,17.9-5.2,40-5.2S563.4,305.8,563.4,308.6z"/>
			<path class="st6" d="M239.6,306.8h70.2c0.2,0,0.4,0,0.6,0l82.8-13.9c0.5-0.1,1-0.1,1.4,0.1l67.1,16.8c3,0.8,3.6,4.7,1,6.4
				l-19.9,12.6c-0.6,0.4-1.2,0.5-1.9,0.5H197.3c-3.9,0-4.9-5.5-1.2-6.8l42.3-15.4C238.8,306.9,239.2,306.8,239.6,306.8z"/>
		</g>
		<g>
			<g>
				<path class="st7" d="M426.6,229.5c6.8-4.6,16.8-67.2,15.1-74.4c-2.7-11.7-54.9-13.9-56.7,2.2c-4.2,37.1-15.5,61-12.4,68.2
					C377.4,236.6,422.7,232.1,426.6,229.5z"/>
				<path class="st8" d="M419.9,229.5c5.9-4.6,17.2-74.1,14.8-79.5c-2.3-5-50.1-7.9-51.7,8.3c-3.7,37.1-13.2,60.1-10.4,67.3
					C376.7,236.6,416.5,232.1,419.9,229.5z"/>
				<path class="st9" d="M426.2,162.6c1.2-12.6-12.1-17.6-24.6-15.8c-9.7,1.4-18,4.9-18.6,11.4c-3.7,37.1-12.4,58-9.7,65.2
					c2.2,5.7,32.4,6.6,38.8,0.8C417.8,219.1,424.1,185.7,426.2,162.6z"/>
			</g>
			<g>
				<path class="st10" d="M360.1,303.1c0,2.3-1.8,4.1-4.1,4.1c-2.3,0-4.1-1.8-4.1-4.1c0-2.3,1.8-4.1,4.1-4.1
					C358.3,299,360.1,300.8,360.1,303.1z"/>
				<path class="st10" d="M428.6,303.1c0,2.3-1.8,4.1-4.1,4.1c-2.3,0-4.1-1.8-4.1-4.1c0-2.3,1.8-4.1,4.1-4.1
					C426.8,299,428.6,300.8,428.6,303.1z"/>
				<circle class="st10" cx="385.1" cy="307.7" r="4.1"/>
				<path class="st10" d="M401.5,298c0,2.3-1.8,4.1-4.1,4.1c-2.3,0-4.1-1.8-4.1-4.1s1.8-4.1,4.1-4.1
					C399.7,293.9,401.5,295.7,401.5,298z"/>
				<path class="st11" d="M391.6,284.3h-2.5c-4.9,0-8.8,4.3-8.8,9.6v1.9c0,2.6,20.1,2.6,20.1,0V294
					C400.4,288.6,396.4,284.3,391.6,284.3z"/>
				<g>
					<path class="st12" d="M365.8,265.4c-2.2,0.7-2.9-1.4-0.6-2.1l12.4-3.8l3.1-12.2l2.1,0.5l-3.4,13.4L365.8,265.4z"/>
				</g>
				<path class="st13" d="M393.9,285c0,1.3-7.2,1.3-7.2,0v-39.8h7.2V285z"/>
				<path class="st11" d="M395,250.6h-9.4c-6.6,0-11.9-5.3-11.9-11.9v-1.5c0-2.2,1.7-3.9,3.9-3.9H403c2.2,0,3.9,1.7,3.9,3.9v1.5
					C406.9,245.3,401.6,250.6,395,250.6z"/>
				<path class="st8" d="M349.8,226c0-4.4,77.7-4.4,77.7,0c0,0,4.1,17.7-38.8,17.7S349.8,226,349.8,226z"/>
				<path class="st9" d="M350.8,224.4c0-2.2,66.1-2.2,66.1,0c0,0,3.5,8.8-33,8.8C347.4,233.2,350.8,224.4,350.8,224.4z"/>
				<path class="st11" d="M383.1,287.8l-27.6,6.1c-2.1,0.5-3.6,2.3-3.6,4.5v1.8l29.8-3.2L383.1,287.8z"/>
				<path class="st11" d="M397.4,287.8l27.6,6.1c2.1,0.5,3.6,2.3,3.6,4.5v1.8l-29.8-3.2L397.4,287.8z"/>
				<path class="st11" d="M388.7,288.5c-4.3,0-7.2,12.5-7.2,15.7c0,2.3,2.5,5.3,6.3,1.4c2.7-2.7,6.5-8,6.5-8
					S395.4,288.5,388.7,288.5z"/>
			</g>
		</g>
		<g>
			<g>
				<path class="st14" d="M358.4,179.4c-10.7,4.3-29.8,10.5-29.8,10.5c-1.4,0.4,0.8,6.4,2.2,6c0,0,16.4-1.9,29.3-5
					C362.5,186.5,363.5,183.1,358.4,179.4z"/>
				<path class="st15" d="M386.4,143.6c-0.2-5.9-10.9-16.3-16.5-5.6c-5.3,10.1-1.2,33.8-4.3,36c-0.8,0.6-9.1,4.5-8.8,6.1
					c0.1,0.5,2.9,1.4,4,5.5c0.9,3.5-1,5.5-0.7,6.1c0.2,1.1,13.4-3.2,15.8-5.8C382.7,178.7,386.6,149.5,386.4,143.6z"/>
				<path class="st14" d="M331.8,189c-4.1,0.3-8.9-0.9-14.3-1.3c-2.1,0.1-5,0.7-5.9,1c-1.1,0.4-3.9,3.2-3.8,4
					c1.1,1.6,4.1-1.1,5.1-1.7c0.4-0.2,1.2-0.2,2.1-0.2c-1.3,0.8-2.5,1.6-2.8,1.9c-0.8,0.9-2,4.6-1.6,5.3c1.7,0.9,3.1-2.8,3.8-3.8
					c0.1-0.1,0.3-0.3,0.5-0.5c-0.7,1.8-1.4,4.2-1.1,4.6c1.7,0.9,3.6-3.2,4.2-4.1c0.1-0.1,0.2-0.2,0.4-0.4c0.1,0.1,0.2,0.2,0.2,0.3
					c-0.7,1.8-1.2,3.8-1,4.2c1.2,0.6,2.5-1.2,3.4-2.7c0.2,0.1,0.4,0.2,0.7,0.2c3.6,1,9.6,1.5,12.8-0.6
					C336.4,194.5,333.8,188.9,331.8,189z"/>
			</g>
			<g>
				<path class="st16" d="M387.7,126.9c0,0-13.2,4.4-14.9,8c-1.8,3.6,1.8,10-0.1,14.7c-7.3,18.4,3.1,22.8,3.1,22.8
					c4.4,13.1-1.2,21.8-1.4,33c-1.9,3.1,47.2,15.6,46.1,6c-1.6-13.6-8.1-23.2-6.5-33.3c1.6-10.1,8.5-27.8,4-37.5
					C413.4,130.9,398,124.9,387.7,126.9z"/>
				<path class="st17" d="M416.3,194.5c-1-3.4-2-6.6-2.4-9.7c-2.5-14.9-4.1-23.8-7-22.3c-3,1.5-4,10.8-5.8,12.6
					c-2,2.1-17.8,16.8-25.2,18.3c0,0,0,0,0,0.1c-0.8,3.9,2.3,7.5,6.2,7.3C394,200.2,405.2,197.9,416.3,194.5z"/>
			</g>
			<g>
				<g>
					<g>
						<g>
							<defs>
								<path id="SVGID_1_" d="M306.6,272.6c0,0,0,4.4-0.7,5c-2.1,1.6-3.2,2.8-4.4,5.6c-0.6,0-1.4-0.2-1.8-0.6l1.1-4.6
									c0,0-4.8,2.4-7.1,2.4c-2.7,0-10.5-2.8-11.3-4.1c0,0,0-3,3.3-2.6c8.4,0.9,14-6.1,14-6.1C302.7,264.6,306.3,268.2,306.6,272.6
									z"/>
							</defs>
							<use xlink:href="#SVGID_1_"  style="overflow:visible;fill:#DD4026;"/>
							<clipPath id="SVGID_00000027577201152851222210000000861351103734786186_">
								<use xlink:href="#SVGID_1_"  style="overflow:visible;"/>
							</clipPath>
							<path style="clip-path:url(#SVGID_00000027577201152851222210000000861351103734786186_);fill:#B22714;" d="M281.9,275.5
								c0.2,0.1,8.4,4.4,11.2,4.1c2.8-0.3,6.8-2.7,7.6-2.6c0.8,0.2,5.2,0.5,5.2,0.5l-3.8,8.4l-21.8-5.4L281.9,275.5z"/>
						</g>
						<path class="st3" d="M290.9,273.3l0.6,1.5c0,0,1.9,0,2.9-0.9l-0.5-1.5c-0.1-0.3-0.4-0.4-0.7-0.4l-2.1,0.6
							C290.9,272.7,290.8,273,290.9,273.3z"/>
					</g>
					<path class="st19" d="M334,205.2c-6,3.9-34.4,62.4-34.4,62.4c-0.9,1.3,6.3,5.9,7.2,4.6c0,0,31.9-36.2,37.1-45.9
						c1.5-2.8,32,7.2,54.6,5.4c23.7-1.9,26.7-18,20.7-28C416,198.6,340,201.2,334,205.2z"/>
				</g>
				<path class="st12" d="M344.6,221.1c2.5-0.1,9.1-2.9,9-3.8c-0.1-0.7-6.3,2.3-6.3,2.3s7.8-4,6.8-5.7c-0.5-0.9-3.8,3.5-9.4,6.3
					C344.6,220.2,343.1,221.2,344.6,221.1z"/>
			</g>
			<g>
				<g>
					<g>
						<defs>
							<path id="SVGID_00000100379338865594136550000013777648924798637245_" d="M332.9,299.1c0,0,1.7,4.1,1.3,4.9
								c-1.3,2.3-1.9,3.8-1.9,6.8c-0.6,0.3-1.4,0.3-1.9,0.1l-0.7-4.7c0,0-3.5,4-5.6,4.9c-2.5,1.1-10.8,1.4-12,0.5
								c0,0-1.1-2.8,2.1-3.7c8.1-2.4,10.7-10.9,10.7-10.9C326.2,293.1,330.9,295.2,332.9,299.1z"/>
						</defs>
						<use xlink:href="#SVGID_00000100379338865594136550000013777648924798637245_"  style="overflow:visible;fill:#DD4026;"/>
						<clipPath id="SVGID_00000040552890820663031930000012989936459661624195_">
							<use xlink:href="#SVGID_00000100379338865594136550000013777648924798637245_"  style="overflow:visible;"/>
						</clipPath>
						<path style="clip-path:url(#SVGID_00000040552890820663031930000012989936459661624195_);fill:#B22714;" d="M311.1,311.2
							c0.2,0,9.4,0.9,12-0.4c2.5-1.3,5.2-5.1,6-5.2c0.8-0.1,5-1.5,5-1.5l-0.3,9.2l-22.3,3.3L311.1,311.2z"/>
					</g>
					<path class="st3" d="M318.6,305.7l1.2,1.1c0,0,1.7-0.7,2.4-1.9l-1-1.3c-0.2-0.2-0.5-0.3-0.7-0.1l-1.7,1.4
						C318.4,305.1,318.4,305.5,318.6,305.7z"/>
				</g>
				<path class="st12" d="M344.3,220.3c-18,13.8-14.6,42-20.1,77c-0.2,2.4,7.4,3.6,8.8,0.5c0,0,6.1-14.8,10-26
					c2.1-5.8,10.9-24.1,12.1-35.6C356.3,225.8,354.1,222.5,344.3,220.3z"/>
			</g>
			<g>
				<path class="st14" d="M395.9,183.4c-11.6,3.6-30.9,8.4-30.9,8.4c-1.4,0.4,0.4,7.1,1.8,6.7c0,0,17.2-0.7,31.1-3.3
					C399.5,190.9,399.9,187.1,395.9,183.4z"/>
				<path class="st14" d="M365.6,191.7c-3.4-0.2-6.2-0.7-10.4-2.3c0,0-8.7-1.1-10-0.9c-1.4,0.2-5.2,2.6-5.4,3.5
					c0.9,2,4.9-0.2,6.1-0.6c0.5-0.1,1.6,0.1,2.7,0.4c-1.7,0.3-3.6,0.6-4.2,1c-1.2,0.7-3.7,4.5-3.5,5.4c1.6,1.5,4-1.8,5-2.7
					c0.2-0.2,0.6-0.3,1.2-0.5c0,0-0.1,0-0.1,0c-1.2,0.7-3.7,4.5-3.5,5.4c1.6,1.5,4-1.8,5-2.7c0.2-0.2,0.7-0.4,1.4-0.5
					c-1,1.1-2.4,3.3-2.2,3.8c1.3,1.3,3.3-1.5,4.1-2.2c0.3-0.2,1.1-0.4,1.9-0.6c0.2,0.1,0.4,0.2,0.7,0.4c3.1,1.4,9.2,1.6,12.3,0.1
					C368.6,198.3,367.5,191.8,365.6,191.7z"/>
				<path class="st21" d="M419.4,145.1c-0.2-5.9-8.2-16.3-13.8-5.7c-5.3,10.1,0.9,34.8-2.3,37c-0.9,0.6-9.8,6.2-9.4,7.4
					c0.2,0.7,3.6,1.5,3.9,5.5c0.4,3.9-1.2,6-0.6,6.5c0.6,0.4,15.5-3.6,18-6.2C422,182.5,419.6,151,419.4,145.1z"/>
				<path class="st15" d="M405.3,175.9c2.4-0.5,9.4,0.5,9.6,1.4c0.1,0.7-6.6-0.6-6.6-0.6s8.5,2,8,3.7c-0.3,1-4.6-2.4-10.7-3.7
					C405.6,176.6,403.9,176.1,405.3,175.9z"/>
			</g>
			<g>
				<path class="st22" d="M410.6,116.4c-1.1,9-36.9,13.1-39.5,1.6c-3.7-16.7,4.1-31.1,18.2-31.2C405.8,86.8,412,105.4,410.6,116.4z"
					/>
				<g>
					<g>
						<path class="st23" d="M379.5,108.1c-0.1,3.3-1,6-4.1,5.9c-2.2-0.1-3.9-2.8-3.8-6.2c0.1-3.3,1.9-6,4.1-5.9
							C378.8,102,379.6,104.7,379.5,108.1z"/>
						<path class="st23" d="M373.3,111.9c0,0-4.8,7.1-3.7,9.8c1.1,2.8,6.7,2.3,6.7,2.3l0-0.8c0,0-4.9,0.4-5.9-2
							c-0.8-1.9,3.5-8.9,3.5-8.9L373.3,111.9z"/>
						<path class="st11" d="M379.6,123.9c0,0.9-1.2,1.5-2.6,1.5c-1.4,0-2.5-0.8-2.5-1.6c0-0.9,1.2-1.5,2.6-1.5
							C378.5,122.3,379.7,123,379.6,123.9z"/>
						<path class="st10" d="M380.4,107.8c-0.1,2.8-1.6,5-3.4,4.9c-1.8,0-3.2-2.3-3.2-5.1c0.1-2.8,1.6-5,3.4-4.9
							C379.1,102.8,380.5,105.1,380.4,107.8z"/>
						
							<ellipse transform="matrix(2.600870e-02 -0.9997 0.9997 2.600870e-02 259.8121 482.1989)" class="st24" cx="377.4" cy="107.8" rx="4" ry="2.7"/>
					</g>
					<path class="st14" d="M392,111.3c0,0,0.6,5.3,2.4,9.4c1.8,4.1,4.3,5.4,5.9,7.6c2.7,3.9-14.6,13.9-15.3,14.1
						c0,0-7.2-8.6-5.1-11.5c2.3-3.2,5-4.5,3.7-10.3c-1.1-5-1.8-7.8-1.8-7.8L392,111.3z"/>
					<path class="st25" d="M380.6,129.5c-0.1,1,0,2.1,0.5,2.9c0.5,0.8,1.3,1.4,2.3,1.7c0.9,0.3,2,0.5,3,0.4c1,0,2.1-0.1,3.1-0.4
						c2-0.4,3.9-1.3,5.7-2.5c0.9-0.6,1.6-1.3,2.4-2.1c0.7-0.8,1.3-1.6,1.8-2.5l0,0c0.1-0.1,0.2-0.2,0.3-0.1c0.1,0,0.1,0.2,0.1,0.3
						c-0.7,2.1-2.3,3.8-4,5.2c-1.8,1.3-3.8,2.3-6,2.8c-1.1,0.2-2.2,0.4-3.3,0.3c-1.1,0-2.2-0.2-3.3-0.6c-1.1-0.4-2.1-1.2-2.6-2.3
						c-0.5-1.1-0.6-2.3-0.3-3.4c0-0.1,0.2-0.2,0.3-0.2C380.6,129.2,380.7,129.3,380.6,129.5L380.6,129.5z"/>
					<path class="st25" d="M380.8,129.5c-0.5,1.5-0.6,3.2-0.6,4.8c0,1.6,0.2,3.3,0.6,4.9c0.4,1.6,0.9,3.1,1.6,4.6
						c0.3,0.8,0.7,1.5,1.1,2.2c0.4,0.7,0.8,1.4,1.2,2.1L384,148c1.6-1.4,3.2-3,4.8-4.5c1.5-1.6,3-3.2,4.4-4.9
						c1.4-1.7,2.7-3.5,3.8-5.4c1.1-1.9,2.1-3.9,2.6-6l0,0c0-0.1,0.2-0.2,0.3-0.2c0.1,0,0.2,0.1,0.2,0.3c-0.5,2.2-1.3,4.3-2.4,6.3
						c-1.1,2-2.3,3.8-3.7,5.6c-1.4,1.8-2.9,3.4-4.4,5.1c-1.5,1.6-3.1,3.2-4.9,4.6l0,0c-0.2,0.2-0.5,0.2-0.7-0.1c0,0,0,0-0.1-0.1
						c-0.4-0.7-0.9-1.5-1.3-2.2c-0.4-0.8-0.8-1.5-1.1-2.3c-0.7-1.6-1.2-3.2-1.5-4.8c-0.3-1.7-0.5-3.4-0.4-5.1c0.1-1.7,0.3-3.4,0.9-5
						c0-0.1,0.2-0.2,0.3-0.1C380.8,129.3,380.9,129.4,380.8,129.5L380.8,129.5z"/>
					<path class="st25" d="M385.6,151.4c-0.3,2-1.5,3.5-2.5,3.3c-1.1-0.2-1.7-1.9-1.4-3.9c0.3-2,1.5-3.5,2.5-3.3
						C385.3,147.7,385.9,149.4,385.6,151.4z"/>
					<path class="st1" d="M385,151.3c-0.2,1.4-1,2.4-1.8,2.3c-0.7-0.1-1.2-1.3-0.9-2.7c0.2-1.4,1-2.4,1.8-2.3
						C384.8,148.7,385.2,149.9,385,151.3z"/>
					<g>
						<g>
							<g>
								<path class="st26" d="M392,111.8c0,0-1.9,10.8-12.1,9.6c-5.1-0.6-7.2-10.6-5.2-13.8c0,0-2.5-5.7-0.2-10.8
									c2.5-5.4,10.3-6.6,17.3-4.2c0,0,2,3.4,0.8,12c0,0,1.4-1.5,3.3-0.3c1.5,0.9,1.6,2.9,1,4.8C396.3,111.4,393.9,113.2,392,111.8
									z"/>
								<path class="st27" d="M392.8,111l0.8-2l-1.3-0.6c0,0,1-3.8,3.1-2.3C397.1,107.4,394.9,111.9,392.8,111z"/>
							</g>
							<g>
								<g>
									<g>
										<path class="st0" d="M378.6,114.6c0,0,2.5-1,6.1-0.9C383.9,116.5,378.9,117.7,378.6,114.6z"/>
										<path class="st28" d="M378.1,114.3c0.1-0.1,0.1-0.1,0.2-0.2c0.1-0.1,0.1,0,0.1,0l0.1,0l0.1,0l0.2,0l0.4-0.1
											c0.3-0.1,0.5-0.1,0.8-0.1c0.5-0.1,1-0.2,1.6-0.2c1.1-0.1,2.1-0.1,3.2-0.1c0.1,0,0.3,0.1,0.2,0.3c0,0,0,0,0,0.1
											c-0.2,0.7-0.7,1.4-1.2,1.8c-0.6,0.5-1.2,0.8-1.9,1c-0.7,0.2-1.5,0.3-2.3,0c-0.4-0.1-0.7-0.4-1-0.7
											c-0.1-0.2-0.2-0.4-0.3-0.6C378.1,114.9,378.1,114.6,378.1,114.3z M379,114.9c0.1,0.1,0.1,0,0.1,0.1l0.1,0.4
											c0.1,0.2,0.3,0.4,0.6,0.5c0.5,0.3,1.2,0.3,1.8,0.2c1.2-0.3,2.5-1.1,2.8-2.4l0.2,0.3c-1,0-2,0.1-3,0.2
											c-0.5,0.1-1,0.2-1.5,0.3c-0.2,0.1-0.5,0.2-0.7,0.2C379.3,114.8,379.2,114.9,379,114.9l-0.1,0.1l-0.1,0l0,0c0,0-0.1,0,0,0
											C378.9,115,379,114.9,379,114.9z"/>
									</g>
									<g>
										<path class="st27" d="M384.7,113.7"/>
									</g>
									<g>
										<path class="st27" d="M378.6,114.6"/>
									</g>
								</g>
								<g>
									<path class="st12" d="M375.4,107.8c0,0.5,0.7,0.5,1.4,0.5c0.8,0,1.4-0.1,1.4-0.6c0-0.5-0.7-0.9-1.4-0.8
										C376,106.9,375.4,107.3,375.4,107.8z"/>
									<path class="st29" d="M374.3,105.7c0,0.1,0.9-1.1,2.2-1.5c1.2-0.3,2.1,0.8,2.2,0.5c0.2-0.2,0.4-0.8,0.4-0.8
										s-1.7-0.8-2.8-0.4C374.9,104.1,374.5,105.1,374.3,105.7z"/>
								</g>
								<g>
									<path class="st12" d="M382.9,107.2c0,0.5,0.7,0.5,1.4,0.5c0.8,0,1.4-0.1,1.4-0.6c0-0.5-0.7-0.9-1.4-0.8
										C383.5,106.3,382.9,106.8,382.9,107.2z"/>
									<path class="st29" d="M387.6,104.4c0,0.1-1.6-1.1-3-1.1c-0.9,0-2.6,1.2-2.9,1c-0.2-0.2-0.5-0.7-0.5-0.7s1.6-1.1,3.5-1
										C386.3,102.7,387.3,103.8,387.6,104.4z"/>
								</g>
								<g>
									<path class="st30" d="M379.6,112.8c0,0,1.8,0,1.8-0.5c0-0.5-3.7-1.2-4-0.8C377.2,111.8,378.8,112.5,379.6,112.8z"/>
									<path class="st27" d="M378.8,104.6c0,0,1.2,2.1,0.9,2.9c-0.3,0.8-2,3.5-2.1,3.9c-0.1,0.4,1.8,1.4,1.9,1.5
										c0.1,0.1-2.7-0.5-2.6-1.4c0.1-0.9,2.3-4,2.4-4.4C379.6,106.6,378.8,104.6,378.8,104.6z"/>
								</g>
							</g>
						</g>
					</g>
				</g>
				<path class="st22" d="M392.7,104.7c-4.7,0.7-15.5-9.5-16.8-9.2c-1.4,0.3-2.6,5-1.9,9.7c0,0-3.6-8.5,0.7-13.7
					c4.5-5.5,15.9-4.9,19.5,0.8c2.8,4.3,1.5,12,1.5,12S394.4,104.4,392.7,104.7z"/>
				<g>
					<g>
						<path class="st23" d="M397.1,107.4c-0.1,3.3-1,6-4.1,5.9c-2.2-0.1-3.9-2.8-3.8-6.2c0.1-3.3,1.9-6,4.1-5.9
							C396.4,101.3,397.2,104,397.1,107.4z"/>
						<path class="st10" d="M398,107.1c-0.1,2.8-1.6,5-3.4,4.9c-1.8,0-3.2-2.3-3.2-5.1c0.1-2.8,1.6-5,3.4-4.9
							C396.7,102.1,398.1,104.3,398,107.1z"/>
						<path class="st24" d="M397.6,107.1c-0.1,2.2-1.3,4-2.8,4c-1.5,0-2.6-1.9-2.5-4.1c0.1-2.2,1.3-4,2.8-4
							C396.5,103,397.7,104.9,397.6,107.1z"/>
					</g>
					<path class="st12" d="M392.4,101.9c0,0,0.6-10.9-9.9-11.2c-10.5-0.3-9.5,12.5-9.5,12.5l-0.8,1.3c0,0-2.7-14.4,10-15
						c12-0.5,11.4,11.9,11.4,11.9L392.4,101.9z"/>
				</g>
			</g>
		</g>
		<g>
			<path class="st31" d="M255.2,235.5L43.3,249.6C37.6,202,30.5,154.1,22.1,106L234,97.7L255.2,235.5z"/>
			<g>
				<path class="st32" d="M22.1,106L234,97.7L122.7,9.5c-2.1-1.4-4.8-1.2-6.7,0.5L22.1,106z"/>
				<g>
					<g>
						<path class="st1" d="M233.3,171.6L46,184c-1.4,0.1-2.6-0.9-2.8-2.3L24.5,49.7c-0.2-1.6,1-3,2.5-3l187.3-7.3
							c1.4-0.1,2.5,0.9,2.7,2.3l18.7,126.9C236,170.1,234.9,171.5,233.3,171.6z"/>
						<g>
							<g>
								<defs>
									
										<ellipse id="SVGID_00000098222372694962646320000010090773397625356703_" transform="matrix(0.6964 -0.7177 0.7177 0.6964 -34.6923 70.886)" cx="66.4" cy="76.4" rx="23" ry="24.4"/>
								</defs>
								<use xlink:href="#SVGID_00000098222372694962646320000010090773397625356703_"  style="overflow:visible;fill:#FFFFFF;"/>
								<clipPath id="SVGID_00000114072604738466827160000014410090223255450527_">
									<use xlink:href="#SVGID_00000098222372694962646320000010090773397625356703_"  style="overflow:visible;"/>
								</clipPath>
								<g style="clip-path:url(#SVGID_00000114072604738466827160000014410090223255450527_);">
									<path class="st34" d="M81.2,90.4c4.5,4.8,9.3,17,11.7,23.6c1.7,4.5-3.8,6.9-6.7,3c-3.5-4.7-8.4-14.4-11.9-21
										C72.2,91.5,76.6,85.4,81.2,90.4z"/>
									<path class="st35" d="M67.2,85.6c-0.6,0.4-10.7,3.3-12.6,8.5c-1,2.7,13.5,29.7,13.5,29.7s3.1,3.5,14.1-2.7
										c0,0,0.3-10.7,0.1-19.5c0-1.5-1.6-3.9-1.7-5.2c-0.2-3.6,1.1-5.3,0.6-6.1C79.2,87.5,67.2,85.6,67.2,85.6z"/>
									<path class="st36" d="M63.3,62.1c0,0,3.5,2.6,4.2,6.5c0.7,3.9,1.2,10.4,2.4,11.6c1.2,1.2,7.9,2.3,7.9,2.3s0-14.2-3.9-18.7
										C70.4,60,63.3,62.1,63.3,62.1z"/>
									<g>
										<path class="st0" d="M71.2,77.2c0.5,1.4,1.5,2.4,2.2,2.2c0.7-0.2,0.9-1.6,0.4-3c-0.3-1-0.9-1.7-1.5-2.1
											c-0.2-0.1-0.1-0.3,0.1-0.2c0.6,0.4,1.2,1.1,1.6,2.2c0.6,1.6,0.4,3-0.5,3.2c-0.8,0.3-1.9-0.8-2.5-2.3
											c-0.3-0.8-0.4-1.5-0.3-2.1c0,0,0.1,0.1,0.2,0.1C70.8,75.8,70.9,76.4,71.2,77.2z"/>
									</g>
									<path class="st36" d="M72.2,70.6c0.9,4.9-1.6,8.2-6.1,8.7c-5.8,0.7-8.9-3-9.8-7.8c-0.9-4.9,2.2-8.3,6.8-8.8
										C67.6,62.2,71,63.7,72.2,70.6z"/>
									<path class="st37" d="M61.9,76.9c0,0,2.4,8.8,1.1,10.2c-1.8,2-2.6,2-2.3,3.2c0.7,3.1,6.7,5.5,9.3,5c2.9-0.5,5.5-4,5-6.2
										c-0.3-1.4-1.5-1.3-5-3c-1-0.4-1.9-9.3-1.9-9.3L61.9,76.9z"/>
									<path class="st37" d="M71.5,69.2c-0.6-3.1-2.8-5.3-5.8-4.9c-2.2,0.3-7,1.5-4.8,6.4c0.4,0.9,0.5,1.7,0.5,2.4
										c-0.1-0.1-0.1-0.2-0.2-0.3c-0.4-0.5-1.6-1.7-2.6-0.9c-0.9,0.9,0,3.1,1.1,4c0.4,0.3,1.1,0.4,1.6,0.3c0,0,0,0.1,0,0.1
										c1,3,4.5,5.2,7.4,4.8c2.8-0.3,4.4-1.6,3.8-6C72.4,73.7,71.5,69.2,71.5,69.2z"/>
									<g>
										<g>
											<path class="st38" d="M65,71.8C65,71.8,65,71.8,65,71.8C64.9,71.8,64.9,71.8,65,71.8L65,71.8z"/>
										</g>
									</g>
									<path class="st36" d="M69.6,65.5c0.9,0.7,2.4,3.8,2.4,3.8s2.9-9.1-5.8-9c-6.9,0.1-8.5,4.1-7.6,7.3c0.8,3,3.5,6.4,3.5,6.4
										s0.2-0.6,0.1-2.7C62,69.1,67.7,64.1,69.6,65.5z"/>
									<g>
										<path class="st27" d="M60.3,74.7l0.8-0.4c0,0-0.3-0.7-0.5-1c-0.3-0.3-1.1-1.2-1.7-0.6c-0.5,0.6,0.1,2.2,0.9,2.7
											c0.5,0.3,0.7,0,0.7,0L60.3,74.7z"/>
									</g>
									<path class="st12" d="M58.1,67.3l2.8,1.3c0.1,0.1,0.3,0,0.3-0.1l0.4-0.8c0.1-0.1,0-0.3-0.1-0.3l-2.8-1.3
										c-0.1-0.1-0.3,0-0.3,0.1L58,67C58,67.1,58,67.2,58.1,67.3z"/>
									<path class="st35" d="M54.1,94.4c-2.6,5.6-2.8,18.4-2.8,25.3c0,4.7,6.1,5.7,7.4,1.3c1.7-5.4,3-15.8,3.9-23
										C63.1,93.3,56.8,88.6,54.1,94.4z"/>
									<g>
										<path class="st0" d="M59.5,77.7c0.3,1.5,1.1,2.6,1.8,2.5c0.7-0.1,1.1-1.4,0.9-2.9c-0.2-1-0.6-1.8-1.1-2.3
											c-0.2-0.1,0-0.3,0.1-0.1c0.5,0.5,1,1.3,1.2,2.4c0.3,1.6-0.2,3-1,3.1c-0.9,0.1-1.8-1.1-2.1-2.7c-0.2-0.9-0.1-1.5,0.1-2.1
											c0,0,0.1,0.1,0.2,0.1C59.4,76.3,59.4,76.9,59.5,77.7z"/>
									</g>
									<g>
										<path class="st0" d="M70.4,75.8c0,0-1.1-0.8-4.2-0.1C66.8,77.3,70.5,77.6,70.4,75.8z"/>
										<path class="st27" d="M70.3,75.8c-0.2-0.1-0.6-0.2-1-0.2c-0.3,0-0.7,0-1,0c-0.7,0-1.4,0.2-2.1,0.3l0.2-0.3
											c0.3,0.7,1.2,1.1,2,1.2c0.4,0.1,0.9,0,1.2-0.1c0.2-0.1,0.4-0.2,0.5-0.3c0.1-0.1,0.1-0.2,0.1-0.3
											C70.3,76,70.3,75.9,70.3,75.8z M70.5,75.7c0.1,0.6-0.2,1-0.7,1.3c-0.4,0.2-0.9,0.3-1.4,0.2c-0.5,0-0.9-0.2-1.4-0.4
											c-0.4-0.2-0.8-0.6-1-1.1l0,0c0-0.1,0-0.2,0.1-0.3l0,0c0.7-0.2,1.4-0.3,2.2-0.3c0.4,0,0.7,0,1.1,0.1
											C69.8,75.4,70.1,75.4,70.5,75.7z"/>
									</g>
									<path class="st12" d="M66.7,71.8c0,0.3-0.3,0.4-0.8,0.4c-0.5,0-0.8,0-0.9-0.3c0-0.3,0.3-0.5,0.8-0.6
										C66.2,71.3,66.6,71.5,66.7,71.8z"/>
									<path class="st12" d="M70.9,71.6c0,0.3-0.3,0.4-0.8,0.4c-0.5,0-0.8,0-0.9-0.3s0.3-0.5,0.8-0.6
										C70.5,71.1,70.9,71.3,70.9,71.6z"/>
									<path class="st36" d="M71.6,70.3c0,0-1.2-0.8-1.5-0.7c-0.3,0.1-1.3,0.6-1.4,0.4s-0.3-0.4-0.3-0.4s1.5-0.5,1.8-0.4
										C70.5,69.2,71.5,70,71.6,70.3z"/>
									<path class="st36" d="M63.6,70.3c0,0,1.3-0.7,1.7-0.7c0.4,0,1.6,0.5,1.8,0.4c0.1-0.1,0.2-0.5,0.2-0.5s-1.8-0.4-2.2-0.3
										C64.7,69.3,63.8,69.9,63.6,70.3z"/>
									<g>
										<path class="st30" d="M69,74.3c0,0-1.1,0.1-1.1-0.2c0-0.3,2.1-0.9,2.3-0.7C70.4,73.7,69.5,74.2,69,74.3z"/>
										<path class="st27" d="M68.4,69.9c0,0-0.1,1.4,0.2,1.8c0.2,0.5,1.4,1.4,1.5,1.6c0.1,0.2-1,0.9-1,1c-0.1,0,1.5-0.4,1.4-0.9
											c-0.1-0.5-1.6-1.7-1.7-1.9C68.6,71.2,68.4,69.9,68.4,69.9z"/>
									</g>
								</g>
							</g>
							<g>
								<g>
									<path class="st0" d="M216.8,156.8l-158.4,7.7c-2.1,0.1-3.9-1.4-4.3-3.5l-7.1-51.7c-0.4-2.4,1.4-4.6,3.9-4.7l158.3-7.1
										c2.1-0.1,3.9,1.4,4.2,3.4l7.2,51.1C221.1,154.4,219.3,156.6,216.8,156.8z"/>
									<g>
										<path class="st31" d="M200,109.4l-141.7,6.1c-0.8,0-1.5-0.5-1.6-1.3l0,0c-0.1-0.9,0.6-1.7,1.5-1.8l141.7-6.1
											c0.8,0,1.6,0.6,1.6,1.4l0,0C201.5,108.7,200.8,109.4,200,109.4z"/>
									</g>
									<path class="st31" d="M202.6,115L202.6,115c-0.1-0.8-0.8-1.5-1.6-1.4l-141.8,6.1c-0.9,0-1.6,0.9-1.5,1.8l0,0
										c0.1,0.8,0.8,1.4,1.6,1.3l141.8-6.1C201.9,116.6,202.6,115.9,202.6,115z"/>
									<g>
										<path class="st31" d="M124.7,124.1L60,126.9c-0.9,0-1.6,0.8-1.5,1.7l0,0c0.1,0.8,0.8,1.4,1.6,1.3l64.6-2.8
											c0.9,0,1.6-0.8,1.5-1.7c0,0,0,0,0,0C126.2,124.6,125.5,124.1,124.7,124.1z"/>
									</g>
									<g>
										<path class="st31" d="M149.3,130.3L61,134.1c-0.9,0-1.6,0.8-1.5,1.8l0,0c0.1,0.8,0.8,1.4,1.6,1.3l88.3-3.8
											c0.9,0,1.5-0.8,1.5-1.6c0,0,0,0,0,0C150.8,130.9,150.1,130.3,149.3,130.3z"/>
									</g>
									<g>
										<path class="st31" d="M61.5,150.3L61.5,150.3c0.1,0.8,0.8,1.4,1.6,1.4l72.5-3.1c0.9,0,1.5-0.8,1.5-1.6c0,0,0,0,0-0.1
											c-0.1-0.8-0.8-1.5-1.6-1.4L63,148.5C62.1,148.6,61.4,149.4,61.5,150.3z"/>
									</g>
								</g>
								<g>
									<path class="st0" d="M203.3,69.9l-100.6,4.9c-1.3,0.1-2.5-0.9-2.7-2.2l-0.7-4.9c-0.2-1.5,0.9-2.9,2.5-3l100.5-4.5
										c1.3-0.1,2.5,0.9,2.7,2.1l0.8,4.5C206,68.4,204.8,69.8,203.3,69.9z"/>
									<path class="st0" d="M205.9,86.2l-100.6,4.9c-1.3,0.1-2.5-0.9-2.7-2.2l-0.7-4.9c-0.2-1.5,0.9-2.9,2.5-3l100.5-4.5
										c1.3-0.1,2.5,0.9,2.7,2.1l0.8,4.5C208.6,84.7,207.5,86.1,205.9,86.2z"/>
									<g>
										<path class="st31" d="M169.6,65.1l-64.8,3.3c-0.9,0-1.6,0.9-1.4,1.7l0,0c0.1,0.8,0.8,1.4,1.6,1.3l64.8-3.3
											c0.9,0,1.6-0.9,1.5-1.7c0,0,0,0,0,0C171.1,65.7,170.4,65.1,169.6,65.1z"/>
									</g>
									<g>
										<path class="st31" d="M159.5,82.3L108.2,85c-0.9,0-1.6,0.9-1.4,1.7l0,0c0.1,0.8,0.8,1.4,1.6,1.3l51.3-2.7
											c0.9,0,1.6-0.9,1.5-1.7c0,0,0,0,0,0C161,82.8,160.3,82.2,159.5,82.3z"/>
									</g>
								</g>
							</g>
						</g>
					</g>
					<g>
						<path class="st39" d="M22.1,106l108.8,58c0,0,4.8-6,11.2-6.8c6.3-0.8,12.1,5.7,12.1,5.7L234,97.7l-89.1,97.7L22.1,106z"/>
					</g>
				</g>
				<g>
					<path class="st40" d="M22.1,106l123.1,74.4l89.1-81.3l21.2,137.8L43.6,251C36.6,203.7,29.4,155.3,22.1,106z"/>
					<path class="st41" d="M22.1,106c0,0,8.4,26.3,15,72.7c6.7,46.4,6.2,70.9,6.2,70.9L22.1,106z"/>
				</g>
				<g>
					<path class="st42" d="M133,173c0,0-90.4,78.9-89.4,78c1-0.9,23.7-24.5,40.1-40.4S123.4,176.2,133,173z"/>
					<path class="st43" d="M43.6,251l211.9-14.1l-109.9-72c-2.1-1.4-4.8-1.2-6.7,0.5L43.6,251z"/>
				</g>
			</g>
		</g>
		<g>
			<path class="st25" d="M218.3,215.7c0,0-8.7,79.1-10.6,108c-0.1,2.3,6.5,4,7.2,0c4.5-25.3,17.5-108,17.5-108H218.3z"/>
			<path class="st36" d="M243.4,215.7c0,0-7.4,74.9-9,99.5c-0.1,1.9,5.5,3.4,6.1,0c3.9-21.6,14.9-99.5,14.9-99.5H243.4z"/>
			<path class="st25" d="M431.1,215.7c0,0,8.7,79.1,10.6,108c0.1,2.3-6.5,4-7.2,0c-4.5-25.3-17.5-108-17.5-108H431.1z"/>
			<path class="st36" d="M451,215.7c0,0,7.4,74.9,9,99.5c0.1,1.9-5.5,3.4-6.1,0c-3.9-21.6-14.9-99.5-14.9-99.5H451z"/>
			<polygon class="st36" points="433.4,219.8 214.1,219.8 210.5,206 435.2,206 			"/>
			<polygon class="st44" points="453.7,217.9 433.4,219.8 435.2,206 456.8,206 			"/>
			<g>
				<rect x="198.3" y="202.4" class="st45" width="243.5" height="7.4"/>
				<polygon class="st36" points="465.7,208.7 441.7,209.7 441.7,202.4 465.7,201.4 				"/>
				<polygon class="st46" points="198.3,202.4 243.1,201.4 465.7,201.4 441.7,202.4 				"/>
				<g>
					<path class="st2" d="M232.1,192.7c0,0-6.5-14.9,2.3-14.9s2.3,14.9,2.3,14.9C236.7,192.7,233.8,192.8,232.1,192.7z"/>
					<path class="st47" d="M232.6,192.7c0,0-5.1-14.9,1.8-14.9s1.8,14.9,1.8,14.9C236.2,192.7,233.9,192.8,232.6,192.7z"/>
					<g>
						<g>
							<path class="st29" d="M243.6,192.9l-0.1,1.1l-0.1,1.3l-0.1,1.5l0,0.5l-0.3,4.4c0,0.4-17.1,0.7-17.1,0.2l-0.4-4.6l0-0.2
								l-0.1-1.6l-0.1-1.5l-0.1-1.1c0-0.5,0.4-0.9,0.9-0.9h16.7C243.2,192,243.6,192.4,243.6,192.9z"/>
						</g>
					</g>
					<polygon class="st28" points="243.5,194 243.4,195.3 243.3,196.8 243.3,197.3 225.6,197.3 225.5,197 225.4,195.5 225.3,194 
											"/>
				</g>
			</g>
			<g>
				<path class="st16" d="M353.8,201.4h-88V200c0-1.3,1-2.3,2.3-2.3h83.3c1.3,0,2.3,1,2.3,2.3V201.4z"/>
				<g>
					<g>
						<g>
							<path class="st19" d="M332.7,187.5h-70c-0.7,0-1.3-0.5-1.4-1.2l-13-51.2l-0.3-1.2c-0.2-0.9,2.7-3.1,3.6-3.1l71.4-0.6
								c1,0,1.6,0.3,2.1,0.7c0.7,0.7,0.9,1.7,1,2.1l9.9,51.5C336.3,185.5,334.2,187.5,332.7,187.5z"/>
							<path class="st48" d="M325.1,130.8c-0.9,0.8-2,1.8-2.4,2.1c0,0-73.5,2.1-73.9,2.2c-0.1,0-0.2,0-0.4,0l-0.3-1.2
								c-0.2-0.9,2.7-3.1,3.6-3.1l71.4-0.6C324,130.1,324.6,130.4,325.1,130.8z"/>
							<path class="st49" d="M332.6,187.5h-72c-0.7,0-1.3-0.5-1.4-1.2l-11.1-52c-0.2-0.9,0.5-1.7,1.4-1.7l72.8-0.6
								c0.7,0,1.3,0.5,1.5,1.2l10.4,52.7C334.2,186.6,333.5,187.5,332.6,187.5z"/>
							<path class="st19" d="M327.2,181c0.2,0.7-1.4,2.5-2.7,2.5H267c-0.6,0-1.1-0.4-1.2-1l-11.1-43.1l-0.1-0.3
								c-0.1-0.7,2.2-2.5,3-2.6l60-0.3c0.4,0,0.7,0.1,0.9,0.4c0.1,0.2,0.2,0.4,0.3,0.6L327.2,181z"/>
							<path class="st50" d="M318.6,136.6l-2.7,2.1l-61.1,0.8l-0.1-0.3c-0.1-0.7,2.2-2.5,3-2.6l60-0.3
								C318,136.2,318.3,136.3,318.6,136.6z"/>
							<path class="st48" d="M324.4,183.5h-59.2c-0.6,0-1.1-0.4-1.2-1l-7.8-36.2l-0.9-4.1l-0.6-2.8c-0.1-0.7,0.4-1.4,1.2-1.4l60-0.4
								c0.6,0,1.1,0.4,1.2,1l0.6,2.9l0.9,4.5l7.1,36C325.7,182.8,325.2,183.5,324.4,183.5z"/>
						</g>
						<g>
							<polygon class="st19" points="300.8,144.1 272.9,144.2 272.7,143.4 300.6,143.3 							"/>
							<polygon class="st19" points="301.1,145.5 273.3,145.7 273.1,144.9 300.9,144.7 							"/>
							<polygon class="st19" points="301.4,147 273.6,147.2 273.4,146.3 301.2,146.2 							"/>
							<polygon class="st19" points="301.8,148.5 273.9,148.6 273.7,147.8 301.6,147.7 							"/>
						</g>
					</g>
					<g>
						<polygon class="st19" points="277.7,160.6 299.5,160.6 293.2,201.4 271.6,201.4 						"/>
						<polygon class="st16" points="277.7,160.6 297.5,160.6 291.1,201.4 271.6,201.4 						"/>
					</g>
					<g>
						<rect x="277.6" y="158.6" class="st15" width="22.1" height="4.1"/>
						<ellipse class="st16" cx="299.6" cy="160.6" rx="1.1" ry="2"/>
						<path class="st15" d="M276.6,160.6c0-1.1,0.4-2,1-2c0.5,0,1,0.9,1,2s-0.4,2-1,2C277.1,162.6,276.6,161.7,276.6,160.6z"/>
					</g>
				</g>
			</g>
		</g>
		<g>
			
				<ellipse transform="matrix(0.7071 -0.7071 0.7071 0.7071 90.463 363.6363)" class="st14" cx="484.2" cy="72.6" rx="26.9" ry="26.9"/>
			<g>
				<rect x="464.6" y="60.4" class="st51" width="38.5" height="24.5"/>
				<polygon class="st52" points="503.1,84.9 464.6,84.9 483.9,72.7 				"/>
				<path class="st51" d="M464.6,60.4l18.1,15.9c0.7,0.6,1.7,0.6,2.3,0l18.1-15.9H464.6z"/>
				<path class="st53" d="M464.6,60.4l18.1,14.6c0.7,0.5,1.7,0.5,2.3,0l18.1-14.6H464.6z"/>
			</g>
		</g>
		<g>
			
				<ellipse transform="matrix(0.7071 -0.7071 0.7071 0.7071 41.6137 383.8704)" class="st54" cx="484.2" cy="141.7" rx="26.9" ry="26.9"/>
			<g>
				<path class="st0" d="M477.2,137.7c1.4,0,2.8-0.3,4.2-1l2.1-1.1c0.7-0.4,1-1.2,0.7-1.8l-4.8-9c-0.3-0.6-1.2-0.8-1.9-0.4l-2.1,1.1
					c-2.1,1.1-3.6,3-4,5c-0.8,4,2.7,13.3,4.8,17.3c2.2,4,9,12.6,12.7,13.4c1.7,0.4,3.6,0,5.3-0.9l2.1-1.1c0.7-0.4,1-1.2,0.7-1.8
					l-4.8-9c-0.3-0.6-1.2-0.8-1.9-0.4l-2.1,1.1c-1.4,0.8-2.5,1.8-3.2,3C481.8,147.8,479.3,143,477.2,137.7z"/>
				
					<rect x="479" y="124.1" transform="matrix(0.8797 -0.4756 0.4756 0.8797 -4.3646 243.734)" class="st52" width="0.9" height="12.7"/>
				
					<rect x="491.8" y="147.8" transform="matrix(0.8796 -0.4757 0.4757 0.8796 -14.0518 252.7027)" class="st52" width="0.9" height="12.7"/>
			</g>
		</g>
		<g>
			
				<ellipse transform="matrix(0.7071 -0.7071 0.7071 0.7071 110.7264 412.5913)" class="st3" cx="553.4" cy="72.6" rx="26.9" ry="26.9"/>
			<g>
				<path class="st29" d="M564.8,68.3c0,8.9-11.9,22.5-11.9,22.5S541,77.4,541,68.3c0-6.6,5.3-11.9,11.9-11.9
					C559.5,56.4,564.8,61.7,564.8,68.3z"/>
				<circle class="st0" cx="552.9" cy="68.3" r="7.6"/>
			</g>
		</g>
		<g>
			
				<ellipse transform="matrix(0.7071 -0.7071 0.7071 0.7071 61.877 432.8253)" class="st28" cx="553.4" cy="141.7" rx="26.9" ry="26.9"/>
			<ellipse class="st55" cx="553.4" cy="141.8" rx="11.5" ry="16.2"/>
			<g>
				
					<ellipse transform="matrix(0.7071 -0.7071 0.7071 0.7071 61.8224 432.848)" class="st56" cx="553.4" cy="141.8" rx="16.2" ry="16.2"/>
				<path class="st0" d="M553.4,125.1c-9.2,0-16.7,7.5-16.7,16.7c0,9.2,7.5,16.7,16.7,16.7c9.2,0,16.7-7.5,16.7-16.7
					C570.1,132.6,562.6,125.1,553.4,125.1z M549.6,152.4c-5.9-1.1-10.5-4.5-11.5-8.7c2,1.3,6.1,2.2,10.6,2.6
					C548.9,148.4,549.2,150.6,549.6,152.4z M569,141.5c0,0.1,0,0.2,0,0.3c0,0.1,0,0.2,0,0.3c-0.6,1.2-4.5,2.6-10.8,3.1
					c0.1-1.1,0.1-2.3,0.1-3.4c0-1.1,0-2.3-0.1-3.4C564.4,138.9,568.3,140.3,569,141.5z M557.3,141.8c0,1.2,0,2.4-0.1,3.5
					c-1.2,0.1-2.4,0.1-3.8,0.1c-1.3,0-2.6,0-3.8-0.1c-0.1-1.1-0.1-2.3-0.1-3.5c0-1.2,0-2.4,0.1-3.5c1.2-0.1,2.4-0.1,3.8-0.1
					c1.3,0,2.6,0,3.8,0.1C557.2,139.4,557.3,140.6,557.3,141.8z M537.8,142.1c0-0.1,0-0.2,0-0.3c0-0.1,0-0.2,0-0.3
					c0.6-1.2,4.5-2.6,10.8-3.1c-0.1,1.1-0.1,2.3-0.1,3.4c0,1.1,0,2.3,0.1,3.4C542.4,144.7,538.5,143.3,537.8,142.1z M553.4,137.2
					c-1.2,0-2.5,0-3.7,0.1c0.2-2.5,0.5-4.6,1-6.3c0.9-0.1,1.8-0.2,2.7-0.2c0.9,0,1.8,0.1,2.7,0.2c0.4,1.7,0.8,3.8,1,6.3
					C555.9,137.2,554.6,137.2,553.4,137.2z M548.7,137.4c-4.5,0.4-8.6,1.2-10.6,2.6c1.1-4.3,5.6-7.7,11.5-8.7
					C549.2,133,548.9,135.2,548.7,137.4z M553.4,146.4c1.2,0,2.5,0,3.7-0.1c-0.2,2.5-0.5,4.6-1,6.3c-0.9,0.1-1.8,0.2-2.7,0.2
					c-0.9,0-1.8-0.1-2.7-0.2c-0.4-1.7-0.8-3.8-1-6.3C550.9,146.4,552.2,146.4,553.4,146.4z M558.1,146.2c4.5-0.4,8.6-1.2,10.6-2.6
					c-1.1,4.3-5.6,7.7-11.5,8.7C557.7,150.6,558,148.4,558.1,146.2z M558.1,137.4c-0.2-2.2-0.5-4.3-0.9-6.2
					c5.9,1.1,10.5,4.5,11.5,8.7C566.7,138.6,562.7,137.7,558.1,137.4z M567.6,135.4c-2.4-2.7-6.2-4.7-10.7-5.4
					c-0.4-1.5-1-2.7-1.6-3.6C560.8,127,565.4,130.6,567.6,135.4z M553.1,126.2c0.1,0,0.2,0,0.3,0c0.1,0,0.2,0,0.3,0
					c0.7,0.3,1.4,1.5,2,3.6c-0.8-0.1-1.6-0.1-2.4-0.1c-0.8,0-1.6,0.1-2.4,0.1C551.7,127.8,552.4,126.5,553.1,126.2z M551.5,126.4
					c-0.6,0.8-1.1,2.1-1.6,3.6c-4.5,0.7-8.3,2.7-10.7,5.4C541.4,130.6,546,127,551.5,126.4z M539.2,148.2c2.4,2.7,6.2,4.7,10.7,5.4
					c0.4,1.5,1,2.7,1.6,3.6C546,156.6,541.4,153,539.2,148.2z M553.7,157.4c-0.1,0-0.2,0-0.3,0c-0.1,0-0.2,0-0.3,0
					c-0.7-0.3-1.4-1.5-2-3.6c0.8,0.1,1.6,0.1,2.4,0.1c0.8,0,1.6-0.1,2.4-0.1C555.1,155.8,554.4,157.1,553.7,157.4z M555.3,157.2
					c0.6-0.8,1.1-2.1,1.6-3.6c4.5-0.7,8.3-2.7,10.7-5.4C565.4,153,560.8,156.6,555.3,157.2z"/>
			</g>
		</g>
		<g>
			<path class="st3" d="M358.9,43.2h-67.8c-5.9,0-10.7,4.8-10.7,10.7V71c0,5.9,4.8,10.7,10.7,10.7h44.5l17,27.5l-5.5-27.5h11.7
				c5.9,0,10.7-4.8,10.7-10.7V53.9C369.7,48,364.9,43.2,358.9,43.2z"/>
			<g>
				<path class="st12" d="M311.6,61.8c0,1.7-1.4,3.1-3.1,3.1c-1.7,0-3.1-1.4-3.1-3.1c0-1.7,1.4-3.1,3.1-3.1
					C310.2,58.6,311.6,60,311.6,61.8z"/>
				<path class="st12" d="M328.2,61.8c0,1.7-1.4,3.1-3.1,3.1s-3.1-1.4-3.1-3.1c0-1.7,1.4-3.1,3.1-3.1S328.2,60,328.2,61.8z"/>
				<path class="st12" d="M344.8,61.8c0,1.7-1.4,3.1-3.1,3.1s-3.1-1.4-3.1-3.1c0-1.7,1.4-3.1,3.1-3.1S344.8,60,344.8,61.8z"/>
			</g>
		</g>
		<g>
			<g>
				<path class="st16" d="M509.5,281.3v26c0,5.9,39.9,5.9,39.9,0l0-26.3L509.5,281.3z"/>
				<path class="st15" d="M509.5,279.6v4.5c0,0,2.9,2.6,19.9,2.6c17,0,19.9-2.9,19.9-2.9v-4.3H509.5z"/>
				<ellipse class="st48" cx="529.5" cy="279.6" rx="19.9" ry="2.5"/>
				<ellipse class="st57" cx="529.5" cy="279.6" rx="18.3" ry="1.7"/>
				<path class="st1" d="M528,279.9c0,0-4.2-5.3-9.8-8c-5.7-2.7-12.3-5.1-12.2-9.4c0.1-4.3,18.3-8.9,23.5,17.3
					C529.5,280.7,528.4,280.6,528,279.9z"/>
				<path class="st58" d="M528.3,280.1c0,0-3.6-5.8-7.6-8.4c-4.5-2.9-9.4-3.4-9.3-6.7c0.1-3.3,12.8-4.2,18.1,15
					C529.5,280.6,528.6,280.5,528.3,280.1z"/>
				<path class="st2" d="M528.9,280.4c0,0-4.9-9.9-15.1-16.3c0,0,10.8,5,15.6,16.1L528.9,280.4z"/>
				<path class="st1" d="M529.4,280.3c0,0-1.7-8.5-5.2-14.7c-4.3-7.6-7.7-14.3-3.8-17.3c4.1-3.1,19.3,2.9,10.2,32
					C530.5,280.8,530.2,281.1,529.4,280.3z"/>
				<path class="st58" d="M529.4,280.3c0,0-1.2-7.7-3.8-13.4c-3.1-6.9-5.6-13-2.8-15.7c3-2.8,14,2.7,7.5,29
					C530.2,280.8,530,281,529.4,280.3z"/>
				<path class="st2" d="M529.4,280.3c0,0,1.4-8.4-3.9-24c0,0,5.5,6.5,5.1,24C530.7,280.2,530,281.6,529.4,280.3z"/>
				<path class="st1" d="M541.1,268.5c-5.8,4.1-9.5,11.5-9.5,11.5c-0.1,0.3-0.4,0.5-0.7,0.5c-0.4,0.1-0.8-0.2-0.8-0.8
					c0.3-30.4,21.7-29.1,22.7-24.3C553.9,260.3,546.9,264.3,541.1,268.5z"/>
				<path class="st58" d="M537.9,268.5c-4.4,4.2-6.5,11.6-6.5,11.6c-0.1,0.3-0.4,0.4-0.6,0.5c-0.3,0-0.7-0.2-0.7-0.7
					c2.6-25.3,16.9-25.8,18.4-21.8C549.4,260.4,543.3,263.2,537.9,268.5z"/>
				<path class="st2" d="M542.5,259.9c-10.2,9.2-11.4,19.7-11.4,19.7s-0.1,0.4-0.2,0.9c-0.4,0.1-0.8-0.2-0.8-0.8
					C533.4,263.5,542.5,259.9,542.5,259.9z"/>
			</g>
			<path class="st57" d="M527.8,280.5c0,0-1.5-1-1.4-1.3s2.4,1,2.4,1s-1.3-1.6-0.7-1.9c0.6-0.3,1.7,1.7,1.8,1.6
				c0-0.1,0.2-2.4,1.3-2.5c1.1,0,0.2,2.4,0.2,2.4s1.6-1.5,2.4-0.7C534.5,280.1,530.8,281.7,527.8,280.5z"/>
		</g>
	</g>
</g>
<g id="DESIGNED_BY_FREEPIK">
	<g>
	</g>
	<g>
	</g>
	<g>
	</g>
	<g>
	</g>
	<g>
	</g>
</g>
</svg>
