<?xml version="1.0" encoding="utf-8"?>
<!-- Generator: Adobe Illustrator 27.5.0, SVG Export Plug-In . SVG Version: 6.00 Build 0)  -->
<svg version="1.1" xmlns="http://www.w3.org/2000/svg" xmlns:xlink="http://www.w3.org/1999/xlink" x="0px" y="0px"
	 viewBox="0 0 750 500" style="enable-background:new 0 0 750 500;" xml:space="preserve">
<g id="BACKGROUND">
	<rect style="fill:#FFFFFF;" width="750" height="500"/>
</g>
<g id="OBJECTS">
	<g>
		<g>
			<g>
				<g>
					<path style="fill:#FABE78;" d="M206.744,257.996c0.11-1.22,0.231-2.48,0.822-3.552c0.591-1.073,1.785-1.914,2.991-1.701
						c1.175,0.208,1.996,1.337,2.29,2.494c0.294,1.157,0.186,2.372,0.226,3.565c0.105,3.092,1.255,6.14,3.218,8.532
						c3.798-4.286,7.595-8.571,11.392-12.857c0.608-0.687,1.236-1.388,2.049-1.814c0.813-0.425,1.864-0.521,2.617,0.004
						c1.327,0.925,0.959,2.971,0.309,4.452c-1.265,2.885-3.055,5.539-5.256,7.793c2.24-2.214,4.48-4.428,6.72-6.641
						c0.968-0.957,2.298-1.992,3.547-1.452c0.798,0.345,1.226,1.268,1.223,2.137c-0.003,0.869-0.356,1.697-0.747,2.474
						c-1.218,2.424-2.859,4.635-4.826,6.504c1.632-1.886,3.5-3.567,5.547-4.992c0.56-0.389,1.2-0.776,1.875-0.682
						c0.785,0.11,1.353,0.871,1.48,1.653c0.127,0.782-0.096,1.576-0.358,2.324c-1.165,3.318-3.173,6.336-5.784,8.693
						c2.282-2.183,5.495-3.359,8.647-3.166c0.678,1.206,0.499,2.749-0.13,3.981c-0.629,1.232-1.648,2.214-2.673,3.143
						c-6.247,5.668-13.39,10.345-21.083,13.804c-3.034,1.364-6.51,2.548-9.616,1.357c-2.068-0.793-3.648-2.56-4.653-4.534
						c-2.544-5.001-1.79-9.716-1.308-15.08C205.759,268.956,206.252,263.476,206.744,257.996z"/>
					<g>
						<path style="fill:#BB8F5A;" d="M220.305,271.586c0.48,0.275,1.09,0.239,1.601,0.028c0.511-0.211,0.941-0.577,1.348-0.952
							c2.247-2.072,4.061-4.611,5.293-7.409c-0.696,1.582-2.23,2.833-3.466,3.963C223.489,268.674,221.897,270.13,220.305,271.586z"
							/>
						<path style="fill:#BB8F5A;" d="M226.44,274.283c-0.135,0.127-0.281,0.28-0.269,0.464c0.014,0.215,0.249,0.36,0.464,0.353
							c0.215-0.007,0.409-0.123,0.591-0.238c3.159-2.006,5.956-5.013,7.464-8.464C231.939,269.02,229.212,271.678,226.44,274.283z"
							/>
						<path style="fill:#BB8F5A;" d="M228.283,278.604c-0.133,0.068-0.279,0.151-0.317,0.295c-0.044,0.164,0.083,0.334,0.24,0.398
							c0.157,0.064,0.334,0.048,0.502,0.027c3.079-0.384,7.576-2.597,8.613-5.799c-1.111,0.641-2.015,1.507-3.197,2.108
							C232.177,276.623,230.23,277.614,228.283,278.604z"/>
					</g>
					<path style="fill:#BB8F5A;" d="M218.277,282.615c-0.067,0.204-0.138,0.417-0.103,0.629c0.035,0.212,0.22,0.416,0.433,0.391
						c0.129-0.015,0.235-0.106,0.329-0.195c2.255-2.143,2.793-5.653,2.016-8.665c-0.688-2.665-2.516-6.17-4.726-7.887
						c0.002,0.886,0.798,1.909,1.175,2.701c0.643,1.349,1.108,2.782,1.392,4.248C219.353,276.744,219.199,279.797,218.277,282.615z"
						/>
				</g>
				<g>
					<path style="fill:#B3513A;" d="M177.165,306.876c2.391-3.394,4.996-6.606,8.051-9.765c1.613-1.668,17.547-18.279,18.7-17.45
						c5.952,4.281,11.904,8.561,17.856,12.842c-8.958,15.503-18.257,30.81-27.886,45.905c-3.819,5.987-6.48,12.786-12.636,16.789
						c-6.045,3.931-12.776,2.955-18.498-1.112c-7.094-5.043-14.535-9.648-21.332-15.239c-5.723-4.708-11.278-9.919-14.599-16.544
						c-3.539-7.059-4.267-15.162-4.614-23.052c-0.436-9.932,0.246-20.649,3.02-30.215c1.122-3.868,2.953-9.452,7.21-10.93
						c9.443-3.277,17.908,16.353,21.777,22.798c6.709,11.176,12.469,22.921,17.188,35.072
						C173.264,312.759,175.138,309.752,177.165,306.876z"/>
					<path style="fill:none;stroke:#1F2631;stroke-linecap:round;stroke-linejoin:round;stroke-miterlimit:10;" d="M166.855,341.616
						c1.3-3.15,4.897-4.909,8.305-4.87c3.408,0.039,6.629,1.565,9.49,3.417"/>
				</g>
			</g>
			<g>
				<path style="fill:#EE6C4D;" d="M139.151,404.701c1.364-33.622,5.598-81.09,6.962-114.713c0.325-8.012,0.603-16.311-2.422-23.737
					c-4.494-11.036-14.763-13.148-25.256-15.201c-12.327-2.412-25.11-2.211-37.584-1.29c-13.883,1.025-24.766,5.028-28.672,19.636
					c-1.756,6.567-1.684,13.469-1.452,20.263c1.218,35.716-4.639,79.696,0.628,115.042"/>
				<path style="fill:#E0FBFC;" d="M104.717,268.553c-1.425-0.323-2.946,0.982-2.925,2.443c0.02,1.461,1.476,2.706,2.933,2.586
					c1.457-0.12,2.667-1.496,2.693-2.957c0.015-0.818-0.324-1.663-0.984-2.145c-0.661-0.482-1.649-0.523-2.278,0"/>
				<path style="fill:#E0FBFC;" d="M104.689,285.579c1.201,0.596,2.795,0.297,3.659-0.728c1.86-2.208-0.619-5.326-3.194-5.091
					C102.208,280.027,102.408,284.445,104.689,285.579z"/>
			</g>
			<g>
				<g>
					<path style="fill:#FABE78;" d="M85.09,250.664c1.156,1.703,2.766,3.193,4.26,4.144c3.748,2.386,8.517,3.185,13.081,2.891
						c2.62-0.168,5.281-0.702,7.46-2.034c3.779-2.309,3.815-5.494,3.428-9.212c-0.454-4.36-1.254-8.68-1.908-13.016
						c-0.417-2.766-0.945-5.657-2.815-7.872c-2.744-3.25-7.981-4.228-12.257-2.932c-4.73,1.434-8.665,5.089-9.606,9.516
						c-0.507,2.383-0.971,4.774-1.417,7.167c-0.363,1.947-1.106,3.574-1.645,5.419C83.101,246.68,83.824,248.799,85.09,250.664z"/>
					<path style="fill:#BB8F5A;" d="M92.691,246.992c3.395,2.706,8.2,4.016,12.596,3.077c1.577-0.337,3.354-0.667,4.831-1.273
						c1.083-0.445,2.076-1.158,2.581-2.136c0.499-0.967,0.476-2.079,0.444-3.146c-0.048-1.566-0.096-3.132-0.143-4.698
						c-0.017-0.541-0.035-1.093-0.24-1.602c-0.563-1.401-2.665-1.182-4.033-1.332c-6.641-0.728-13.093-2.844-18.714-6.139
						c-0.706-0.414-1.58-0.86-2.331-0.519c-0.525,0.238-0.776,0.783-0.95,1.292C84.862,235.98,88.062,243.303,92.691,246.992z"/>
				</g>
				<g>
					<path style="fill:#E0FBFC;" d="M102.082,257.316c-1.952,1.527-3.58,2.766-4.869,4.858c-1.292,2.098-2.173,4.407-2.569,6.785
						c-0.223,1.335-0.566,3-2.003,3.346c-0.703,0.169-1.442-0.067-2.108-0.334c-8.437-3.39-11.718-11.156-11.157-19.043
						c0.161-2.263,0.682-4.506,1.55-6.633c0.448-1.096,0.987-2.161,1.617-3.181c0.206-0.333,1.946-2.337,1.859-2.562
						c1.504,3.857,3.877,7.43,6.917,10.449c1.438,1.428,2.95,2.167,4.667,3.238C96.606,254.627,101.535,257.743,102.082,257.316z"/>
					<path style="fill:#E0FBFC;" d="M115.782,269.452c2.57,0.038,3.079-4.483,3.123-6.049c0.095-3.405,0.888-6.783,0.377-10.223
						c-0.498-3.345-2.165-6.696-5.218-8.619c-1.699,5.371-6.41,11.365-12.68,12.732c3.474,4.216,9.03,6.359,12.465,10.795
						C114.338,268.719,114.933,269.44,115.782,269.452z"/>
				</g>
			</g>
			<g>
				<g>
					<path style="fill:#FABE78;" d="M129.368,288.22c0.814-1.477,1.98-3.132,3.666-3.097c1.935,0.04,3.049,2.415,2.728,4.324
						c-0.321,1.909-1.541,3.526-2.317,5.299c-0.173,0.396-0.327,0.843-0.19,1.254c0.185,0.556,0.855,0.826,1.437,0.753
						c0.582-0.072,1.095-0.401,1.589-0.715c3.49-2.218,7.159-4.153,10.96-5.781c1.312-0.562,2.912-1.063,4.082-0.245
						c1.103,0.771,1.242,2.434,0.674,3.654c-0.568,1.22-1.659,2.101-2.714,2.937c1.921-1.38,4.255-2.178,6.619-2.262
						c0.738-0.026,1.58,0.066,2.022,0.657c0.479,0.639,0.26,1.549-0.055,2.283c-0.956,2.226-2.638,4.133-4.727,5.359
						c1.685-0.989,5.081-1.826,6.364,0.23c0.583,0.935,0.533,2.193-0.019,3.147c-0.552,0.954-1.551,1.606-2.623,1.859
						c0.747,0.023,1.51,0.08,2.198,0.372c0.688,0.292,1.299,0.857,1.465,1.586c0.441,1.925-2.191,2.283-3.452,2.674
						c-1.978,0.614-3.958,1.22-5.945,1.804c-3.971,1.166-7.972,2.241-12.022,3.096c-2.377,0.502-4.8,0.93-7.225,0.772
						c-2.424-0.158-4.879-0.955-6.644-2.624c-1.805-1.707-2.735-4.177-3.037-6.643C121.29,301.453,125.9,294.512,129.368,288.22z"/>
					<g>
						<path style="fill:#BB8F5A;" d="M138.604,300.88c0.021,0.655,0.64,1.169,1.285,1.282c0.645,0.113,1.302-0.083,1.917-0.31
							c2.879-1.062,6.375-3.144,7.987-5.847C146.129,297.982,142.697,299.843,138.604,300.88z"/>
						<path style="fill:#BB8F5A;" d="M144.299,305.453c-1.061,0.313-2.208,0.688-2.818,1.611c0.065-0.097,3.339,0.083,3.747,0.029
							c1.267-0.167,2.51-0.509,3.687-1.005c2.375-1,4.471-2.632,5.968-4.735c-0.464,0.391-0.852,0.906-1.364,1.241
							c-0.738,0.483-1.707,0.642-2.54,0.887C148.752,304.139,146.525,304.796,144.299,305.453z"/>
						<path style="fill:#BB8F5A;" d="M156.658,308.225c-3.35,0.948-6.7,1.897-10.051,2.845c-0.316,0.089-0.643,0.185-0.89,0.402
							c-0.246,0.217-0.386,0.593-0.231,0.883c0.208,0.39,0.76,0.39,1.197,0.322c3.94-0.617,7.682-2.446,10.588-5.177
							c-0.594,0.521-1.361,0.841-2.15,0.896"/>
					</g>
				</g>
				<g>
					<path style="fill:#B3513A;" d="M44.669,279.046c-3.743,9.988-5.321,20.64-6.62,31.227c-0.827,6.739-1.545,13.624-0.177,20.274
						c1.368,6.651,5.163,13.138,11.264,16.118c7.251,3.541,15.894,1.497,23.561-1.017c19.635-6.438,38.332-15.543,56.043-26.186
						c-2.72-6.352-4.867-12.949-6.404-19.685c-17.939,5.492-35.878,10.984-53.817,16.477c8.85-14.293,11.582-32.239,7.386-48.518
						c-0.786-3.047-1.836-6.1-3.771-8.582C60.839,244.667,48.064,269.987,44.669,279.046z"/>
					<path style="fill:none;stroke:#1F2631;stroke-linecap:round;stroke-linejoin:round;stroke-miterlimit:10;" d="M48.822,323.712
						c1.958,1.009,3.537,2.732,4.373,4.77c0.836,2.038,0.92,4.374,0.235,6.467"/>
				</g>
			</g>
			<g>
				<path style="fill:#FABE78;" d="M111.017,161.513c1.072,0.323,2.13,0.687,3.17,1.089c4.627,1.788,9.093,4.41,12.039,8.401
					c2.75,3.726,3.982,8.398,4.268,13.02c0.297,4.811-1.458,10.128-0.059,14.709c1.452,4.756,2.979,10.277,3.029,15.269
					c0.093,9.162-5.468,18.851-12.168,24.163c-12.345,9.788-27.137,3.053-37.638-6.664c-4.558-4.217-7.411-9.676-8.554-15.757
					c-0.73-3.882-0.743-7.576-2.412-11.267c-1.228-2.715-2.776-5.289-3.774-8.096c-2.98-8.38-0.514-18.156,5.238-24.94
					c4.231-4.99,10.047-8.44,16.258-10.367C97.135,158.986,104.295,159.487,111.017,161.513z"/>
				<path style="fill:#1F2631;" d="M82.232,210.716c0.311,0.881,0.673,1.746,1.104,2.591c1.329,2.605,4.039,4.182,6.58,5.499
					c3.856,1.998,8.355,0.761,12.127-0.803c3.793-1.572,7.605-3.58,11.667-3.466c2.425,0.068,4.77,0.896,7.16,1.345
					c2.39,0.449,5.006,0.472,7.062-0.918c1.774-1.199,2.883-3.311,3.407-5.497c0.524-2.187,0.527-4.473,0.527-6.732
					c5.134,13.837,0.252,31.074-12.706,37.574c-4.974,2.495-10.632,3.131-16.09,2.529c-7.129-0.787-14.125-3.709-19.54-8.773
					c-4.87-4.553-7.725-10.674-9.207-17.097c-0.582-2.524-0.51-4.94-0.889-7.432c-0.357-2.342-1.532-4.499-2.779-6.478
					c-1.666-2.644-3.585-5.238-4.281-8.285c-0.54-2.362-0.011-5.313,2.173-6.361c1.83-0.878,4.044-0.043,5.662,1.184
					c2.795,2.12,4.609,5.327,5.655,8.676C81.135,202.337,80.828,206.734,82.232,210.716z"/>
				<g>
					<g>
						<path style="fill:#1F2631;" d="M119.648,196.82c-0.134,1.125,0.306,2.291,1.106,3.092c0.457,0.458,1.078,0.815,1.721,0.745
							c0.616-0.067,1.139-0.523,1.426-1.072c0.288-0.549,0.373-1.18,0.404-1.799c0.044-0.875-0.023-1.794-0.474-2.545
							C122.446,192.931,119.892,194.769,119.648,196.82z"/>
						<path style="fill:none;stroke:#1F2631;stroke-linecap:round;stroke-linejoin:round;stroke-miterlimit:10;" d="M117.578,191.64
							c1.138-1.352,2.928-2.128,4.692-2.035c1.765,0.093,3.463,1.052,4.453,2.516"/>
					</g>
					<g>
						<path style="fill:#1F2631;" d="M97.054,196.707c-0.134,1.158,0.307,2.358,1.11,3.183c0.459,0.471,1.081,0.839,1.726,0.767
							c0.618-0.069,1.142-0.539,1.431-1.103c0.288-0.565,0.374-1.215,0.405-1.851c0.044-0.901-0.023-1.847-0.475-2.62
							C99.86,192.704,97.299,194.595,97.054,196.707z"/>
						<path style="fill:none;stroke:#1F2631;stroke-linecap:round;stroke-linejoin:round;stroke-miterlimit:10;" d="
							M102.776,191.174c-1.497-1.662-3.805-2.557-6.032-2.338c-2.226,0.219-4.316,1.547-5.46,3.47"/>
					</g>
					<path style="fill:#FA9257;" d="M114.399,199.894c1.118,1.522,2.19,3.081,3.284,4.619c0.425,0.598,0.855,1.205,1.101,1.896
						c0.246,0.691,0.287,1.488-0.058,2.136c-0.574,1.079-1.949,1.387-3.156,1.574c-1.533,0.238-3.288,0.405-4.455-0.617
						c-0.905-0.792-1.171-2.07-1.387-3.253c-0.45-2.473-0.875-4.774-0.859-7.262c0.007-1.08-0.462-4.584,1.074-4.978
						c1.149-0.295,1.709,1.468,2.018,2.216c0,1.291,1.696,2.661,2.393,3.608C114.369,199.853,114.384,199.874,114.399,199.894z"/>
					<path style="fill:#FFFFFF;" d="M101.444,223.585c0.961,1.406,1.527,3.056,2.551,4.47c1.089,1.504,2.401,2.856,3.94,3.904
						c2.671,1.818,6.097,2.66,9.218,1.823c0.406-0.109,0.824-0.258,1.102-0.573c0.591-0.671,0.289-1.7,0.084-2.57
						c-0.338-1.436-0.307-2.957,0.09-4.378c0.276-0.989,0.701-2.017,0.493-3.064c-0.205-1.029-1.259-0.695-2.089-0.468
						c-1.628,0.445-3.319,0.729-4.993,0.935C108.391,224.086,104.886,224.064,101.444,223.585z"/>
				</g>
				<g>
					<path style="fill:#FABE78;" d="M75.575,196.903c-0.109-1.564-0.832-3.031-2.026-4.048c-1.068-0.909-2.272-1.566-3.519-1.902
						c-2.385-0.643-6.263-0.379-7.927,1.837c-1.927,2.565-2.591,6.622-1.848,10.135c0.86,4.064,3.593,7.608,6.877,8.915
						c1.466,0.583,3.014,0.711,4.487,0.424c2.856-0.556,4.799-3.237,4.597-6.139L75.575,196.903z"/>
					<g>
						<path style="fill:none;stroke:#1F2631;stroke-linecap:round;stroke-linejoin:round;stroke-miterlimit:10;" d="M69.752,196.399
							c1.901,2.984,2.67,6.672,2.119,10.167"/>
						<path style="fill:none;stroke:#1F2631;stroke-linecap:round;stroke-linejoin:round;stroke-miterlimit:10;" d="M64.508,201.564
							c2.239,0.13,4.499-0.111,6.66-0.711"/>
					</g>
				</g>
			</g>
		</g>
		<g>
			<g>
				<path style="fill:#EE6C4D;" d="M105.97,142.982H51.162c-3.415,0-5.919-3.212-5.085-6.524l7.847-31.164
					c0.587-2.33,2.682-3.964,5.085-3.964h54.809c3.415,0,5.919,3.213,5.085,6.524l-7.847,31.164
					C110.469,141.348,108.373,142.982,105.97,142.982z"/>
				<path style="fill:#B3513A;" d="M53.924,105.294l28.566,16.862l36.413-14.301c0.077-0.319,0.536-2.38-0.793-4.279
					c-1.514-2.164-4.037-2.242-4.292-2.245c-18.269,0-36.539,0-54.808,0c-0.318-0.036-1.898-0.179-3.338,0.936
					C54.215,103.394,53.966,104.981,53.924,105.294z"/>
				<polyline style="fill:none;stroke:#B3513A;stroke-linecap:round;stroke-linejoin:round;stroke-miterlimit:10;" points="
					46.077,136.457 82.49,122.718 111.055,139.018 				"/>
			</g>
			<path style="fill:none;stroke:#1F2631;stroke-linecap:round;stroke-linejoin:round;stroke-miterlimit:10;" d="M50.313,151.2
				c-5.496,9.945-8.728,21.131-9.384,32.475c-0.273,4.729-0.089,9.567,1.467,14.041c1.556,4.474,4.63,8.575,8.933,10.556"/>
		</g>
		<g>
			<path style="fill:#FABE78;" d="M156.216,151.886c1.621-0.546,3.416-0.722,5.138-0.843c14.317-1.007,28.7-0.923,43.071-0.247
				c2.164,0.102,4.483,0.275,6.175,1.628c1.98,1.583,2.542,4.322,2.825,6.841c0.72,6.417,0.31,12.927-0.386,19.298
				c-0.403,3.688-0.371,9.472-3.631,11.97c-0.86,0.659-2.04,0.654-3.123,0.619c-4.376-0.141-8.753-0.282-13.13-0.422
				c-2.148-0.069-4.565-0.469-6.695-0.216c-1.645,0.196-2.803,1.785-4.091,2.868c-5.494,4.623-12.309,7.658-19.421,8.649
				c3.048-3.19,5.436-7.088,6.236-11.433c-4.118-0.018-8.235-0.035-12.353-0.053c-1.335-0.006-2.733-0.027-3.906-0.663
				c-1.883-1.022-2.66-3.345-2.779-5.484c-0.397-7.145-0.528-14.514-0.041-21.662c0.232-3.4,0.79-7.137,3.381-9.351
				C154.293,152.696,155.221,152.221,156.216,151.886z"/>
			<g>
				<path style="fill:#FFFFFF;" d="M160.786,165.271c13.591-0.956,27.368,2.149,40.823,0.094c0.708-0.108,1.436-0.239,2.034-0.616
					c0.598-0.377,1.039-1.065,0.895-1.738c-0.247-1.16-1.824-1.438-3.06-1.459c-7.262-0.124-14.525-0.16-21.787-0.107
					c-3.689,0.027-7.377,0.077-11.065,0.151c-3.201,0.063-6.657-0.203-9.826,0.223c-1.094,0.147-1.991,0.382-1.924,1.612
					C156.979,165.338,159.336,165.373,160.786,165.271z"/>
				<path style="fill:#FFFFFF;" d="M160.389,177.55c13.591-0.956,27.368,2.149,40.823,0.094c0.708-0.108,1.436-0.239,2.034-0.616
					c0.598-0.377,1.039-1.065,0.895-1.738c-0.247-1.16-1.824-1.438-3.06-1.459c-7.262-0.124-14.525-0.16-21.787-0.107
					c-3.689,0.027-7.377,0.077-11.065,0.151c-3.201,0.064-6.657-0.203-9.826,0.223c-1.094,0.147-1.991,0.382-1.924,1.612
					C156.582,177.617,158.939,177.652,160.389,177.55z"/>
			</g>
		</g>
	</g>
	<g>
		<g>
			<g>
				<path style="fill:#EE6C4D;" d="M537.362,217.724h-54.808c-3.415,0-5.919-3.212-5.085-6.524l7.847-31.164
					c0.587-2.33,2.682-3.963,5.085-3.963h54.809c3.415,0,5.919,3.212,5.085,6.524l-7.847,31.164
					C541.86,216.091,539.765,217.724,537.362,217.724z"/>
				<path style="fill:#B3513A;" d="M485.315,180.036l28.566,16.862l36.413-14.301c0.077-0.319,0.536-2.38-0.793-4.279
					c-1.515-2.164-4.037-2.242-4.292-2.245c-18.269,0-36.539,0-54.809,0c-0.318-0.036-1.898-0.179-3.338,0.936
					C485.606,178.136,485.357,179.724,485.315,180.036z"/>
				<polyline style="fill:none;stroke:#B3513A;stroke-linecap:round;stroke-linejoin:round;stroke-miterlimit:10;" points="
					477.468,211.2 513.881,197.46 542.447,213.761 				"/>
			</g>
			<path style="fill:none;stroke:#1F2631;stroke-linecap:round;stroke-linejoin:round;stroke-miterlimit:10;" d="M517.231,225.983
				c1.402,14.973,16.272,25.686,33.187,29.381"/>
		</g>
		<g>
			<path style="fill:#1F2631;" d="M555.993,283.787c3.286,8.874,11.747,16.235,20.664,19.205c2.06,0.686,3.66,0.464,5.758,0.435
				c2.797-0.038,5.586,0.688,8.34,1.114c6.34,0.981,12.742,1.699,19.167,1.603c9.758-0.146,19.714-2.278,27.828-7.7
				c8.114-5.423,14.134-14.47,14.374-24.226c0.117-4.766-0.201-10.423-2.398-14.693c-1.637-3.18-3.841-6.08-5.084-9.433
				c-2.009-5.416-1.31-11.465,0.132-17.059c1.442-5.594,3.599-11.018,4.483-16.727c1.857-11.981-2.343-24.702-10.819-33.371
				c-8.476-8.669-20.993-13.146-33.065-12.033c-12.073,1.113-23.487,7.732-30.625,17.532c-3.256,4.47-5.68,9.652-6.299,15.148
				c-0.679,6.028,1.791,9.949,3.479,15.394c1.488,4.8,0.444,9.559-1.428,14.088c-1.607,3.887-3.888,7.452-6.05,11.06
				c-3.597,6.004-6.922,12.254-8.765,19.006C553.841,269.882,553.562,277.224,555.993,283.787z"/>
			<g>
				<g>
					<path style="fill:#FABE78;" d="M547.387,288.391c-1.342,0.982-2.648,2.018-3.914,3.11
						c-21.012,18.133-22.598,48.772-4.717,69.783c3.493,4.104,6.414,8.204,10.575,11.348c4.849,3.665,9.936,6.873,15.199,9.584
						c-0.128-0.066,8.377-14.051,8.54-15.229c-8.394-5.733-15.229-13.725-19.59-22.907c-1.781-3.75-3.177-7.949-2.298-12.006
						c1.424-6.572,7.391-9.369,12.411-12.809c1.504-1.031,18.654-11.252,18.763-10.931c-4.024-11.788-1.979-25.474,5.315-35.572
						C573.387,275.381,559.039,279.863,547.387,288.391z"/>
					<path style="fill:none;stroke:#1F2631;stroke-linecap:round;stroke-linejoin:round;stroke-miterlimit:10;" d="M537.495,312.258
						c1.708,4.628,1.448,9.947-0.704,14.387"/>
				</g>
				<path style="fill:#2E4460;" d="M548.1,287.301c-1.924,1.229-3.93,2.545-4.997,4.563c-1.265,2.392-0.959,5.295-0.371,7.936
					c2.135,9.587,7.66,18.383,15.37,24.468c4.418-2.9,8.837-5.799,13.255-8.699c1.368-0.898,2.739-1.798,4.021-2.815
					c5.166-4.099,8.699-9.97,11-16.15c1.931-5.186,3.053-10.619,4.048-16.049c0.32-1.745,1.309-4.814,0.544-6.522
					c-0.916-2.044-2.507-1.339-4.632-1.092c-4.621,0.539-9.191,1.48-13.65,2.807C563.965,278.343,555.755,282.41,548.1,287.301z"/>
			</g>
			<g>
				<path style="fill:#3D5A80;" d="M560.336,410.222c1.657-9.479,3.906-18.854,6.73-28.052c2.77-9.022,8.962-15.176,10.279-25.013
					c0.667-4.982-0.077-10.095-2.594-14.478c-2.186-3.806-3.11-7.261-4.082-11.643c-2.835-12.777-1.782-26.49,2.562-38.695
					c2.008-5.642,4.876-12.689,8.922-16.916c3.419-3.573,8.444-3.636,12.986-4.626c11.067-2.412,22.544-2.211,33.743-1.29
					c7.642,0.628,15.455,4.75,19.555,11.399c4.12,6.68,2.808,18.424,1.745,25.955c-1.128,7.986-4.254,15.337-5.887,23.16
					c-1.185,5.676-3.156,11.319-2.959,17.187c0.215,6.43,2.175,12.73,4.626,18.631c6.018,14.486,11.879,29.614,14.194,45.267"/>
				<path style="fill:#E0FBFC;" d="M602.318,287.967c0.071,1.395,1.364,2.625,2.76,2.593c1.396-0.033,2.64-1.355,2.554-2.749
					C607.431,284.563,602.131,284.288,602.318,287.967z"/>
				<path style="fill:#E0FBFC;" d="M600.292,301.669c0.781,1.401,2.655,2.131,4.127,1.494c1.144-0.495,1.89-1.681,2.098-2.91
					c0.379-2.232-1.497-4.859-3.988-4.236C600.272,296.582,599.23,299.763,600.292,301.669z"/>
			</g>
			<g>
				<g>
					<path style="fill:#FABE78;" d="M623.038,270.413c-1.156,1.703-2.766,3.193-4.26,4.144c-3.748,2.386-8.517,3.185-13.081,2.891
						c-2.62-0.168-5.281-0.702-7.46-2.034c-3.779-2.309-3.815-5.494-3.428-9.212c0.454-4.36,1.254-8.68,1.908-13.016
						c0.417-2.766,0.945-5.657,2.815-7.872c2.744-3.25,7.981-4.228,12.257-2.932c4.73,1.434,8.665,5.089,9.606,9.516
						c0.507,2.383,0.971,4.774,1.417,7.167c0.363,1.947,1.106,3.574,1.645,5.419C625.026,266.429,624.304,268.548,623.038,270.413z"
						/>
					<path style="fill:#BB8F5A;" d="M613.214,262.8c-4.324,2.415-9.677,3.008-14.384,1.426c-1.06-0.356-2.174-0.896-2.636-1.915
						c-0.293-0.646-0.273-1.384-0.237-2.091c0.042-0.802,1.176-10.676,1.691-10.521c7.382,2.22,15.714,1.038,22.187-3.148
						c-0.164,0.106,0.833,2.907,0.891,3.186c0.276,1.334,0.149,2.758-0.182,4.071c-0.654,2.597-2.22,4.945-4.188,6.736
						C615.4,261.416,614.342,262.17,613.214,262.8z"/>
				</g>
				<g>
					<path style="fill:#E0FBFC;" d="M606.046,277.065c1.952,1.527,3.58,2.766,4.869,4.858c1.292,2.098,2.173,4.407,2.569,6.785
						c0.223,1.335,0.566,3,2.003,3.346c0.703,0.169,1.442-0.067,2.108-0.334c8.437-3.39,11.718-11.156,11.157-19.043
						c-0.161-2.263-0.682-4.506-1.55-6.633c-0.448-1.096-0.987-2.161-1.617-3.181c-0.206-0.333-1.946-2.336-1.859-2.562
						c-1.504,3.857-3.877,7.431-6.917,10.449c-1.438,1.428-2.95,2.167-4.667,3.238C611.522,274.376,606.592,277.492,606.046,277.065
						z"/>
					<path style="fill:#E0FBFC;" d="M592.445,288.65c-1.204-0.184-1.936-1.426-2.388-2.565c-3.121-7.863-1.169-17.486,4.77-23.512
						c1.167,6.004,5.569,13.086,11.918,14.469c0.017,0.004-2.161,2.003-2.475,2.201c-1.088,0.686-2.143,1.421-3.156,2.214
						c-1.961,1.536-3.765,3.271-5.374,5.173c-0.863,1.02-1.927,2.2-3.252,2.026C592.473,288.654,592.459,288.652,592.445,288.65z"/>
				</g>
			</g>
			<g>
				<g>
					<path style="fill:#FABE78;" d="M593.818,184.774c-8.197,3.016-14.915,9.393-16.788,18.623
						c-1.332,6.563,0.032,13.36-0.35,20.046c-0.238,4.168-1.154,8.278-1.327,12.449c-0.31,7.471,2.827,13.564,8.912,17.857
						c7.482,5.277,17.417,6.906,26.192,4.295c6.098-1.814,11.545-5.649,15.432-10.671c1.915-2.475,3.448-5.009,3.938-8.053
						c0.63-3.92,0.594-8.063,2.258-11.742c1.228-2.715,2.776-5.289,3.774-8.096c2.98-8.381,0.514-18.156-5.238-24.94
						c-4.231-4.99-10.047-8.44-16.258-10.367C607.7,182.106,600.297,182.39,593.818,184.774z"/>
					<g>
						<g>
							<path style="fill:#1F2631;" d="M588.516,221.112c0.13,1.087-0.295,2.214-1.069,2.988c-0.442,0.442-1.042,0.788-1.663,0.72
								c-0.595-0.065-1.1-0.506-1.378-1.036c-0.278-0.53-0.36-1.14-0.39-1.738c-0.042-0.846,0.022-1.734,0.458-2.46
								C585.812,217.354,588.28,219.13,588.516,221.112z"/>
							<path style="fill:none;stroke:#1F2631;stroke-linecap:round;stroke-linejoin:round;stroke-miterlimit:10;" d="
								M590.742,215.803c-1.138-1.352-2.928-2.128-4.693-2.035c-1.765,0.093-3.463,1.052-4.453,2.516"/>
						</g>
						<g>
							<path style="fill:#1F2631;" d="M609.385,222.024c0.134,1.158-0.307,2.358-1.11,3.183c-0.458,0.471-1.081,0.839-1.726,0.767
								c-0.618-0.069-1.142-0.539-1.431-1.104c-0.288-0.565-0.374-1.215-0.405-1.851c-0.044-0.901,0.023-1.847,0.475-2.62
								C606.578,218.021,609.14,219.913,609.385,222.024z"/>
							<path style="fill:none;stroke:#1F2631;stroke-linecap:round;stroke-linejoin:round;stroke-miterlimit:10;" d="
								M603.663,216.492c1.497-1.663,3.805-2.557,6.032-2.338c2.226,0.219,4.316,1.547,5.46,3.47"/>
						</g>
						<path style="fill:#FA9257;" d="M592.418,225.463c-0.323,0.485-0.657,0.964-1.002,1.434c-0.657,0.897-1.352,1.766-2.084,2.603
							c-0.634,0.727-1.352,1.31-1.678,2.226c-0.246,0.691-0.286,1.488,0.058,2.136c0.574,1.079,1.949,1.387,3.156,1.574
							c1.163,0.18,2.674,0.425,3.765-0.171c0.926-0.505,1.413-1.646,1.775-2.577c1.421-3.646,2.153-7.559,2.144-11.473
							c-0.002-0.712-0.082-1.531-0.666-1.938c-0.559-0.39-1.365-0.202-1.883,0.24c-0.518,0.442-0.82,1.079-1.123,1.689
							C594.151,222.675,593.328,224.098,592.418,225.463z"/>
						<path style="fill:#FFFFFF;" d="M605.869,238.805c-0.913,2.926-3.011,5.462-5.714,6.908c-2.702,1.446-5.977,1.783-8.917,0.919
							c0.86,0.253,0.914-4.357,0.822-4.796c-0.095-0.447-0.795-1.702-0.504-2.131c0.365-0.539,1.69-0.061,2.279,0.003
							C597.856,240.143,601.959,239.839,605.869,238.805z"/>
					</g>
				</g>
				<g>
					<path style="fill:#1F2631;" d="M601.063,206.554c6.923,4.942,15.525,7.487,24.023,7.105c-1.805,6.371-2.86,12.954-3.137,19.57
						c-0.076,1.818,0.504,4.284,2.323,4.248c0.908-0.018,1.642-0.74,2.163-1.485c3.356-4.803,1.986-12.001,5.924-16.34
						c0.969-1.068,2.201-1.877,3.143-2.968c3.139-3.635,2.25-9.196,0.577-13.698c-2.503-6.736-6.431-13.037-11.913-17.683
						c-5.481-4.646-12.587-7.539-19.768-7.296c-5.039,0.171-17.483,3.474-16.975,10.285
						C587.934,195.13,595.891,202.862,601.063,206.554z"/>
					<path style="fill:#EE6C4D;" d="M616.176,172.883c8.098,3.506,14.968,10.679,18.555,18.458
						c4.09,8.871,4.559,18.948,4.411,28.715c-0.005,0.346-2.79,0.124-3.065-0.02c-0.722-0.376-1.081-1.111-1.37-1.865
						c-1.363-3.56-1.358-7.156-2.189-10.819c-0.748-3.296-1.956-6.486-3.557-9.462c-3.201-5.949-7.994-11.068-13.855-14.456
						c-10.93-6.32-25.191-6.421-36.21-0.257c1.714-0.959,2.721-2.395,4.204-3.605c1.594-1.301,3.304-2.457,5.091-3.477
						c3.638-2.077,7.582-3.591,11.622-4.678C605.412,169.912,611.041,170.661,616.176,172.883z"/>
				</g>
				<g>
					<path style="fill:#FABE78;" d="M629.2,220.005c0.109-1.564,0.832-3.031,2.026-4.048c1.068-0.909,2.272-1.566,3.519-1.902
						c2.385-0.643,6.263-0.379,7.927,1.837c1.927,2.565,2.591,6.622,1.848,10.135c-0.859,4.064-3.593,7.608-6.877,8.915
						c-1.466,0.583-3.014,0.711-4.487,0.424c-2.856-0.556-4.799-3.237-4.597-6.139L629.2,220.005z"/>
					<g>
						<path style="fill:none;stroke:#1F2631;stroke-linecap:round;stroke-linejoin:round;stroke-miterlimit:10;" d="
							M635.023,219.501c-1.901,2.984-2.67,6.671-2.119,10.167"/>
						<path style="fill:none;stroke:#1F2631;stroke-linecap:round;stroke-linejoin:round;stroke-miterlimit:10;" d="
							M640.267,224.666c-2.239,0.13-4.499-0.111-6.66-0.711"/>
					</g>
				</g>
			</g>
			<g>
				<path style="fill:#FABE78;" d="M563.004,382.888c0.525,0.68,1.139,1.312,1.737,1.915c1.343,1.352,2.7,2.715,4.304,3.743
					c1.619,1.037,4.51,2.397,6.268,1.008c0.814-0.643,1.189-1.916,0.578-2.754c1.977-0.295,3.098-3.006,1.907-4.611
					c1.127-0.07,2.166-0.908,2.471-1.996c0.306-1.087-0.144-2.344-1.07-2.991c1.292,0.735,2.926-0.825,2.805-2.306
					s-1.304-2.638-2.485-3.54c-1.358-1.038-3.302-1.959-3.987-3.602c-0.475-1.139-0.404-2.492,0.188-3.575
					c0.115-0.21,0.251-0.417,0.286-0.654c0.035-0.237-0.067-0.517-0.295-0.591c-0.184-0.06-0.38,0.029-0.552,0.118
					c-4.862,2.529-9.179,7.287-12.023,11.901c-0.892,1.447-1.702,3.072-1.541,4.763C561.709,380.899,562.271,381.94,563.004,382.888
					z"/>
				<g>
					<path style="fill:#BB8F5A;" d="M568.358,380.83c-0.132-0.2-0.263-0.461-0.137-0.666c0.102-0.166,0.338-0.205,0.521-0.14
						c0.184,0.065,0.327,0.207,0.464,0.345c2.098,2.12,5.202,4.378,6.734,6.909C572.909,386.801,570.023,383.118,568.358,380.83z"/>
					<path style="fill:#BB8F5A;" d="M570.612,374.93c0.888,0.323,1.557,1.05,2.189,1.752c0.887,0.985,1.775,1.97,2.662,2.955
						c0.677,0.751,1.701,1.582,2.154,2.463C574.526,381.336,571.712,377.73,570.612,374.93z"/>
					<path style="fill:#BB8F5A;" d="M573.862,372.742c-0.195-0.287-0.351-0.736-0.062-0.927c0.229-0.151,0.529,0.018,0.739,0.194
						c1.608,1.353,2.896,3.38,4.229,4.97C576.933,376.826,574.811,374.141,573.862,372.742z"/>
				</g>
			</g>
			<g>
				<g>
					<g>
						<path style="fill:#FABE78;" d="M673.455,310.416c0.327,0.73,0.644,1.464,0.95,2.203c3.686-10.017,7.372-20.034,11.058-30.051
							c5.645,2.478,11.29,4.955,16.934,7.433c1.22,0.535-3.003,18.018-3.436,19.866c-1.609,6.884-3.641,13.668-6.079,20.303
							c-3.454,9.398-8.909,25.603-21.927,23.666c-4.376-0.651-7.949-3.751-11.072-6.886c-9.234-9.271-17.044-20.271-20.884-32.78
							c-3.134-10.212-4.759-20.091-2.973-30.815c0.75-4.502,2.951-10.498,8.276-8.041c6.855,3.164,12.848,10.276,17.486,16.054
							C666.464,297.189,670.402,303.603,673.455,310.416z"/>
						<path style="fill:none;stroke:#1F2631;stroke-linecap:round;stroke-linejoin:round;stroke-miterlimit:10;" d="
							M663.702,339.228c2.118-2.476,5.291-4.019,8.547-4.155c3.256-0.136,6.546,1.137,8.863,3.428"/>
					</g>
					<path style="fill:#2E4460;" d="M668.988,302.066c0.52,0.993,1.031,2.105,0.774,3.196c-0.189,0.8-0.763,1.444-1.317,2.051
						c-7.365,8.078-14.729,16.155-22.094,24.233c-3.669-6.593-8.193-12.553-10.681-19.82c-2.411-7.042-3.378-14.589-2.705-22.007
						c0.43-4.735,1.59-9.601,4.624-13.261c0.852-1.028,1.885-1.97,3.158-2.371c2.753-0.867,5.491,1.592,7.466,3.13
						c5.467,4.255,10.35,9.258,14.478,14.821C665.047,295.21,667.156,298.565,668.988,302.066z"/>
				</g>
				<g>
					<path style="fill:#FABE78;" d="M687.141,260.667c0.318-0.819,0.679-1.652,1.31-2.263c0.631-0.611,1.599-0.954,2.412-0.62
						c0.957,0.393,1.365,1.551,1.365,2.585c0,1.703-0.787,3.306-1.02,4.993c-0.233,1.687,0.394,3.768,2.044,4.189
						c1.87,0.477,3.415-1.419,4.451-3.048c2.279-3.585,4.748-7.05,7.392-10.376c1.023-1.287,2.526-2.695,4.076-2.146
						c1.142,0.404,1.694,1.779,1.554,2.983c-0.14,1.203-0.804,2.272-1.452,3.295c1.093-0.467,1.622-1.677,2.152-2.74
						c0.531-1.063,1.351-2.2,2.539-2.248c1.243-0.05,2.217,1.217,2.313,2.457c0.096,1.24-0.44,2.432-0.963,3.561
						c0.43-1.604,2.742-2.108,4.082-1.126c1.34,0.982,1.717,2.889,1.344,4.507c-0.373,1.618-1.351,3.021-2.309,4.377
						c-0.133-1.074,1.229-1.896,2.24-1.509c1.01,0.387,1.531,1.574,1.465,2.654c-0.066,1.08-0.594,2.072-1.145,3.003
						c-4.282,7.225-10.704,13.043-17.922,17.336c-2.091,1.243-4.293,2.381-6.681,2.841c-2.389,0.46-5.009,0.171-6.989-1.242
						c-3.53-2.521-4.38-9.875-4.729-13.835C684.145,272.333,684.976,266.249,687.141,260.667z"/>
					<g>
						<path style="fill:#BB8F5A;" d="M700.656,270.76c-0.214,0.183-0.441,0.377-0.531,0.644c-0.09,0.267,0.024,0.624,0.298,0.689
							c0.163,0.038,0.33-0.033,0.481-0.107c2.346-1.147,4.205-3.13,5.594-5.341c1.093-1.741,2.649-4.255,2.922-6.31
							c-0.531,0.357-0.913,1.075-1.262,1.614c-0.703,1.085-1.396,2.165-2.182,3.194C704.408,267.196,702.622,269.084,700.656,270.76
							z"/>
						<path style="fill:#BB8F5A;" d="M703.526,273.488c-0.227,0.163-0.485,0.397-0.415,0.667c0.091,0.356,0.604,0.339,0.949,0.214
							c1.427-0.521,2.636-1.504,3.743-2.545c1.678-1.578,3.192-3.33,4.513-5.217c1.13-1.615,2.5-3.536,3.069-5.435
							c-1.666,1.823-2.926,4.051-4.618,5.895C708.582,269.447,706.153,271.604,703.526,273.488z"/>
						<path style="fill:#BB8F5A;" d="M707.977,276.51c-0.218,0.155-0.451,0.333-0.51,0.594c-0.092,0.408,0.326,0.788,0.743,0.818
							s0.81-0.183,1.17-0.395c2.305-1.362,4.414-3.049,6.259-4.988c1.682-1.769,2.851-3.79,4.272-5.731
							c-0.76,1.936-2.439,2.943-4.061,4.098C713.225,272.773,710.601,274.642,707.977,276.51z"/>
					</g>
					<path style="fill:#BB8F5A;" d="M694.072,283.925c2.631-1.286,4.214-4.31,4.05-7.233c-0.082-1.455-0.567-2.869-1.332-4.105
						c-0.36-0.583-0.839-1.374-1.406-1.777c-0.482-0.342-0.463-0.48-0.635,0.087c-0.297,0.975,0.805,2.786,0.997,3.751
						c0.295,1.481,0.332,3.016,0.106,4.51C695.597,280.848,695.003,282.49,694.072,283.925z"/>
				</g>
			</g>
		</g>
		<g>
			<g>
				<circle style="fill:#98C1D9;" cx="694.276" cy="174.245" r="30.279"/>
				<path style="fill:#98C1D9;" d="M691.273,203.398c3.673,5.354,2.736,13.366-2.074,17.727
					c9.329-4.919,16.677-13.477,20.127-23.443"/>
			</g>
			<g>
				<path style="fill:#FFFFFF;" d="M699.536,158.047c-0.841,1.313-1.682,2.626-2.523,3.939c-0.677,1.056-0.846,1.23,0.221,1.896
					c0.774,0.482,1.497,1.015,2.235,1.551c0.937,0.681,1.673,1.742,1.664,2.9c-0.006,0.831-0.386,1.609-0.762,2.35
					c-1.758,3.458-3.647,6.849-5.661,10.164c-0.42,0.692-0.881,1.414-1.601,1.784c-1.558,0.802-3.363-0.387-4.707-1.511
					c-1.156,1.947-2.799,4.005-3.955,5.952c-0.117,0.197,3.409,2.982,3.903,3.256c1.88,1.043,4.19,1.876,6.349,1.325
					c2.886-0.737,4.592-3.63,5.983-6.264c1.807-3.423,3.614-6.846,5.421-10.269c1.434-2.716,3.157-5.881,2.721-9.064
					c-0.295-2.156-1.542-4.09-3.105-5.604c-1.563-1.514-3.437-2.659-5.295-3.792C700.128,157.123,699.832,157.585,699.536,158.047z"
					/>
				<path style="fill:#FFFFFF;" d="M703.046,156.014c-1.107-1.014-2.372-1.974-3.479-2.988c-2.788,3.474-5.261,7.201-7.377,11.121
					c1.575,0.631,3.067,1.628,4.562,2.431C699.081,163.284,701.204,159.602,703.046,156.014z"/>
				<path style="fill:#FFFFFF;" d="M690.516,179.001c-1.107-1.014-2.372-1.974-3.479-2.988c-2.788,3.474-5.261,7.201-7.377,11.121
					c1.575,0.631,3.067,1.628,4.562,2.431C686.551,186.271,688.673,182.589,690.516,179.001z"/>
			</g>
		</g>
		<g>
			<path style="fill:#FABE78;" d="M611.853,112.095c-1.621-0.547-3.416-0.722-5.138-0.843c-14.317-1.007-28.7-0.923-43.071-0.247
				c-2.164,0.102-4.483,0.275-6.175,1.628c-1.98,1.583-2.542,4.322-2.825,6.841c-0.72,6.417-0.31,12.927,0.386,19.298
				c0.403,3.688,0.371,9.472,3.631,11.97c0.86,0.659,2.04,0.654,3.123,0.619c4.377-0.141,8.753-0.282,13.13-0.423
				c2.148-0.069,4.565-0.469,6.695-0.216c1.645,0.196,2.803,1.785,4.091,2.868c5.494,4.623,12.309,7.658,19.421,8.649
				c-3.048-3.19-5.436-7.088-6.236-11.433c4.117-0.018,8.235-0.035,12.352-0.053c1.335-0.006,2.733-0.027,3.906-0.663
				c1.883-1.022,2.66-3.345,2.779-5.484c0.397-7.145,0.528-14.514,0.041-21.662c-0.232-3.4-0.79-7.137-3.381-9.351
				C613.776,112.906,612.847,112.43,611.853,112.095z"/>
			<g>
				<path style="fill:#FFFFFF;" d="M566.537,124.907c13.591-0.956,27.369,2.149,40.823,0.094c0.708-0.108,1.436-0.239,2.034-0.616
					c0.598-0.377,1.039-1.065,0.895-1.738c-0.247-1.16-1.824-1.438-3.06-1.459c-7.262-0.124-14.525-0.16-21.787-0.107
					c-3.689,0.027-7.377,0.077-11.065,0.151c-3.201,0.063-6.657-0.203-9.826,0.223c-1.094,0.147-1.991,0.382-1.924,1.612
					C562.73,124.975,565.087,125.009,566.537,124.907z"/>
				<path style="fill:#FFFFFF;" d="M566.14,137.186c13.591-0.956,27.368,2.149,40.823,0.094c0.708-0.108,1.436-0.239,2.034-0.616
					c0.598-0.377,1.039-1.065,0.895-1.738c-0.247-1.16-1.824-1.438-3.06-1.459c-7.262-0.124-14.525-0.161-21.787-0.107
					c-3.689,0.027-7.377,0.077-11.065,0.151c-3.201,0.064-6.657-0.203-9.826,0.223c-1.094,0.147-1.991,0.382-1.924,1.612
					C562.332,137.254,564.689,137.289,566.14,137.186z"/>
			</g>
		</g>
	</g>
	<g>
		<g>
			<g>
				
					<ellipse transform="matrix(0.7664 -0.6424 0.6424 0.7664 -71.1291 214.2008)" style="fill:#98C1D9;" cx="258.927" cy="204.892" rx="30.279" ry="30.279"/>
				<path style="fill:#98C1D9;" d="M273.158,230.511c-1.271,6.367,2.743,13.364,8.881,15.481
					c-10.512-0.852-20.634-5.829-27.727-13.633"/>
			</g>
			<g>
				<path style="fill:#FFFFFF;" d="M263.473,188.84c-0.841,1.313-1.682,2.626-2.523,3.939c-0.677,1.056-0.846,1.23,0.221,1.896
					c0.774,0.482,1.497,1.015,2.235,1.551c0.937,0.681,1.673,1.742,1.664,2.9c-0.006,0.831-0.386,1.609-0.762,2.35
					c-1.758,3.458-3.647,6.849-5.661,10.164c-0.421,0.692-0.881,1.414-1.601,1.784c-1.558,0.802-3.363-0.387-4.707-1.511
					c-1.156,1.947-2.799,4.005-3.955,5.952c-0.117,0.197,3.408,2.982,3.903,3.256c1.88,1.043,4.19,1.876,6.349,1.325
					c2.886-0.737,4.592-3.63,5.982-6.264c1.807-3.423,3.614-6.846,5.421-10.269c1.434-2.716,3.157-5.881,2.721-9.064
					c-0.295-2.155-1.542-4.09-3.105-5.604c-1.563-1.514-3.437-2.659-5.294-3.792C264.064,187.916,263.769,188.378,263.473,188.84z"
					/>
				<path style="fill:#FFFFFF;" d="M266.983,186.807c-1.107-1.014-2.372-1.974-3.479-2.988c-2.788,3.474-5.261,7.201-7.377,11.121
					c1.575,0.631,3.067,1.628,4.562,2.431C263.018,194.077,265.141,190.395,266.983,186.807z"/>
				<path style="fill:#FFFFFF;" d="M254.452,209.794c-1.107-1.014-2.372-1.974-3.479-2.988c-2.788,3.474-5.261,7.201-7.377,11.121
					c1.575,0.631,3.067,1.628,4.562,2.431C250.487,217.065,252.61,213.382,254.452,209.794z"/>
			</g>
		</g>
		<g>
			<path style="fill:#FABE78;" d="M419.912,128.753c1.621-0.546,3.416-0.722,5.138-0.843c14.317-1.007,28.7-0.923,43.071-0.247
				c2.164,0.102,4.483,0.275,6.175,1.628c1.98,1.583,2.542,4.322,2.825,6.841c0.72,6.417,0.31,12.927-0.386,19.298
				c-0.403,3.688-0.371,9.472-3.631,11.97c-0.86,0.659-2.04,0.654-3.123,0.619c-4.377-0.141-8.753-0.282-13.13-0.422
				c-2.148-0.069-4.565-0.469-6.695-0.216c-1.645,0.196-2.803,1.785-4.09,2.868c-5.494,4.623-12.309,7.658-19.421,8.649
				c3.048-3.19,5.436-7.088,6.236-11.433c-4.117-0.018-8.235-0.035-12.352-0.053c-1.335-0.006-2.733-0.027-3.906-0.663
				c-1.883-1.022-2.66-3.345-2.779-5.484c-0.397-7.145-0.528-14.514-0.041-21.662c0.232-3.4,0.789-7.137,3.381-9.351
				C417.99,129.563,418.918,129.088,419.912,128.753z"/>
			<g>
				<path style="fill:#FFFFFF;" d="M465.228,141.565c-13.591-0.956-27.368,2.149-40.823,0.094c-0.708-0.108-1.436-0.239-2.034-0.616
					c-0.598-0.377-1.039-1.065-0.895-1.738c0.247-1.16,1.824-1.438,3.06-1.459c7.262-0.124,14.525-0.16,21.787-0.107
					c3.689,0.027,7.377,0.077,11.065,0.151c3.201,0.064,6.657-0.203,9.826,0.223c1.094,0.147,1.991,0.382,1.924,1.612
					C469.036,141.632,466.679,141.667,465.228,141.565z"/>
				<path style="fill:#FFFFFF;" d="M465.625,153.844c-13.591-0.956-27.368,2.149-40.823,0.094c-0.708-0.108-1.436-0.239-2.034-0.616
					c-0.598-0.377-1.039-1.065-0.895-1.738c0.247-1.16,1.824-1.438,3.06-1.459c7.262-0.124,14.525-0.16,21.787-0.107
					c3.689,0.027,7.377,0.077,11.065,0.151c3.201,0.064,6.657-0.203,9.826,0.223c1.094,0.147,1.991,0.382,1.924,1.612
					C469.433,153.912,467.076,153.946,465.625,153.844z"/>
			</g>
		</g>
		<g>
			<g>
				<g>
					<path style="fill:#FABE78;" d="M216.273,358.473c-1.519,0.337-3.283,1.064-3.527,2.601c-0.241,1.522,1.253,2.803,2.743,3.194
						c1.49,0.391,3.089,0.245,4.561,0.702c0.971,0.302,1.972,1.072,1.904,2.087c-0.088,1.318-1.743,1.808-3.052,1.99
						c-4.936,0.688-9.807,1.834-14.532,3.417c-1.502,0.503-3.359,1.34-3.135,3.257c0.14,1.199,1.263,2.203,2.471,2.208
						c-0.823,0.935-2.106,1.277-3.252,1.765c-1.146,0.488-2.333,1.344-2.432,2.585c-0.091,1.139,0.824,2.164,1.887,2.581
						c1.064,0.417,2.245,0.364,3.386,0.305c-1.42,0.027-2.565,1.459-2.527,2.879c0.037,1.42,1.056,2.691,2.333,3.312
						c1.277,0.621,2.766,0.674,4.17,0.46c-1.069-0.064-1.499,1.585-0.798,2.395c0.701,0.81,1.898,0.93,2.969,0.933
						c7.785,0.022,15.648-3.486,22.573-6.763c3.089-1.462,6.152-3.118,8.568-5.535c4.238-4.24,4.848-10.792,2.364-16.15
						c-1.125-2.427-3.25-5.621-5.835-6.685c-1.235-0.508-2.784-0.585-4.085-0.962c-1.965-0.571-3.981-0.964-6.017-1.176
						C223.431,357.502,219.789,357.693,216.273,358.473z"/>
					<g>
						<path style="fill:#BB8F5A;" d="M221.774,372.656c0.176,0.422-0.037,0.925-0.383,1.224c-0.346,0.299-0.797,0.439-1.235,0.571
							c-2.98,0.903-5.964,1.806-8.995,2.523c-1.525,0.361-3.061,0.675-4.609,0.917c-0.96,0.15-2.425,0.601-3.363,0.326
							c1.075-1.061,3.632-1.089,5.029-1.367c2.973-0.592,5.801-1.721,8.652-2.719C218.481,373.566,220.108,373.034,221.774,372.656z
							"/>
						<path style="fill:#BB8F5A;" d="M218.988,379.524c0.093,0.778-0.368,1.54-0.992,2.014c-0.624,0.474-1.392,0.711-2.146,0.924
							c-4.007,1.13-8.475,2.268-12.64,2.499c0.229-0.622,3.038-0.841,3.739-1.014c1.387-0.341,2.761-0.733,4.119-1.175
							c1.358-0.442,2.699-0.935,4.02-1.477C215.471,381.138,219.021,379.802,218.988,379.524z"/>
						<path style="fill:#BB8F5A;" d="M220.275,387.385c0.218,0.456,0.042,1.023-0.298,1.397c-0.34,0.374-0.813,0.594-1.279,0.791
							c-1.86,0.788-3.81,1.362-5.799,1.714c-1.591,0.281-3.705,0.722-5.292,0.375c1.76-0.704,3.836-0.882,5.662-1.455
							C213.869,390.018,220.378,387.602,220.275,387.385z"/>
					</g>
				</g>
				<g>
					<path style="fill:#293241;" d="M282.831,323.931c-1.467,1.493-3.79,2.535-5.5,3.633c-4.96,3.185-9.919,6.37-14.879,9.556
						c-9.919,6.37-19.839,12.741-29.758,19.111c-0.397,0.255-0.794,0.51-1.19,0.764c4.072,8.407,7.241,17.251,9.435,26.33
						c14.505-5.434,29.011-10.868,43.516-16.302c6.04-2.263,12.24-4.621,17.006-8.967c5.019-4.577,8.339-10.924,11.856-16.741
						c14.609-24.159,28.293-52.966,11.264-79.732c-0.853-1.34-1.977-2.771-3.561-2.891c-1.773-0.134-3.167,1.421-4.236,2.841
						c-12.668,16.824-23.06,35.358-30.818,54.937c-0.787,1.986-1.295,4.971-2.498,6.699
						C283.283,323.436,283.068,323.69,282.831,323.931z"/>
					<path style="fill:none;stroke:#1F2631;stroke-linecap:round;stroke-linejoin:round;stroke-miterlimit:10;" d="M291.908,351.308
						c0.139-5.074,3.795-9.861,8.654-11.329"/>
				</g>
			</g>
			<g>
				<g>
					<path style="fill:#FABE78;" d="M502.54,281.895c-2.115,1.345-4.353,2.632-6.819,3.196c-2.158,0.493-3.582-0.094-5.626-0.593
						c-4.136-1.009-7.506-3.277-9.627-7.061c-3.808-6.794-1.002-14.267-3.643-21.231c-0.475-1.254-1.132-2.594-0.722-3.871
						c0.532-1.658,2.761-2.285,4.354-1.581c1.593,0.704,2.587,2.333,3.137,3.986c0.55,1.652,0.756,3.405,1.322,5.052
						c0.31,0.903,0.881,1.886,1.828,2.002c0.993,0.121,1.789-0.767,2.39-1.567c1.85-2.462,3.673-4.948,5.551-7.389
						c1.535-1.996,2.447-4.372,4.355-6.113c0.553-0.504,1.175-0.968,1.901-1.146c0.726-0.178,1.576-0.014,2.05,0.564
						c0.437,0.533,0.473,1.282,0.44,1.97c-0.095,2.034-0.617,4.048-1.523,5.872c1.399-0.867,2.217-2.396,3.271-3.66
						c1.054-1.264,2.694-2.359,4.259-1.852c1.784,0.578,2.36,2.92,1.892,4.735c0.654-0.927,1.428-1.915,2.543-2.128
						c1.522-0.29,2.952,1.103,3.283,2.617c0.331,1.514-0.131,3.076-0.589,4.557c0.43-1.336,2.234-1.859,3.5-1.252
						c1.266,0.607,1.985,2.016,2.17,3.408c0.258,1.95-0.37,3.939-1.395,5.618c-1.025,1.679-2.429,3.091-3.853,4.448
						C512.535,274.715,507.728,278.595,502.54,281.895z"/>
					<g>
						<path style="fill:#BB8F5A;" d="M492.92,265.408c-0.306,0.378-0.549,1.058-0.098,1.242c0.278,0.113,0.57-0.111,0.785-0.32
							c0-0.509,2.181-2.303,2.572-2.766c0.862-1.02,1.673-2.083,2.43-3.184c1.479-2.152,2.888-4.504,3.813-6.953
							c-1.604,1.64-2.901,3.826-4.361,5.631C496.346,261.174,494.633,263.291,492.92,265.408z"/>
						<path style="fill:#BB8F5A;" d="M501.912,266.191c0.958,0.404,1.967-0.41,2.665-1.18c2.102-2.321,3.961-4.863,5.536-7.569
							c0.988-1.699,1.891-3.663,1.404-5.567C509.426,257.065,505.412,261.869,501.912,266.191z"/>
						<path style="fill:#BB8F5A;" d="M509.54,267.16c-0.377,0.469-0.762,1.145-0.392,1.619c0.224,0.287,0.652,0.344,0.998,0.23
							s0.626-0.366,0.889-0.618c3.255-3.113,5.504-7.263,6.335-11.69c0,0.48-1.04,1.776-1.325,2.238
							c-0.552,0.893-1.252,1.686-1.911,2.505C512.602,263.35,511.071,265.255,509.54,267.16z"/>
					</g>
				</g>
				<g>
					<path style="fill:#293241;" d="M412.131,258.525c13.513,14.583,26.002,31.135,35.422,48.675
						c9.689-12.022,19.711-23.321,30.346-34.515c3.591,2.177,7.022,4.551,10.447,6.974c1.295,0.916,10.098,5.863,10.098,7.144
						c-6.771,14.416-14.535,28.364-23.212,41.719c-4.339,6.677-8.906,13.207-13.691,19.571c-3.58,4.762-7.832,12.547-13.995,14.232
						c-3.626,0.991-7.574,0.425-10.758-1.58c-2.923-1.841-5.319-4.392-7.68-6.913c-8.994-9.603-18.357-18.719-25.585-29.608"/>
					<path style="fill:none;stroke:#1F2631;stroke-linecap:round;stroke-linejoin:round;stroke-miterlimit:10;" d="M437.649,345.196
						c4.542-1.921,10.137-1.055,13.885,2.151"/>
				</g>
			</g>
			<g>
				<path style="fill:#1F2631;" d="M408.197,410.746c3.084-36.439,5.334-95.203,8.419-131.642
					c0.644-7.604,0.642-16.687-5.601-21.076c-2.772-1.949-6.257-2.507-9.607-3.013c-13.115-1.981-26.806-5.417-40.121-4.968
					c-11.848,0.399-23.553,2.768-34.958,5.891c-2.665,0.73-5.438,1.57-7.402,3.513c-3.195,3.161-2.842,7.361-3.289,11.445
					c-4.312,39.359-1.23,100.399,0.955,139.85"/>
				<g>
					<path style="fill:#98C1D9;" d="M352.6,281.73c2.193,8.161,5.503,16.111,10.571,22.872c4.938-6.279,9.891-12.579,13.969-19.448
						c4.078-6.868,7.28-14.362,8.427-22.267c0.431-2.97,0.541-6.133-0.77-8.832c-1.093-2.251-3.103-3.973-5.36-5.053
						c-2.257-1.08-4.757-1.564-7.25-1.792c-4.666-0.427-9.451,0.024-13.838,1.671c-2.91,1.092-5.634,2.723-7.916,4.84
						c-2.304,2.138-2.204,3.302-1.767,6.202C349.771,267.252,350.671,274.552,352.6,281.73z"/>
					<g>
						<path style="fill:#EE6C4D;" d="M359.387,293.192c-0.183,0.976-0.366,1.97-0.254,2.957c0.207,1.824,1.389,3.383,2.656,4.712
							c1.267,1.328,2.686,2.56,3.576,4.166c2.776-3.418,5.553-6.837,8.329-10.255c0.67-0.825,1.362-1.698,1.549-2.744
							c0.16-0.898-0.075-1.814-0.308-2.696c-1.617-6.122-3.234-12.245-4.851-18.367c0,0.507-3.358,0.547-3.739,0.516
							c-1.376-0.115-2.541-0.618-3.767-1.181c-0.138,1.557,0.097,3.131,0.058,4.695c-0.044,1.781-0.508,3.556-0.834,5.3
							C360.996,284.595,360.191,288.893,359.387,293.192z"/>
						<path style="fill:#EE6C4D;" d="M362.291,263.075c-1.85,0.643-3.547,2.086-3.934,4.005c-0.234,1.157,0.024,2.358,0.396,3.479
							c0.554,1.669,1.444,3.336,2.96,4.228c1.212,0.712,2.674,0.842,4.079,0.847c2.467,0.009,5.1-0.387,6.941-2.029
							c2.016-1.797,2.624-4.991,1.409-7.403C372.122,262.188,366.067,261.762,362.291,263.075z"/>
					</g>
				</g>
				<g>
					<path style="fill:#3D5A80;" d="M356.041,410.749c3.145-0.083,6.323,0.08,9.467-0.003c0.197-0.005-0.578-102.498-0.707-109.846
						c-1.926,10.174-1.216,21.367-2.066,31.719c-0.993,12.09-2.258,24.157-3.792,36.19
						C358.064,375.702,357.097,403.882,356.041,410.749z"/>
					<path style="fill:#3D5A80;" d="M363.958,300.389c-8.002-16.678-13.183-34.706-15.257-53.088
						c-3.951,2.876-8.729,6.593-11.307,10.745c-1.844,2.97-3.292,6.679-1.916,9.893c0.828,1.933,2.538,3.324,4.202,4.61
						c1.664,1.286,3.404,2.617,4.338,4.501c0.934,1.884,0.77,4.499-0.946,5.715c-0.817,0.579-1.887,0.786-2.587,1.502
						c-0.969,0.99-0.882,2.667-0.178,3.86c0.704,1.193,1.882,2.016,3.025,2.8c7.269,4.991,14.538,9.982,21.806,14.973
						C364.839,304.279,364.672,301.875,363.958,300.389z"/>
					<path style="fill:#3D5A80;" d="M365.983,300.389c8.002-16.678,13.183-34.706,15.257-53.088
						c3.952,2.876,8.729,6.593,11.307,10.745c1.844,2.97,3.293,6.679,1.916,9.893c-0.828,1.933-2.538,3.324-4.202,4.61
						c-1.664,1.286-3.404,2.617-4.338,4.501c-0.934,1.884-0.77,4.499,0.946,5.715c0.817,0.579,1.887,0.786,2.587,1.502
						c0.969,0.99,0.882,2.667,0.178,3.86c-0.704,1.193-1.882,2.016-3.025,2.8c-7.269,4.991-14.537,9.982-21.806,14.973
						C365.103,304.279,365.27,301.875,365.983,300.389z"/>
				</g>
				<g>
					<path style="fill:#EE6C4D;" d="M382.348,315.059c1.828-3.812,3.657-7.624,5.485-11.437c0.123-0.257,0.276-0.54,0.549-0.621
						c0.399-0.118,0.758,0.256,1.007,0.59c1.479,1.987,2.958,3.973,4.436,5.96c1.894-1.39,3.788-2.779,5.682-4.169
						c0.64,3.456,1.28,6.911,1.92,10.367"/>
					<path style="fill:#3D5A80;" d="M402.345,314.014c-0.195,1.905-0.389,3.81-0.584,5.715c-7.104,0.237-14.229-0.159-21.263-1.182
						c0.31-1.646,0.359-3.341,0.147-5.002C382.676,313.71,402.345,313.899,402.345,314.014z"/>
				</g>
			</g>
			<g>
				<g>
					<path style="fill:#FABE78;" d="M357.108,260.149c0.778,0.345,1.574,0.651,2.376,0.926c4.502,1.545,9.503,2.189,14,0.631
						c5.395-1.869,8.553-6.586,8.338-12.198c-0.276-7.222-1.232-14.418-2.849-21.462c-0.977-4.255-2.375-8.738-5.785-11.464
						c-4.441-3.551-11.333-2.871-15.782,0.671c-4.613,3.673-6.473,9.346-6.948,15.014c-0.402,4.802-0.802,9.614-1.33,14.404
						c-0.196,1.781-0.773,3.102-0.31,4.914c0.498,1.947,1.618,3.725,3.042,5.129C353.359,258.192,355.176,259.292,357.108,260.149z"
						/>
					<path style="fill:#BB8F5A;" d="M359.287,247.402c2.07,1.703,4.535,3.175,7.215,3.163c2.746-0.012,5.253-1.582,7.282-3.432
						c2.611-2.378,4.746-5.375,5.66-8.787c0.914-3.411,0.503-7.255-1.523-10.148c-1.898-2.711-5.011-4.368-8.214-5.199
						c-3.112-0.808-6.43-0.918-9.539-0.102c-3.11,0.815-5.997,2.584-7.971,5.121c-1.188,1.527-2.16,3.517-2.153,5.494
						c0.005,1.596,0.981,3.188,1.703,4.573C353.604,241.652,356.18,244.847,359.287,247.402z"/>
				</g>
				<g>
					<path style="fill:#98C1D9;" d="M365.067,262.372c0.149,0.1,0.299,0.199,0.449,0.297c-0.86-0.561-3.823,4.367-4.09,4.974
						c-0.464,1.057-0.777,2.183-0.914,3.33c-0.123,1.035,0.226,2.357-0.354,3.274c-0.669,1.057-2.229,1.067-3.408,0.648
						c-2.672-0.95-4.565-3.343-5.944-5.821c-2.21-3.974-3.478-8.461-3.756-12.996c-0.139-2.27-0.03-4.556,0.343-6.8
						c0.35-2.103,0.412-4.033,2.082-5.602C352.753,251.221,358.236,257.791,365.067,262.372z"/>
					<path style="fill:#98C1D9;" d="M366.029,262.616c3.297,2.298,5.686,5.864,6.557,9.788c0.237,1.066,0.702,2.45,1.793,2.399
						c0.365-0.017,0.694-0.213,1.001-0.411c4.828-3.111,8.376-8.146,9.683-13.738c0.717-3.067,0.754-6.285,0.155-9.375
						c-0.194-1.002-1.748-7.57-3.109-7.339c-0.498,0.084-0.682,1.812-0.776,2.169c-0.321,1.223-0.74,2.248-1.405,3.328
						c-1.576,2.556-3.468,4.918-5.608,7.024C371.86,258.882,369.065,260.967,366.029,262.616z"/>
				</g>
			</g>
			<g>
				<g>
					<path style="fill:#FABE78;" d="M393.119,195.115c-0.058-0.592-0.124-1.182-0.198-1.769c-0.445-3.501-0.023-7.099-0.543-10.649
						c-0.52-3.55-1.459-7.039-2.803-10.366c-0.899-2.225-2.028-4.447-3.875-5.979c-2.096-1.739-4.868-2.392-7.552-2.858
						c-9.624-1.67-19.509-1.593-29.184-0.252c-2.784,0.386-5.675,0.927-7.907,2.636c-2.697,2.065-3.963,5.472-4.832,8.755
						c-1.564,5.903-2.267,12.031-2.098,18.135c0.08,2.88,0.759,5.82,0.688,8.674c-0.068,2.717-0.217,5.462-0.172,8.207
						c0.057,3.46,0.356,6.963,1.325,10.298c0.527,1.812,1.19,3.21,2.061,4.459c0,0-0.169,0.127-0.17,0.127
						c-0.071,0.053,2.574,3.821,2.901,4.237c1.154,1.466,2.803,2.468,4.38,3.451c3.72,2.318,7.748,4.086,11.753,5.843
						c3.653,1.603,7.535,3.241,11.492,2.733c3.241-0.416,6.11-2.227,8.859-3.993c3.748-2.407,7.545-4.857,10.686-8.048
						c3.541-3.597,4.376-7.352,4.802-12.309C393.334,209.451,393.803,202.136,393.119,195.115z"/>
					<g>
						<g>
							<path style="fill:#1F2631;" d="M372.621,199.538c-0.134,1.125,0.306,2.291,1.106,3.092c0.457,0.457,1.078,0.815,1.721,0.745
								c0.616-0.067,1.139-0.524,1.426-1.072c0.288-0.549,0.373-1.18,0.404-1.798c0.044-0.875-0.023-1.794-0.474-2.546
								C375.419,195.649,372.865,197.487,372.621,199.538z"/>
							<path style="fill:none;stroke:#1F2631;stroke-linecap:round;stroke-linejoin:round;stroke-miterlimit:10;" d="
								M371.555,194.358c1.138-1.352,2.928-2.128,4.692-2.035c1.765,0.093,3.463,1.052,4.453,2.516"/>
						</g>
						<g>
							<path style="fill:#1F2631;" d="M352.374,199.425c-0.134,1.158,0.307,2.358,1.11,3.183c0.458,0.471,1.081,0.839,1.726,0.767
								c0.618-0.069,1.142-0.539,1.431-1.104c0.288-0.565,0.374-1.215,0.405-1.851c0.044-0.901-0.023-1.847-0.475-2.62
								C355.18,195.421,352.619,197.314,352.374,199.425z"/>
							<path style="fill:none;stroke:#1F2631;stroke-linecap:round;stroke-linejoin:round;stroke-miterlimit:10;" d="
								M358.095,193.892c-1.497-1.663-3.805-2.557-6.032-2.338c-2.226,0.219-4.316,1.547-5.46,3.47"/>
						</g>
						<path style="fill:#FA9257;" d="M368.362,202.765c0.228,1.738,0.344,3.487,0.234,5.24c-0.084,1.342-0.022,3.083-1.288,3.853
							c-1.121,0.682-2.638,0.636-3.73-0.087c-1.429-0.945-2.115-2.734-2.155-4.447c-0.081-3.42,1.268-7.099,2.712-10.145
							c0.373-0.788,0.988-1.681,1.855-1.591c0.929,0.096,1.318,1.215,1.497,2.132C367.812,199.387,368.14,201.071,368.362,202.765z"
							/>
						<path style="fill:#FFFFFF;" d="M377.969,216.46c-8.481,1.187-17.114,1.281-25.619,0.279
							c1.592,5.671,6.534,10.144,12.424,10.125C370.664,226.845,376.414,222.141,377.969,216.46z"/>
					</g>
				</g>
				<path style="fill:#1F2631;" d="M395.686,169.788c4.816,1.828,4.118,10.024,3.914,14.112c-0.28,5.626-1.693,11.199-4.172,16.26
					c-0.56,1.142-1.277,2.352-2.48,2.764c-1.933,0.662-3.826-1.064-4.978-2.752c-2.66-3.896-4.219-8.513-4.568-13.212
					c-0.351-4.736,0.937-9.316,1.701-13.934c-7.086,2.585-14.715,3.423-22.257,3.327c-7.542-0.095-15.04-1.1-22.516-2.103
					c1.091,2.729,1.436,5.775,1.988,8.646c0.535,2.782,0.693,5.635,0.486,8.46c-0.414,5.646-2.293,11.204-5.564,15.839
					c-0.419,0.594-0.953,1.227-1.678,1.268c-0.689,0.04-1.275-0.472-1.755-0.967c-4.356-4.487-7.127-10.483-7.723-16.708
					c-0.596-6.225,0.988-12.638,4.414-17.87c1.073-1.638,2.356-3.254,2.628-5.193c0.214-1.528-0.234-3.066-0.292-4.608
					c-0.181-4.844,2.96-9.204,7.248-11.187c3.032-1.401,6.435-1.79,9.775-1.829c13.083-0.154,26.415,4.712,39.004,1.149
					c1.935-0.548,3.899-1.298,5.896-1.052c3.982,0.492,6.505,4.969,6.184,8.968C400.617,163.167,398.22,166.677,395.686,169.788z"/>
				<g>
					<path style="fill:#FABE78;" d="M334.766,203.142c-0.109-1.564-0.832-3.031-2.026-4.048c-1.068-0.909-2.272-1.566-3.519-1.903
						c-2.385-0.643-6.263-0.379-7.927,1.837c-1.927,2.565-2.591,6.622-1.848,10.135c0.86,4.064,3.593,7.608,6.877,8.915
						c1.466,0.583,3.014,0.711,4.487,0.424c2.856-0.556,4.799-3.237,4.597-6.139L334.766,203.142z"/>
					<g>
						<path style="fill:none;stroke:#1F2631;stroke-linecap:round;stroke-linejoin:round;stroke-miterlimit:10;" d="
							M328.942,202.638c1.901,2.984,2.67,6.671,2.119,10.167"/>
						<path style="fill:none;stroke:#1F2631;stroke-linecap:round;stroke-linejoin:round;stroke-miterlimit:10;" d="
							M323.698,207.803c2.239,0.13,4.499-0.111,6.66-0.711"/>
					</g>
				</g>
				<g>
					<path style="fill:#FABE78;" d="M392.081,202.466c0.109-1.564,0.832-3.031,2.026-4.048c1.068-0.909,2.272-1.566,3.519-1.903
						c2.385-0.643,6.263-0.379,7.927,1.837c1.927,2.565,2.591,6.622,1.848,10.135c-0.859,4.064-3.593,7.608-6.877,8.915
						c-1.466,0.583-3.014,0.711-4.487,0.424c-2.855-0.556-4.798-3.237-4.597-6.139L392.081,202.466z"/>
					<g>
						<path style="fill:none;stroke:#1F2631;stroke-linecap:round;stroke-linejoin:round;stroke-miterlimit:10;" d="
							M397.904,201.962c-1.901,2.984-2.67,6.671-2.119,10.167"/>
						<path style="fill:none;stroke:#1F2631;stroke-linecap:round;stroke-linejoin:round;stroke-miterlimit:10;" d="
							M403.148,207.127c-2.239,0.13-4.499-0.111-6.66-0.711"/>
					</g>
				</g>
			</g>
		</g>
		<g>
			<g>
				<path style="fill:#EE6C4D;" d="M323.628,134.199h-54.809c-3.415,0-5.919-3.212-5.085-6.524l7.847-31.164
					c0.587-2.33,2.682-3.964,5.085-3.964h54.809c3.415,0,5.919,3.213,5.085,6.524l-7.847,31.164
					C328.126,132.566,326.031,134.199,323.628,134.199z"/>
				<path style="fill:#B3513A;" d="M271.581,96.511l28.566,16.862l36.413-14.301c0.077-0.319,0.536-2.38-0.793-4.279
					c-1.515-2.164-4.037-2.242-4.292-2.245c-18.269,0-36.539,0-54.809,0c-0.318-0.036-1.897-0.179-3.338,0.936
					C271.872,94.611,271.624,96.199,271.581,96.511z"/>
				<polyline style="fill:none;stroke:#B3513A;stroke-linecap:round;stroke-linejoin:round;stroke-miterlimit:10;" points="
					263.734,127.675 300.147,113.935 328.713,130.236 				"/>
			</g>
			<path style="fill:none;stroke:#1F2631;stroke-linecap:round;stroke-linejoin:round;stroke-miterlimit:10;" d="M295.397,141.363
				c-2.633,6.745-2.928,14.378-0.823,21.305c2.105,6.928,6.595,13.107,12.535,17.247"/>
		</g>
	</g>
	<rect x="25.714" y="402.401" style="fill:#293241;" width="694.196" height="7.82"/>
</g>
</svg>
